<?xml version="1.0" encoding="UTF-8" standalone="no"?>
<!-- Created with Inkscape (http://www.inkscape.org/) -->

<svg
   xmlns:dc="http://purl.org/dc/elements/1.1/"
   xmlns:cc="http://creativecommons.org/ns#"
   xmlns:rdf="http://www.w3.org/1999/02/22-rdf-syntax-ns#"
   xmlns:svg="http://www.w3.org/2000/svg"
   xmlns="http://www.w3.org/2000/svg"
   xmlns:sodipodi="http://sodipodi.sourceforge.net/DTD/sodipodi-0.dtd"
   xmlns:inkscape="http://www.inkscape.org/namespaces/inkscape"
   version="1.1"
   id="svg3839"
   width="2560"
   height="2560"
   viewBox="0 0 2560 2560"
   sodipodi:docname="pivot_monitor_icon.svg"
   inkscape:version="0.92.5 (2060ec1f9f, 2020-04-08)">
  <metadata
     id="metadata3845">
    <rdf:RDF>
      <cc:Work
         rdf:about="">
        <dc:format>image/svg+xml</dc:format>
        <dc:type
           rdf:resource="http://purl.org/dc/dcmitype/StillImage" />
        <dc:title></dc:title>
      </cc:Work>
    </rdf:RDF>
  </metadata>
  <defs
     id="defs3843" />
  <sodipodi:namedview
     pagecolor="#ffffff"
     bordercolor="#666666"
     borderopacity="1"
     objecttolerance="10"
     gridtolerance="10"
     guidetolerance="10"
     inkscape:pageopacity="0"
     inkscape:pageshadow="2"
     inkscape:window-width="1920"
     inkscape:window-height="1012"
     id="namedview3841"
     showgrid="false"
     inkscape:zoom="0.3171875"
     inkscape:cx="1280"
     inkscape:cy="1280"
     inkscape:window-x="0"
     inkscape:window-y="32"
     inkscape:window-Removed="1"
     inkscape:current-layer="svg3839" />
  <g
     id="g3849"
     transform="translate(-12.61084,-104.03941)">
    <path
       style="fill:#a4d3ed;stroke-width:0.31999999"
       d="m 1050.24,2471.5419 c -2.689,-0.573 -4.6867,-1.4507 -7.3168,-3.2147 -1.1678,-0.7833 -11.1232,-5.7669 -22.1232,-11.0749 -11,-5.308 -20.216,-9.8347 -20.48,-10.0593 -0.264,-0.2246 -27.984,-13.7982 -61.6,-30.1634 -33.616,-16.3652 -70.336,-34.243 -81.6,-39.7284 -11.264,-5.4854 -20.6168,-10.1102 -20.784,-10.2773 -0.192,-0.1919 -0.16253,-0.4454 0.08,-0.6879 0.63699,-0.637 0.45168,-1.1184 -1.10522,-2.8714 -4.55424,-5.1279 -8.64131,-14.1639 -11.28688,-24.9539 -1.68745,-6.8825 -2.99494,-15.6075 -3.92483,-26.1907 -0.51837,-5.8997 -0.78163,-1001.1774 -0.26909,-1017.28 0.36733,-11.5396 0.61767,-15.3638 1.62356,-24.8 5.56038,-52.1618 23.38425,-103.5718 44.20217,-127.4938 2.18272,-2.5082 15.37962,-12.4404 191.46429,-144.0998 104.016,-77.77325 189.2179,-141.64902 189.3375,-141.94614 0.1197,-0.29716 0.2277,-94.86602 0.24,-210.15303 0.02,-186.97283 0.075,-209.81558 0.5116,-211.49049 1.3365,-5.13124 5.3654,-10.03236 10.3909,-12.64052 4.4356,-2.30198 7.3076,-5.48342 8.7537,-9.69683 l 0.6863,-1.99939 0.16,-128.8 0.16,-128.8 0.8397,-2.29637 c 2.2761,-6.22447 7.5798,-11.08911 13.8786,-12.72974 2.4149,-0.62899 6.5194,-0.63315 8.9745,-0.009 6.7629,1.7191 12.3708,7.12895 14.7564,14.23519 0.5694,1.69636 0.5966,6.41111 0.7508,130.4 0.1506,121.05158 0.1928,128.73577 0.7157,130.26371 0.7419,2.1679 2.6967,5.12291 4.432,6.69955 0.7767,0.70576 2.7083,2.00176 4.2923,2.87997 5.5634,3.08445 8.9335,7.46553 10.5609,13.72934 l 0.7991,3.07543 v 178.43024 c 0,158.84147 0.053,178.40992 0.4822,178.24518 1.0128,-0.38864 177.0694,-132.24163 179.1782,-134.19085 2.6041,-2.40697 6.6697,-5.18307 9.2834,-6.33897 5.5159,-2.43943 10.5652,-2.32618 15.6962,0.352 2.0157,1.05212 22.7444,10.5174 122.0922,55.75059 21.5871,9.82864 30.9987,13.95968 32.8585,14.42253 3.1721,0.7895 3.7715,1.08937 13.7493,6.87884 13.2499,7.68804 23.5004,14.30845 31.46,20.31885 5.3686,4.05389 14.0451,11.52064 15.7787,13.57856 6.5521,7.77837 11.2221,20.66867 13.6457,37.66503 1.8269,12.81177 1.7304,7.08844 1.8354,108.8 0.053,51.48 -0.032,315.07202 -0.1901,585.76002 -0.2592,444.9618 -0.3353,492.6971 -0.7935,497.76 -2.6086,28.8282 -9.5068,50.0074 -22.7735,69.92 -4.6153,6.9272 -9.2949,12.5618 -15.9583,19.2148 -8.4525,8.4393 -15.9507,14.3356 -25.9444,20.4016 -12.4921,7.5825 -619.2067,358.0798 -623.04,359.9284 -4.8815,2.3541 -8.8225,3.8328 -12.8,4.8028 -3.387,0.826 -8.9662,1.0526 -11.68,0.4743 z M 1346.9434,1851.76 c -10.8668,-14.3139 -16.2339,-31.1065 -17.3403,-54.2548 -1.3931,-29.1449 6.2762,-66.0533 23.6188,-113.6652 11.026,-30.2709 24.5969,-61.1059 52.4612,-119.2 17.5291,-36.5462 43.5589,-88.8 44.2351,-88.8 0.5403,0 1.1412,0.4807 11.3618,9.0895 20.8467,17.559 28.7888,24.7134 42.8344,38.5859 13.6157,13.4479 28.6906,29.7448 35.0628,37.905 16.1812,20.7218 26.9839,46.9443 30.412,73.8226 1.949,15.2804 1.4423,31.72 -1.4466,46.9356 -2.6606,14.0132 -8.3199,33.5409 -13.7767,47.5374 -0.956,2.4521 -1.6859,4.5107 -1.622,4.5746 0.3734,0.3734 7.9613,-16.7709 11.5652,-26.1306 6.8658,-17.8316 13.4446,-41.6618 15.8133,-57.28 6.9113,-45.5696 -5.4459,-92.063 -34.0629,-128.16 -2.8693,-3.6193 -12.3589,-14.4448 -18.3734,-20.96 -6.8196,-7.3874 -24.8548,-25.2651 -32.3261,-32.044 -8.8183,-8.001 -28.2812,-24.9058 -39.1573,-34.0106 l -6.0373,-5.054 -2.7254,5.2343 c -5.9289,11.387 -32.6377,65.5386 -45.4328,92.1143 -27.629,57.3861 -44.2159,94.768 -55.9434,126.08 -24.8841,66.4398 -32.6972,112.9036 -25.2634,150.24 3.6933,18.5497 9.9283,31.5424 21.0032,43.7675 2.0394,2.2512 7.0941,6.9525 7.4752,6.9525 0.085,0 -0.9659,-1.476 -2.3354,-3.28 z m 45.0991,-20.32 c -8.9143,-8.8808 -13.027,-17.4437 -15.2539,-31.76 -0.7038,-4.5246 -0.9832,-17.4669 -0.4978,-23.0625 2.2216,-25.6134 11.9206,-57.2097 30.5913,-99.6575 7.6881,-17.4787 17.9664,-39.6836 29.9951,-64.8 11.5944,-24.2095 12.4585,-25.92 13.0946,-25.92 1.7321,0 27.6071,24.9601 39.3169,37.9267 7.1184,7.8825 13.7995,15.808 16.0478,19.0371 9.8878,14.2013 15.9455,30.0837 18.0624,47.3562 0.6517,5.3174 0.7337,16.8859 0.1567,22.08 -1.7381,15.6426 -7.8494,35.7786 -16.1621,53.2513 -1.1647,2.4482 -2.0596,4.5092 -1.9887,4.5801 0.1595,0.1595 6.13,-8.8494 8.7423,-13.1914 9.6358,-16.0159 17.45,-33.3186 22.9781,-50.88 2.1557,-6.8479 5.6025,-20.2804 6.5281,-25.44 4.3797,-24.4155 1.0848,-49.4727 -9.517,-72.3762 -2.8206,-6.0932 -8.1517,-14.9418 -12.4934,-20.7362 -5.8392,-7.7931 -19.3065,-22.367 -30.2829,-32.7714 -9.5154,-9.0195 -40.5623,-36.0804 -40.9348,-35.6793 -0.2394,0.2578 -11.4561,22.8325 -18.5049,37.2431 -37.4253,76.5116 -53.561,113.1057 -64.3413,145.92 -12.9906,39.5421 -15.9837,68.3404 -9.6758,93.0939 2.822,11.0742 6.6668,18.2943 13.6145,25.5666 6.5915,6.8995 15.9744,12.4082 24.8718,14.6023 0.038,0.01 -1.9179,-1.9628 -4.347,-4.3828 z m 65.4189,-21.92 c 2.878,-1.628 5.286,-3.104 5.3512,-3.28 0.1946,-0.5255 -5.3978,-101.5719 -5.6346,-101.8087 -0.1199,-0.1199 -0.218,0.2571 -0.218,0.8379 0,1.3267 -5.0332,102.1131 -5.2462,105.0508 -0.101,1.3938 -0.037,2.16 0.1792,2.16 0.1847,0 2.6905,-1.332 5.5684,-2.96 z"
       id="path3863"
       inkscape:connector-curvature="0" />
    <path
       style="fill:#cbcbcb;stroke-width:0.31999999"
       d="m 1050.6644,2471.2258 c -2.7975,-0.532 -5.2374,-1.618 -8.0457,-3.5812 -1.1677,-0.8162 -1.914,-1.2322 -1.6585,-0.9244 0.2858,0.3444 -0.5173,0.068 -2.0879,-0.7197 -1.4038,-0.7036 -10.5443,-5.1304 -20.3123,-9.8374 -9.768,-4.7069 -17.976,-8.7427 -18.24,-8.9683 -0.264,-0.2256 -27.984,-13.8 -61.6,-30.1652 -33.616,-16.3652 -70.336,-34.243 -81.6,-39.7284 -11.264,-5.4854 -20.6168,-10.1102 -20.784,-10.2773 -0.192,-0.1919 -0.16253,-0.4454 0.08,-0.6879 0.63699,-0.637 0.45168,-1.1184 -1.10522,-2.8714 -4.55424,-5.1279 -8.64131,-14.1639 -11.28688,-24.9539 -1.68745,-6.8825 -2.99494,-15.6075 -3.92483,-26.1907 -0.51837,-5.8997 -0.78163,-1001.1774 -0.26909,-1017.28 0.36733,-11.5396 0.61767,-15.3638 1.62356,-24.8 5.56038,-52.1618 23.38425,-103.5718 44.20217,-127.4938 2.18272,-2.5082 15.37962,-12.4404 191.46429,-144.0998 104.016,-77.77325 189.2179,-141.64902 189.3375,-141.94614 0.1197,-0.29716 0.2277,-94.86602 0.24,-210.15303 0.02,-186.97283 0.075,-209.81558 0.5116,-211.49049 1.3365,-5.13124 5.3654,-10.03236 10.3909,-12.64052 4.4356,-2.30198 7.3076,-5.48342 8.7537,-9.69683 l 0.6863,-1.99939 0.16,-128.8 0.16,-128.8 0.8397,-2.29637 c 2.2761,-6.22447 7.5798,-11.08911 13.8786,-12.72974 2.4149,-0.62899 6.5194,-0.63315 8.9745,-0.009 6.7629,1.7191 12.3708,7.12895 14.7564,14.23519 0.5694,1.69636 0.5966,6.41111 0.7508,130.4 0.1506,121.05158 0.1928,128.73577 0.7157,130.26371 0.7419,2.1679 2.6967,5.12291 4.432,6.69955 0.7767,0.70576 2.7083,2.00176 4.2923,2.87997 5.5634,3.08445 8.9335,7.46553 10.5609,13.72934 l 0.7991,3.07543 v 178.43024 c 0,158.84147 0.053,178.40992 0.4822,178.24518 1.0128,-0.38864 177.0694,-132.24163 179.1782,-134.19085 2.6041,-2.40697 6.6697,-5.18307 9.2834,-6.33897 5.5159,-2.43943 10.5652,-2.32618 15.6962,0.352 2.0157,1.05212 22.7444,10.5174 122.0922,55.75059 21.5871,9.82864 30.9987,13.95968 32.8585,14.42253 3.1721,0.7895 3.7715,1.08937 13.7493,6.87884 9.7871,5.67879 14.2962,8.47063 21.7,13.43568 8.9399,5.9952 19.5957,14.28647 19.1947,14.9354 -0.087,0.14012 0.5271,0.75792 1.3639,1.37286 11.483,8.43888 18.4105,29.41366 19.889,60.2185 0.3724,7.76038 0.089,1101.91832 -0.2957,1142.40002 -0.2867,30.1517 -0.3852,32.5277 -1.7721,42.72 -3.1695,23.2944 -10.9262,43.7108 -23.2526,61.2035 -9.7728,13.8688 -23.4688,26.6554 -38.4716,35.917 -1.9275,1.1899 -139.6635,80.8899 -306.08,177.1112 -166.4166,96.2213 -305.5276,176.6549 -309.1356,178.7413 -9.526,5.5087 -17.5849,8.957 -23.4342,10.0275 -3.2444,0.5937 -7.3099,0.6877 -9.7414,0.2253 z m 30.8489,-31.7391 c -0.1063,-0.1064 -0.3823,-0.1177 -0.6133,-0.025 -0.2553,0.1021 -0.1795,0.178 0.1933,0.1933 0.3374,0.014 0.5264,-0.062 0.42,-0.1681 z m 16.7675,-8.0467 c 0.398,-0.5076 0.3868,-0.5188 -0.1208,-0.1208 -0.533,0.418 -0.7026,0.6808 -0.4392,0.6808 0.066,0 0.3185,-0.252 0.56,-0.56 z m 4.48,-4.48 c 0.398,-0.5076 0.3868,-0.5188 -0.1208,-0.1208 -0.308,0.2415 -0.56,0.4935 -0.56,0.56 0,0.2634 0.2628,0.094 0.6808,-0.4392 z m -46.2289,-12.64 c -0.089,-0.22 -0.1614,-0.04 -0.1614,0.4 0,0.44 0.073,0.62 0.1614,0.4 0.089,-0.22 0.089,-0.58 0,-0.8 z m 0.01,-8.62 c -0.1022,-0.2553 -0.178,-0.1795 -0.1934,0.1933 -0.014,0.3374 0.062,0.5264 0.1681,0.42 0.1063,-0.1063 0.1177,-0.3823 0.025,-0.6133 z m 59.2,-9.28 c -0.1022,-0.2553 -0.178,-0.1795 -0.1934,0.1933 -0.014,0.3374 0.062,0.5264 0.1681,0.42 0.1063,-0.1063 0.1177,-0.3823 0.025,-0.6133 z m 0.3231,-5.2939 c -0.081,-0.3113 -0.1528,-0.1341 -0.1594,0.3939 -0.01,0.528 0.06,0.7828 0.1476,0.5661 0.088,-0.2167 0.093,-0.6487 0.012,-0.96 z m -0.3231,-4.9461 c -0.1022,-0.2553 -0.178,-0.1795 -0.1934,0.1933 -0.014,0.3374 0.062,0.5264 0.1681,0.42 0.1063,-0.1063 0.1177,-0.3823 0.025,-0.6133 z m -21.8926,-24.1499 c -0.2166,-0.088 -0.6486,-0.093 -0.96,-0.012 -0.3113,0.081 -0.134,0.1528 0.394,0.1594 0.528,0.01 0.7827,-0.06 0.566,-0.1476 z M 1715.04,2058.56 c 0.3186,-0.352 0.5072,-0.64 0.4192,-0.64 -0.088,0 -0.4206,0.288 -0.7392,0.64 -0.3186,0.352 -0.5072,0.64 -0.4192,0.64 0.088,0 0.4206,-0.288 0.7392,-0.64 z m 3.84,-3.84 c 0.3186,-0.352 0.5072,-0.64 0.4192,-0.64 -0.088,0 -0.4206,0.288 -0.7392,0.64 -0.3186,0.352 -0.5072,0.64 -0.4192,0.64 0.088,0 0.4206,-0.288 0.7392,-0.64 z m -46.0137,-15.4363 c -0.076,-0.398 -0.142,-0.1477 -0.1456,0.5563 0,0.704 0.059,1.0297 0.1392,0.7237 0.08,-0.3059 0.083,-0.8819 0.01,-1.28 z m 0,-4.16 c -0.076,-0.398 -0.142,-0.1477 -0.1456,0.5563 0,0.704 0.059,1.0297 0.1392,0.7237 0.08,-0.3059 0.083,-0.8819 0.01,-1.28 z m 0.3123,-3.8237 c -0.1022,-0.2553 -0.178,-0.1795 -0.1934,0.1933 -0.014,0.3374 0.062,0.5264 0.1681,0.42 0.1064,-0.1063 0.1177,-0.3823 0.025,-0.6133 z m 59.2032,-9.7739 c -0.081,-0.3113 -0.1529,-0.1341 -0.1594,0.3939 -0.01,0.528 0.06,0.7828 0.1475,0.5661 0.088,-0.2167 0.093,-0.6487 0.012,-0.96 z m 0,-6.08 c -0.081,-0.3113 -0.1529,-0.1341 -0.1594,0.3939 -0.01,0.528 0.06,0.7828 0.1475,0.5661 0.088,-0.2167 0.093,-0.6487 0.012,-0.96 z m -43.8817,-15.8461 0.9399,-1.04 -1.04,0.9399 c -0.572,0.5169 -1.04,0.9849 -1.04,1.04 0,0.2472 0.264,0.029 1.1401,-0.9399 z m 19.2532,-10.0333 c -0.1063,-0.1064 -0.3823,-0.1177 -0.6133,-0.025 -0.2553,0.1021 -0.1795,0.178 0.1933,0.1933 0.3374,0.014 0.5264,-0.062 0.42,-0.1681 z m -358.3676,-135.3815 c -10.634,-12.7816 -16.1913,-26.7728 -18.7261,-47.1452 -0.8227,-6.6125 -0.8213,-25.7098 0,-33.28 3.1795,-29.2176 11.2935,-59.4401 27.1052,-100.96 13.391,-35.1634 37.5392,-87.2747 81.0856,-174.9808 7.1421,-14.3849 10.9198,-21.6668 11.2054,-21.6 0.4752,0.1112 19.1325,15.7498 27.2198,22.8158 19.5373,17.0699 37.8374,35.3099 55.5504,55.3679 21.4936,24.3391 34.3737,54.893 37.1159,88.0458 0.502,6.0697 0.2195,22.8265 -0.4821,28.5913 -2.1705,17.834 -8.6564,41.613 -17.0122,62.3707 -1.6584,4.1199 -2.9552,7.5508 -2.8819,7.6242 0.2104,0.2103 2.2109,-3.5163 4.9527,-9.2259 9.5215,-19.828 16.3546,-38.9358 21.7886,-60.929 4.3797,-17.726 5.6631,-26.5717 5.9892,-41.28 0.4375,-19.7355 -2.2616,-37.5996 -8.5337,-56.48 -6.9518,-20.9266 -17.7372,-39.7044 -32.716,-56.96 -14.6866,-16.9189 -30.1476,-32.7868 -46.1693,-47.3846 -9.1603,-8.3461 -41.2744,-36.0483 -44.0448,-37.9939 -0.3278,-0.2302 -0.7516,-0.3224 -0.9418,-0.2048 -0.4032,0.2491 -26.8552,53.2101 -37.5512,75.1833 -34.4006,70.6701 -53.5653,113.3057 -66.7419,148.48 -16.6941,44.5641 -25.5586,79.935 -27.5477,109.92 -0.4709,7.0988 -0.2054,22.6256 0.4868,28.4731 3.0351,25.6366 10.7428,43.4226 25.0246,57.7459 3.196,3.2054 7.7501,7.0539 8.0234,6.7806 0.082,-0.082 -0.9086,-1.4205 -2.2014,-2.9744 z m 48.0023,-18.1932 c -0.055,-0.1716 -1.2893,-1.2922 -2.743,-2.4903 -6.2519,-5.1525 -11.5768,-12.9213 -14.4258,-21.0469 -1.1206,-3.196 -2.4044,-8.7254 -3.1661,-13.6371 -0.8649,-5.5763 -0.7643,-20.6725 0.1851,-27.7777 3.4486,-25.8102 12.7076,-54.746 30.2062,-94.4 12.5217,-28.3757 41.4546,-89.6613 42.5031,-90.0301 0.6257,-0.22 13.8702,11.9507 23.8024,21.8726 14.2068,14.1923 27.4573,29.195 32.6409,36.9575 9.4838,14.202 15.2367,30.422 16.8295,47.4495 0.5516,5.8968 0.2258,18.6894 -0.6147,24.1365 -2.4594,15.9387 -8.8599,35.3421 -17.0634,51.7283 -1.3971,2.7909 -2.4697,5.1448 -2.3835,5.2311 0.22,0.2199 2.6002,-3.0565 6.4403,-8.8654 14.6684,-22.1885 24.9385,-45.583 31.7122,-72.2378 3.6054,-14.1875 4.4485,-20.4914 4.4408,-33.2022 -0.01,-9.3668 -0.2713,-12.7562 -1.6047,-20.48 -3.7165,-21.528 -13.1286,-41.3894 -27.5598,-58.1565 -14.7635,-17.1533 -30.8539,-32.5066 -59.2801,-56.5644 -6.4762,-5.481 -6.5968,-5.5699 -7.1179,-5.2479 -0.5329,0.3294 -22.1495,44.2037 -35.0643,71.1688 -26.0872,54.4676 -38.9535,84.5604 -48.0231,112.32 -6.5487,20.0438 -10.2942,36.379 -12.1067,52.8 -0.6702,6.0718 -0.7653,20.9418 -0.1648,25.76 1.4284,11.4602 3.7196,20.0362 7.2668,27.2 2.676,5.4045 5.5505,9.3961 9.9051,13.7545 6.4363,6.4419 13.7136,10.7879 22.5575,13.4714 2.5001,0.7586 2.9955,0.8087 2.828,0.2861 z m 59.9136,-25.9429 c 2.9652,-1.689 5.5352,-3.2443 5.711,-3.4561 0.3056,-0.3682 -5.1688,-104.883 -5.5894,-106.7108 -0.096,-0.4167 -0.2517,-0.6803 -0.3464,-0.5857 -0.1243,0.1243 -5.8419,110.5551 -5.8725,113.4235 0,0.22 0.1555,0.4 0.3508,0.4 0.1954,0 2.7813,-1.3819 5.7465,-3.0709 z M 1084.16,1346.4496 c 0,-0.061 -0.324,-0.3847 -0.72,-0.72 l -0.72,-0.6096 0.6096,0.72 c 0.5729,0.6766 0.8304,0.8657 0.8304,0.6096 z m -7.7653,-22.0412 c -0.068,-0.7526 -0.1239,-0.2164 -0.125,1.1916 0,1.408 0.054,2.0238 0.1229,1.3684 0.069,-0.6553 0.07,-1.8073 0,-2.56 z m 62.3839,-15.6684 c -0.1022,-0.2553 -0.178,-0.1795 -0.1934,0.1933 -0.014,0.3374 0.062,0.5264 0.1681,0.42 0.1064,-0.1063 0.1177,-0.3823 0.025,-0.6133 z m 0.3133,-3.22 c -0.089,-0.22 -0.1614,-0.04 -0.1614,0.4 0,0.44 0.073,0.62 0.1614,0.4 0.089,-0.22 0.089,-0.58 0,-0.8 z m 0,-6.08 c -0.089,-0.22 -0.1614,-0.04 -0.1614,0.4 0,0.44 0.073,0.62 0.1614,0.4 0.089,-0.22 0.089,-0.58 0,-0.8 z M 1092.48,1288.8 c 0.956,-0.968 1.6661,-1.76 1.5781,-1.76 -0.088,0 -0.9421,0.792 -1.8981,1.76 -0.956,0.968 -1.6661,1.76 -1.5781,1.76 0.088,0 0.9421,-0.792 1.8981,-1.76 z m 40.32,-5.3801 c 0,-0.055 -0.468,-0.5231 -1.04,-1.04 l -1.04,-0.9399 0.9399,1.04 c 0.8761,0.9694 1.1401,1.1871 1.1401,0.9399 z m -12.2467,-6.4932 c -0.1063,-0.1064 -0.3823,-0.1177 -0.6133,-0.025 -0.2553,0.1021 -0.1795,0.178 0.1933,0.1933 0.3374,0.014 0.5264,-0.062 0.42,-0.1681 z M 1689.92,893.28 c -0.7773,-0.792 -1.4852,-1.44 -1.5732,-1.44 -0.088,0 0.4759,0.648 1.2532,1.44 0.7773,0.792 1.4852,1.44 1.5732,1.44 0.088,0 -0.4759,-0.648 -1.2532,-1.44 z m -8.1014,-18.78 c -0.1022,-0.25526 -0.178,-0.17946 -0.1934,0.19334 -0.014,0.33732 0.062,0.52634 0.1681,0.42 0.1064,-0.10633 0.1177,-0.38233 0.025,-0.61334 z m 0,-9.6 c -0.1022,-0.25526 -0.178,-0.17946 -0.1934,0.19334 -0.014,0.33732 0.062,0.52634 0.1681,0.42 0.1064,-0.10633 0.1177,-0.38233 0.025,-0.61334 z m 59.2,-9.28 c -0.1022,-0.25526 -0.178,-0.17946 -0.1934,0.19334 -0.014,0.33732 0.062,0.52634 0.1681,0.42 0.1064,-0.10633 0.1177,-0.38233 0.025,-0.61334 z m 0,-9.28 c -0.1022,-0.25526 -0.178,-0.17946 -0.1934,0.19334 -0.014,0.33732 0.062,0.52634 0.1681,0.42 0.1064,-0.10633 0.1177,-0.38233 0.025,-0.61334 z m -7.2586,-17.96013 c 0,-0.0551 -0.468,-0.52307 -1.04,-1.04 l -1.04,-0.93987 0.9399,1.04 c 0.8761,0.96944 1.1401,1.1871 1.1401,0.93987 z m 8.64,-66.48848 c -0.6892,-0.56371 -0.7028,-0.60681 -0.098,-0.31113 0.3862,0.18873 0.7907,0.4864 0.8989,0.66147 0.2888,0.46733 0.095,0.38249 -0.8011,-0.35034 z"
       id="path3861"
       inkscape:connector-curvature="0" />
    <path
       style="fill:#b8b8b8;stroke-width:0.31999999"
       d="m 1050.6644,2471.2258 c -2.747,-0.5224 -5.2253,-1.6116 -7.8936,-3.4691 -2.5498,-1.775 -3.8555,-2.4362 -24.1762,-12.2428 -9.397,-4.5349 -18.1161,-8.9277 -19.37575,-9.7619 -6.25975,-4.1453 -11.89655,-14.4153 -15.1881,-27.672 -1.75693,-7.076 -2.49286,-11.3761 -3.77881,-22.08 -0.50176,-4.1764 -0.54599,-39.1826 -0.65296,-516.64 -0.0831,-370.8725 -0.0173,-513.8814 0.23849,-518.4 2.32205,-41.0218 12.83018,-84.549 28.17533,-116.7091 5.4481,-11.4181 12.6459,-22.586 18.7573,-29.1038 0.8525,-0.9091 24.6619,-18.9901 52.9099,-40.18 77.5774,-58.1939 234.9144,-176.26777 281.12,-210.96716 22.528,-16.91805 88.336,-66.31079 146.24,-109.76164 153.5756,-115.24227 156.5783,-117.50252 159.2,-119.83331 5.7584,-5.11939 9.8432,-7.38262 15.0184,-8.32109 1.5669,-0.28412 2.3035,-0.23376 4.6784,0.32004 1.5503,0.36147 3.4204,0.92336 4.1557,1.2486 1.5086,0.66733 14.6087,8.17799 20.2672,11.61975 13.3512,8.12083 27.7794,18.69088 35.5007,26.00771 9.6408,9.13562 15.637,29.46771 16.9872,57.6 0.3724,7.76038 0.089,1101.9183 -0.2957,1142.4 -0.2867,30.1517 -0.3852,32.5277 -1.7721,42.72 -3.1695,23.2944 -10.9262,43.7108 -23.2526,61.2036 -9.7728,13.8687 -23.4688,26.6553 -38.4716,35.9169 -1.9275,1.1899 -139.6635,80.8899 -306.08,177.1112 -166.4166,96.2213 -305.5276,176.6549 -309.1356,178.7413 -9.526,5.5087 -17.5849,8.957 -23.4342,10.0275 -3.2444,0.5937 -7.3099,0.6877 -9.7414,0.2253 z M 1082,2439.207 c 0.308,-0.1295 0.776,-0.1526 1.04,-0.051 0.264,0.1013 0.48,0.028 0.48,-0.1631 0,-0.191 0.288,-0.2719 0.64,-0.1799 0.352,0.092 0.64,0.02 0.64,-0.16 0,-0.18 0.288,-0.252 0.64,-0.16 0.352,0.092 0.64,0.025 0.64,-0.1493 0,-0.1742 0.1787,-0.2572 0.3972,-0.1844 0.2184,0.073 0.5969,-0.067 0.8412,-0.3117 0.2443,-0.2443 0.6416,-0.3684 0.8828,-0.2757 0.2414,0.093 0.4388,0.051 0.4388,-0.093 0,-0.2987 2.5793,-1.52 2.9535,-1.3986 0.1356,0.044 0.2465,-0.088 0.2465,-0.2933 0,-0.2054 0.084,-0.2894 0.1867,-0.1867 0.1026,0.1027 0.4679,-0.095 0.8116,-0.4383 0.3438,-0.3438 0.7861,-0.5255 0.9828,-0.4039 0.1968,0.1216 0.2729,0.084 0.169,-0.084 -0.1038,-0.168 0.105,-0.4889 0.4641,-0.7131 0.536,-0.3348 0.6119,-0.3319 0.4242,0.016 -0.1258,0.233 0.1576,-0.01 0.6296,-0.5364 0.4721,-0.528 0.7569,-0.744 0.633,-0.48 -0.124,0.264 0.2355,-0.024 0.7987,-0.64 0.5633,-0.616 0.9263,-0.904 0.8067,-0.64 -0.1196,0.264 0.3806,-0.1979 1.1116,-1.0266 0.7308,-0.8286 2.0068,-2.1045 2.8354,-2.8354 0.8286,-0.7309 1.2906,-1.2287 1.0266,-1.1062 -0.264,0.1225 -0.01,-0.2216 0.5651,-0.7645 0.5747,-0.543 0.9347,-0.9921 0.8,-0.9979 -0.1348,-0.01 0.085,-0.2861 0.4889,-0.6227 0.4038,-0.3366 0.7461,-0.7278 0.7608,-0.8693 0.066,-0.6338 0.3567,-1.0386 0.6267,-0.8717 0.1619,0.1 0.2737,0.063 0.2485,-0.082 -0.1184,-0.6817 0.064,-1.0805 0.3994,-0.8732 0.2246,0.1388 0.2828,0.088 0.1484,-0.1294 -0.1216,-0.1968 0.036,-0.6271 0.3505,-0.9562 0.3145,-0.3291 0.6156,-0.8023 0.6693,-1.0516 0.054,-0.2494 0.3034,-0.6116 0.555,-0.805 0.2516,-0.1934 0.3637,-0.4454 0.2491,-0.56 -0.1146,-0.1146 -0.04,-0.2084 0.165,-0.2084 0.2053,0 0.3373,-0.1155 0.2933,-0.2567 -0.1243,-0.3988 1.4341,-3.5833 1.7536,-3.5833 0.1563,0 0.1952,-0.144 0.086,-0.32 -0.1088,-0.176 -0.037,-0.32 0.16,-0.32 0.1968,0 0.2688,-0.144 0.16,-0.32 -0.1088,-0.176 -0.05,-0.32 0.1311,-0.32 0.1808,0 0.2459,-0.216 0.1446,-0.48 -0.1013,-0.264 -0.016,-0.48 0.1889,-0.48 0.2053,0 0.2842,-0.144 0.1754,-0.32 -0.1088,-0.176 -0.05,-0.32 0.1311,-0.32 0.1808,0 0.2459,-0.216 0.1446,-0.48 -0.1013,-0.264 -0.029,-0.48 0.16,-0.48 0.1893,0 0.2613,-0.216 0.16,-0.48 -0.1013,-0.264 -0.061,-0.4801 0.09,-0.4802 0.1508,-10e-5 0.2969,-0.3917 0.3247,-0.8702 0.028,-0.4784 0.1997,-0.9196 0.382,-0.9804 0.1824,-0.061 0.2522,-0.3172 0.1553,-0.5698 -0.097,-0.2527 -0.022,-0.4594 0.1679,-0.4594 0.1893,0 0.2613,-0.216 0.16,-0.48 -0.1013,-0.264 -0.015,-0.48 0.1916,-0.48 0.2302,0 0.2971,-0.248 0.1727,-0.64 -0.1117,-0.352 -0.063,-0.64 0.1085,-0.64 0.1714,0 0.2363,-0.288 0.1442,-0.64 -0.095,-0.3625 -0.01,-0.64 0.1961,-0.64 0.2278,0 0.2885,-0.2984 0.1626,-0.8 -0.1252,-0.499 -0.065,-0.8 0.16,-0.8 0.2207,0 0.2862,-0.2971 0.1688,-0.7651 -0.1056,-0.4208 -0.036,-0.8616 0.155,-0.9796 0.1909,-0.118 0.2611,-0.5575 0.1558,-0.9767 -0.1052,-0.4192 -0.078,-0.9461 0.061,-1.1708 0.5781,-0.9354 0.5998,-11.4678 0.024,-11.4678 -0.1452,0 -0.2326,-0.396 -0.1941,-0.88 0.038,-0.484 -0.04,-1.1382 -0.1754,-1.4538 -0.135,-0.3155 -0.1569,-0.6623 -0.049,-0.7705 0.1082,-0.1082 0.038,-0.3882 -0.1563,-0.6222 -0.1941,-0.2339 -0.2694,-0.6432 -0.1672,-0.9094 0.1021,-0.2662 0.031,-0.4841 -0.1585,-0.4841 -0.1893,0 -0.2613,-0.216 -0.16,-0.48 0.1014,-0.264 0.063,-0.48 -0.086,-0.48 -0.2347,0 -0.7232,-1.4603 -0.8028,-2.4 -0.015,-0.176 -0.2155,-0.5185 -0.4456,-0.7612 -0.2301,-0.2427 -0.3426,-0.6387 -0.25,-0.88 0.093,-0.2413 0.021,-0.4388 -0.1605,-0.4388 -0.1809,0 -0.2398,-0.144 -0.1311,-0.32 0.1088,-0.176 0.037,-0.32 -0.16,-0.32 -0.1967,0 -0.2687,-0.144 -0.16,-0.32 0.1088,-0.176 0.021,-0.32 -0.1944,-0.32 -0.2157,0 -0.3082,-0.084 -0.2056,-0.1866 0.1027,-0.1027 -0.095,-0.468 -0.4383,-0.8117 -0.3438,-0.3437 -0.5393,-0.7637 -0.4345,-0.9333 0.1049,-0.1696 0.055,-0.3084 -0.1103,-0.3084 -0.1655,0 -0.7041,-0.5286 -1.1969,-1.1747 -0.4929,-0.6462 -0.69,-1.0635 -0.438,-0.9275 0.2519,0.136 0,-0.1332 -0.5689,-0.5982 -0.5649,-0.4651 -1.4075,-1.3077 -1.8726,-1.8726 -0.465,-0.5648 -0.7473,-0.811 -0.6272,-0.547 0.1201,0.264 -0.1263,0.12 -0.5476,-0.32 -0.4213,-0.44 -0.9729,-0.8439 -1.2258,-0.8976 -0.253,-0.054 -0.6181,-0.3034 -0.8115,-0.555 -0.1934,-0.2516 -0.4454,-0.3637 -0.56,-0.2491 -0.1146,0.1146 -0.2084,0.032 -0.2084,-0.1838 0,-0.2157 -0.144,-0.3032 -0.32,-0.1945 -0.176,0.1088 -0.32,0.037 -0.32,-0.16 0,-0.1967 -0.144,-0.2687 -0.32,-0.16 -0.176,0.1088 -0.32,0.05 -0.32,-0.131 0,-0.1809 -0.216,-0.246 -0.48,-0.1447 -0.264,0.1013 -0.48,0.016 -0.48,-0.1889 0,-0.2052 -0.134,-0.2903 -0.2979,-0.189 -0.1638,0.1012 -0.3844,0.044 -0.4902,-0.1272 -0.1058,-0.1712 -0.4037,-0.2301 -0.6621,-0.1309 -0.2584,0.099 -0.4698,0.012 -0.4698,-0.1929 0,-0.2052 -0.1509,-0.2799 -0.3353,-0.1659 -0.1844,0.114 -0.5804,0.1071 -0.88,-0.015 -1.4754,-0.6025 -7.0489,-0.6275 -8,-0.036 -0.2284,0.1422 -0.6244,0.1782 -0.88,0.08 -0.2556,-0.098 -0.4647,-0.022 -0.4647,0.169 0,0.191 -0.288,0.2719 -0.64,0.1799 -0.352,-0.092 -0.64,-0.021 -0.64,0.1569 0,0.1784 -0.216,0.2414 -0.48,0.1401 -0.264,-0.1013 -0.48,-0.033 -0.48,0.1524 0,0.1852 -0.1787,0.2771 -0.3971,0.2043 -0.2185,-0.073 -0.597,0.067 -0.8413,0.3117 -0.2442,0.2443 -0.6415,0.3684 -0.8828,0.2758 -0.2413,-0.093 -0.4388,-0.02 -0.4388,0.1604 0,0.1809 -0.144,0.2399 -0.32,0.1311 -0.176,-0.1088 -0.32,-0.037 -0.32,0.16 0,0.1968 -0.144,0.2688 -0.32,0.16 -0.176,-0.1088 -0.32,-0.037 -0.32,0.16 0,0.1968 -0.144,0.2688 -0.32,0.16 -0.176,-0.1088 -0.32,-0.037 -0.32,0.16 0,0.1968 -0.144,0.2688 -0.32,0.16 -0.176,-0.1088 -0.32,-0.021 -0.32,0.1944 0,0.2158 -0.084,0.3083 -0.1866,0.2056 -0.1027,-0.1027 -0.468,0.095 -0.8117,0.4383 -0.3438,0.3438 -0.786,0.5255 -0.9828,0.4039 -0.1968,-0.1216 -0.2728,-0.084 -0.169,0.084 0.1038,0.168 -0.105,0.4889 -0.464,0.7131 -0.536,0.3347 -0.6132,0.3318 -0.4316,-0.016 0.1217,-0.233 -0.076,-0.064 -0.4394,0.3764 -0.3634,0.44 -0.6638,0.6839 -0.6678,0.5421 0,-0.1418 -0.3787,0.1462 -0.8329,0.64 -0.4542,0.4938 -0.7168,0.6819 -0.5836,0.4179 0.1332,-0.264 -0.4331,0.2633 -1.2586,1.1719 -0.8254,0.9086 -2.3268,2.4117 -3.3364,3.3402 -1.0096,0.9286 -1.6196,1.5794 -1.3556,1.4462 0.264,-0.1332 -0.024,0.2187 -0.64,0.782 -0.616,0.5632 -0.9139,0.9084 -0.6619,0.7671 0.2519,-0.1413 0.055,0.2717 -0.438,0.9178 -0.4928,0.6461 -1.0314,1.1748 -1.1969,1.1748 -0.1655,0 -0.2113,0.145 -0.1018,0.3222 0.1096,0.1773 -0.025,0.4084 -0.2993,0.5135 -0.2741,0.1053 -0.4181,0.3213 -0.32,0.48 0.098,0.1589 -0.046,0.3749 -0.32,0.48 -0.2741,0.1053 -0.422,0.315 -0.3286,0.4661 0.093,0.1512 -0.1114,0.5561 -0.4551,0.8998 -0.3438,0.3438 -0.541,0.709 -0.4384,0.8117 0.1027,0.1027 -0.01,0.1867 -0.24,0.1867 -0.2346,0 -0.3373,0.089 -0.2281,0.1985 0.2304,0.2304 -1.6338,4.069 -2.0539,4.2288 -0.1551,0.059 -0.2006,0.239 -0.1011,0.4 0.1,0.161 0.02,0.2927 -0.1769,0.2927 -0.1967,0 -0.2687,0.144 -0.16,0.32 0.1088,0.176 0.05,0.32 -0.131,0.32 -0.1809,0 -0.246,0.216 -0.1447,0.48 0.1013,0.264 0.016,0.48 -0.1889,0.48 -0.2052,0 -0.2841,0.144 -0.1754,0.32 0.1088,0.176 0.05,0.32 -0.131,0.32 -0.1809,0 -0.246,0.216 -0.1447,0.48 0.1013,0.264 0.03,0.48 -0.16,0.48 -0.1893,0 -0.2613,0.216 -0.16,0.48 0.1013,0.264 0.029,0.48 -0.16,0.48 -0.1893,0 -0.2613,0.216 -0.16,0.48 0.1013,0.264 0.03,0.48 -0.16,0.48 -0.1893,0 -0.2613,0.216 -0.16,0.48 0.1013,0.264 0.03,0.48 -0.16,0.48 -0.1893,0 -0.2613,0.216 -0.16,0.48 0.1013,0.264 0.029,0.48 -0.16,0.48 -0.1893,0 -0.2669,0.2014 -0.1724,0.4476 0.094,0.2462 0.024,0.5388 -0.1561,0.6503 -0.1803,0.1114 -0.2523,0.3994 -0.16,0.64 0.092,0.2405 0.027,0.5241 -0.1439,0.63 -0.1715,0.106 -0.2365,0.4806 -0.1445,0.8324 0.097,0.3717 0.01,0.6397 -0.2089,0.6397 -0.207,0 -0.283,0.1509 -0.169,0.3353 0.114,0.1844 0.1011,0.5804 -0.029,0.88 -0.1298,0.2996 -0.206,0.8549 -0.1694,1.2341 0.036,0.3792 -0.087,0.784 -0.2736,0.8996 -0.1871,0.1156 -0.2521,0.5611 -0.1444,0.9899 0.1076,0.4288 0.097,1.032 -0.024,1.3404 -0.3298,0.84 -0.373,10.321 -0.047,10.3208 0.155,-1e-4 0.2001,0.5039 0.1001,1.1199 -0.1106,0.6817 -0.051,1.12 0.1528,1.12 0.1971,0 0.2521,0.3287 0.1338,0.8 -0.1259,0.5016 -0.065,0.8 0.1627,0.8 0.2058,0 0.2908,0.2774 0.1961,0.6397 -0.092,0.3518 -0.027,0.7264 0.1445,0.8323 0.1715,0.106 0.2345,0.3941 0.14,0.6404 -0.094,0.2461 -0.017,0.4476 0.1724,0.4476 0.1893,0 0.2613,0.216 0.16,0.48 -0.1013,0.264 -0.029,0.48 0.16,0.48 0.1893,0 0.2613,0.216 0.16,0.48 -0.1013,0.264 -0.033,0.48 0.1524,0.48 0.1852,0 0.2771,0.1787 0.2043,0.3971 -0.073,0.2185 0.067,0.597 0.3117,0.8413 0.2443,0.2442 0.3684,0.6415 0.2758,0.8828 -0.093,0.2413 -0.021,0.4388 0.1605,0.4388 0.1808,0 0.2398,0.144 0.131,0.32 -0.1087,0.176 -0.037,0.32 0.16,0.32 0.1968,0 0.2688,0.144 0.16,0.32 -0.1087,0.176 -0.021,0.32 0.1945,0.32 0.2157,0 0.3082,0.084 0.2055,0.1866 -0.1026,0.1027 0.095,0.468 0.4384,0.8117 0.3437,0.3438 0.5485,0.7487 0.4551,0.8998 -0.093,0.1512 0.066,0.3653 0.3542,0.4759 0.2881,0.1105 0.4374,0.2875 0.3318,0.3932 -0.1058,0.1057 0.1256,0.4733 0.5141,0.8169 0.3885,0.3436 0.4904,0.5207 0.2264,0.3937 -0.264,-0.1269 0.1278,0.3017 0.8707,0.9526 0.7429,0.6509 1.8049,1.7159 2.3601,2.3665 0.5552,0.6507 0.9085,0.9671 0.785,0.7031 -0.1235,-0.264 0.043,-0.192 0.371,0.16 0.3276,0.352 0.8065,0.6839 1.0644,0.7376 0.2579,0.054 0.6271,0.3034 0.8205,0.555 0.1934,0.2516 0.4454,0.3637 0.56,0.2491 0.1146,-0.1146 0.2083,-0.032 0.2083,0.1838 0,0.2158 0.144,0.3032 0.32,0.1945 0.176,-0.1088 0.32,-0.05 0.32,0.131 0,0.1809 0.1975,0.2531 0.4388,0.1605 0.2413,-0.093 0.6386,0.031 0.8828,0.2758 0.2443,0.2443 0.6228,0.3845 0.8413,0.3117 0.2184,-0.073 0.3971,0.01 0.3971,0.1843 0,0.1742 0.288,0.2414 0.64,0.1494 0.3626,-0.095 0.64,-0.01 0.64,0.196 0,0.2235 0.2947,0.2895 0.7651,0.1714 0.4208,-0.1056 0.8392,-0.072 0.9297,0.074 0.1998,0.3227 5.2795,0.2833 6.0652,-0.047 z m 617.136,-372.7674 c 0.228,-0.141 0.6191,-0.1778 0.8691,-0.082 0.2499,0.096 0.5456,0.027 0.657,-0.1535 0.1115,-0.1803 0.3948,-0.2541 0.6296,-0.164 0.2348,0.09 0.4723,0.029 0.5276,-0.1354 0.055,-0.1646 0.4967,-0.3319 0.9807,-0.3718 0.484,-0.04 0.88,-0.1972 0.88,-0.3494 0,-0.1523 0.1787,-0.2174 0.3972,-0.1446 0.2184,0.073 0.5969,-0.067 0.8412,-0.3117 0.2443,-0.2443 0.6416,-0.3684 0.8828,-0.2757 0.2414,0.093 0.4388,0.02 0.4388,-0.1605 0,-0.1809 0.144,-0.2399 0.32,-0.1311 0.176,0.1088 0.32,0.021 0.32,-0.1944 0,-0.2158 0.094,-0.2985 0.2084,-0.1839 0.1145,0.1146 0.3665,0 0.56,-0.2491 0.1934,-0.2516 0.5556,-0.5013 0.8049,-0.555 0.2494,-0.054 0.7226,-0.3548 1.0517,-0.6693 0.3291,-0.3144 0.7371,-0.4859 0.9067,-0.3811 0.1695,0.1048 0.3083,0.055 0.3083,-0.1103 0,-0.1655 0.5286,-0.7042 1.1748,-1.197 0.6461,-0.4928 1.0563,-0.6899 0.9116,-0.4379 -0.1447,0.2519 0.2788,-0.118 0.941,-0.822 0.6622,-0.704 1.0257,-0.992 0.8078,-0.64 -0.2179,0.352 0.1751,0.01 0.8734,-0.7709 0.6983,-0.7759 1.9046,-1.9822 2.6805,-2.6805 0.776,-0.6983 1.1229,-1.0879 0.7709,-0.8658 -0.352,0.2221 -0.1021,-0.1197 0.5553,-0.7595 0.6574,-0.6398 1.0894,-1.1681 0.96,-1.174 -0.1294,-0.01 0.1047,-0.2938 0.5202,-0.64 0.4154,-0.3461 0.6314,-0.6341 0.48,-0.64 -0.1515,-0.01 0.042,-0.2759 0.4309,-0.6002 0.3885,-0.3243 0.6199,-0.6761 0.5142,-0.7818 -0.1057,-0.1058 0.044,-0.2827 0.3318,-0.3933 0.2881,-0.1106 0.4436,-0.331 0.3455,-0.4898 -0.098,-0.1588 0.046,-0.3748 0.32,-0.48 0.2741,-0.1052 0.422,-0.3149 0.3286,-0.4661 -0.093,-0.1511 0.1234,-0.568 0.4818,-0.9264 0.3585,-0.3585 0.576,-0.6517 0.4835,-0.6517 -0.093,0 0.055,-0.432 0.3282,-0.96 0.273,-0.528 0.6452,-0.96 0.8271,-0.96 0.1819,0 0.2417,-0.144 0.1329,-0.32 -0.1088,-0.176 -0.037,-0.32 0.16,-0.32 0.1968,0 0.2688,-0.144 0.16,-0.32 -0.1088,-0.176 -0.037,-0.32 0.16,-0.32 0.1968,0 0.2688,-0.144 0.16,-0.32 -0.1088,-0.176 -0.037,-0.32 0.16,-0.32 0.1968,0 0.2688,-0.144 0.16,-0.32 -0.1088,-0.176 -0.05,-0.32 0.1311,-0.32 0.1808,0 0.2531,-0.1974 0.1605,-0.4388 -0.093,-0.2412 0.049,-0.6561 0.3148,-0.9218 0.2657,-0.2658 0.394,-0.5724 0.285,-0.6813 -0.1089,-0.1089 -0.035,-0.1981 0.1652,-0.1981 0.1998,0 0.2876,-0.1974 0.195,-0.4388 -0.093,-0.2412 0.031,-0.6385 0.2757,-0.8828 0.2443,-0.2443 0.3846,-0.6228 0.3117,-0.8412 -0.073,-0.2185 0.019,-0.3972 0.2043,-0.3972 0.1851,0 0.2537,-0.216 0.1524,-0.48 -0.1013,-0.264 -0.029,-0.48 0.16,-0.48 0.1893,0 0.2613,-0.216 0.16,-0.48 -0.1013,-0.264 -0.029,-0.48 0.16,-0.48 0.1893,0 0.2613,-0.216 0.16,-0.48 -0.1013,-0.264 -0.029,-0.48 0.16,-0.48 0.1893,0 0.2613,-0.216 0.16,-0.48 -0.1013,-0.264 -0.038,-0.48 0.1401,-0.48 0.1783,0 0.249,-0.288 0.1569,-0.64 -0.092,-0.352 -0.02,-0.64 0.16,-0.64 0.1801,0 0.2521,-0.288 0.16,-0.64 -0.092,-0.352 -0.02,-0.64 0.16,-0.64 0.1801,0 0.2521,-0.288 0.16,-0.64 -0.095,-0.3626 -0.01,-0.64 0.1961,-0.64 0.2234,0 0.2894,-0.2947 0.1714,-0.7651 -0.1056,-0.4208 -0.056,-0.8494 0.111,-0.9523 0.1666,-0.103 0.2367,-0.5339 0.1557,-0.9574 -0.081,-0.4236 0.01,-0.8647 0.1925,-0.9801 0.1897,-0.1172 0.2569,-0.6239 0.1521,-1.1476 -0.1031,-0.5158 -0.078,-1.1942 0.056,-1.5076 0.3508,-0.8195 0.3837,-7.8535 0.039,-8.3326 -0.1594,-0.2215 -0.2082,-0.9055 -0.1084,-1.52 0.1117,-0.6889 0.051,-1.1173 -0.1586,-1.1173 -0.207,0 -0.2648,-0.3754 -0.1479,-0.96 0.1195,-0.5976 0.06,-0.96 -0.1573,-0.96 -0.1921,0 -0.274,-0.288 -0.182,-0.64 0.092,-0.352 0.02,-0.64 -0.16,-0.64 -0.18,0 -0.252,-0.288 -0.16,-0.64 0.092,-0.352 0.021,-0.64 -0.1569,-0.64 -0.1784,0 -0.245,-0.2067 -0.148,-0.4593 0.097,-0.2527 0.042,-0.5047 -0.123,-0.56 -0.1646,-0.055 -0.3319,-0.4967 -0.3718,-0.9807 -0.04,-0.484 -0.2006,-0.88 -0.357,-0.88 -0.1565,0 -0.2016,-0.216 -0.1003,-0.48 0.1013,-0.264 0.036,-0.48 -0.1446,-0.48 -0.1809,0 -0.2399,-0.144 -0.1311,-0.32 0.1088,-0.176 0.067,-0.32 -0.092,-0.32 -0.284,0 -1.6423,-2.6892 -1.3687,-2.7096 0.076,-0.01 -0.249,-0.429 -0.7231,-0.9405 -0.4741,-0.5116 -0.7947,-0.9975 -0.7125,-1.0798 0.082,-0.082 -0.1683,-0.4306 -0.5568,-0.7742 -0.3885,-0.3436 -0.4904,-0.5271 -0.2264,-0.4078 0.264,0.1193 0.017,-0.164 -0.5482,-0.6296 -0.5656,-0.4655 -1.4836,-1.3802 -2.0402,-2.0325 -0.5565,-0.6523 -0.9114,-0.97 -0.7886,-0.706 0.1228,0.264 -0.1629,0.048 -0.635,-0.48 -0.472,-0.528 -0.7597,-0.744 -0.6394,-0.48 0.142,0.3115 0.059,0.2852 -0.2365,-0.075 -0.2505,-0.3053 -0.5458,-0.4647 -0.6562,-0.3542 -0.1105,0.1104 -0.2913,-0.035 -0.4019,-0.3232 -0.1106,-0.2881 -0.33,-0.4442 -0.4875,-0.3469 -0.1576,0.097 -0.2865,0.016 -0.2865,-0.1807 0,-0.1968 -0.144,-0.2688 -0.32,-0.16 -0.176,0.1088 -0.32,0.05 -0.32,-0.1311 0,-0.1808 -0.1974,-0.2531 -0.4388,-0.1605 -0.2412,0.093 -0.6385,-0.031 -0.8828,-0.2757 -0.2443,-0.2443 -0.6228,-0.3846 -0.8412,-0.3117 -0.2185,0.073 -0.3972,-0.01 -0.3972,-0.1844 0,-0.1742 -0.288,-0.2414 -0.64,-0.1493 -0.3739,0.098 -0.64,0.01 -0.64,-0.2116 0,-0.2326 -0.2458,-0.3008 -0.6372,-0.1766 -0.3504,0.1112 -0.7961,0.1039 -0.9905,-0.016 -0.4858,-0.3002 -5.8292,-0.3185 -6.3096,-0.022 -0.2136,0.1321 -0.6751,0.1491 -1.0255,0.038 -0.3914,-0.1242 -0.6372,-0.056 -0.6372,0.1766 0,0.2214 -0.2661,0.3093 -0.64,0.2116 -0.352,-0.092 -0.64,-0.022 -0.64,0.1569 0,0.1783 -0.216,0.2414 -0.48,0.1401 -0.264,-0.1013 -0.48,-0.03 -0.48,0.16 0,0.1893 -0.216,0.2613 -0.48,0.16 -0.264,-0.1013 -0.48,-0.033 -0.48,0.1524 0,0.1851 -0.1787,0.277 -0.3972,0.2042 -0.2184,-0.073 -0.5969,0.067 -0.8412,0.3118 -0.2443,0.2442 -0.6416,0.3683 -0.8828,0.2757 -0.2414,-0.093 -0.4388,-0.02 -0.4388,0.1605 0,0.1809 -0.144,0.2398 -0.32,0.1311 -0.176,-0.1088 -0.32,-0.037 -0.32,0.16 0,0.1967 -0.144,0.2687 -0.32,0.16 -0.176,-0.1088 -0.32,-0.021 -0.32,0.1944 0,0.2158 -0.084,0.3082 -0.1867,0.2056 -0.1026,-0.1027 -0.4679,0.095 -0.8116,0.4383 -0.3438,0.3438 -0.7638,0.5393 -0.9334,0.4345 -0.1695,-0.1049 -0.3083,-0.055 -0.3083,0.1115 0,0.1661 -0.3777,0.5496 -0.8394,0.8521 -0.5722,0.3749 -0.7671,0.4121 -0.6122,0.1168 0.1249,-0.2383 -0.07,-0.073 -0.4335,0.3668 -0.3634,0.44 -0.6639,0.6839 -0.6678,0.5421 0,-0.1418 -0.3787,0.1462 -0.8329,0.64 -0.4542,0.4938 -0.7213,0.6819 -0.5935,0.4179 0.1278,-0.264 -0.3097,0.1389 -0.9722,0.8953 -0.6625,0.7564 -1.2855,1.2944 -1.3843,1.1955 -0.2469,-0.2468 -1.9986,1.467 -1.8105,1.7713 0.083,0.1343 -0.4622,0.7811 -1.2114,1.4375 -0.7493,0.6564 -1.1463,1.0773 -0.8823,0.9353 0.5416,-0.2912 -0.674,1.2123 -1.9081,2.3602 -0.4466,0.4153 -0.5959,0.6563 -0.3319,0.5356 0.264,-0.1207 0.1621,0.062 -0.2264,0.4052 -0.3885,0.3435 -0.6199,0.7111 -0.5142,0.8168 0.1057,0.1057 -0.044,0.2827 -0.3318,0.3933 -0.2881,0.1106 -0.4475,0.3247 -0.3541,0.4758 0.093,0.1512 -0.087,0.5441 -0.4018,0.8732 -0.3145,0.3291 -0.6156,0.8023 -0.6693,1.0516 -0.054,0.2494 -0.3034,0.6116 -0.555,0.805 -0.2516,0.1934 -0.3637,0.4454 -0.2491,0.56 0.1146,0.1146 0.032,0.2084 -0.1839,0.2084 -0.2157,0 -0.3032,0.144 -0.1944,0.32 0.1088,0.176 0.037,0.32 -0.16,0.32 -0.1968,0 -0.2688,0.144 -0.16,0.32 0.1088,0.176 0.037,0.32 -0.16,0.32 -0.1968,0 -0.2688,0.144 -0.16,0.32 0.1088,0.176 0.037,0.32 -0.16,0.32 -0.1968,0 -0.2688,0.144 -0.16,0.32 0.1088,0.176 0.037,0.32 -0.16,0.32 -0.1968,0 -0.2688,0.144 -0.16,0.32 0.1088,0.176 0.037,0.32 -0.16,0.32 -0.1968,0 -0.2688,0.144 -0.16,0.32 0.1088,0.176 0.05,0.32 -0.1311,0.32 -0.1808,0 -0.2531,0.1974 -0.1605,0.4387 0.093,0.2413 -0.049,0.6562 -0.3148,0.9219 -0.2657,0.2658 -0.394,0.5723 -0.285,0.6813 0.1089,0.1089 0.035,0.1981 -0.1652,0.1981 -0.1998,0 -0.2804,0.216 -0.1791,0.48 0.1013,0.264 0.029,0.48 -0.16,0.48 -0.1893,0 -0.2613,0.216 -0.16,0.48 0.1013,0.264 0.025,0.48 -0.1701,0.48 -0.1948,0 -0.33,0.108 -0.3003,0.24 0.1166,0.5197 -0.4612,2.64 -0.7195,2.64 -0.1508,0 -0.1914,0.216 -0.09,0.48 0.1013,0.264 0.038,0.48 -0.1401,0.48 -0.1783,0 -0.249,0.288 -0.1569,0.64 0.092,0.352 0.02,0.64 -0.16,0.64 -0.1801,0 -0.2521,0.288 -0.16,0.64 0.092,0.352 0.02,0.64 -0.16,0.64 -0.1801,0 -0.2521,0.288 -0.16,0.64 0.095,0.3625 0.01,0.64 -0.1961,0.64 -0.2234,0 -0.2894,0.2947 -0.1714,0.7651 0.1056,0.4208 0.041,0.8584 -0.1434,0.9724 -0.1866,0.1153 -0.2513,0.6277 -0.1459,1.1549 0.1065,0.5324 0.053,0.9476 -0.1229,0.9476 -0.1718,0 -0.3256,0.684 -0.3419,1.52 -0.016,0.836 -0.093,3.032 -0.1716,4.88 -0.085,2.0216 -0.013,3.5204 0.1834,3.7627 0.1789,0.2215 0.2442,0.9028 0.145,1.5141 -0.099,0.6125 -0.034,1.2016 0.1445,1.3122 0.1787,0.1105 0.2384,0.5451 0.1328,0.9659 -0.1174,0.4679 -0.052,0.7651 0.1688,0.7651 0.225,0 0.2852,0.301 0.16,0.8 -0.1259,0.5016 -0.065,0.8 0.1626,0.8 0.2059,0 0.2909,0.2774 0.1961,0.64 -0.092,0.352 -0.021,0.64 0.1569,0.64 0.1784,0 0.2414,0.216 0.1401,0.48 -0.1013,0.264 -0.03,0.48 0.16,0.48 0.1893,0 0.2613,0.216 0.16,0.48 -0.1013,0.264 -0.03,0.48 0.16,0.48 0.1893,0 0.2613,0.216 0.16,0.48 -0.1013,0.264 -0.03,0.48 0.16,0.48 0.1893,0 0.2613,0.216 0.16,0.48 -0.1013,0.264 -0.036,0.48 0.1446,0.48 0.1809,0 0.2399,0.144 0.1311,0.32 -0.1088,0.176 -0.067,0.32 0.092,0.32 0.2793,0 1.3857,2.1476 1.36,2.64 -0.01,0.132 0.2807,0.5332 0.6392,0.8917 0.3584,0.3584 0.5521,0.8126 0.4305,1.0094 -0.1216,0.1968 -0.091,0.2784 0.068,0.1813 0.1592,-0.097 0.566,0.1924 0.9041,0.6432 0.3809,0.508 0.4417,0.7236 0.16,0.5669 -0.2501,-0.139 0.079,0.203 0.7325,0.7601 0.653,0.5571 1.6431,1.5472 2.2002,2.2001 0.557,0.653 0.9118,0.9713 0.7883,0.7073 -0.1234,-0.264 0.057,-0.1621 0.4002,0.2264 0.3436,0.3885 0.7111,0.6199 0.8168,0.5142 0.1058,-0.1057 0.2827,0.044 0.3933,0.3317 0.1106,0.2882 0.33,0.4443 0.4875,0.3469 0.1576,-0.097 0.2865,-0.016 0.2865,0.1808 0,0.1967 0.1324,0.2759 0.2942,0.1759 0.1618,-0.1 0.5047,0.029 0.7619,0.2859 0.2572,0.2572 0.5569,0.3786 0.6658,0.2696 0.1089,-0.109 0.1981,-0.022 0.1981,0.1941 0,0.2158 0.141,0.3051 0.3134,0.1986 0.1724,-0.1066 0.6404,-0.013 1.04,0.2082 0.3996,0.2211 0.9066,0.3654 1.1266,0.3208 0.22,-0.045 0.4,0.056 0.4,0.2229 0,0.1672 0.2717,0.233 0.6039,0.1462 0.3321,-0.087 0.6788,-0.037 0.7704,0.1114 0.2114,0.3421 6.9659,0.3294 7.5217,-0.014 z M 1688.32,1999.84 c 0.4133,-0.44 0.8236,-0.8 0.9116,-0.8 0.088,0 -0.1783,0.36 -0.5916,0.8 -0.4133,0.44 -0.8236,0.8 -0.9116,0.8 -0.088,0 0.1783,-0.36 0.5916,-0.8 z m -338.9343,-145.6548 c -10.634,-12.7816 -16.1913,-26.7728 -18.7261,-47.1452 -0.8227,-6.6125 -0.8213,-25.7098 0,-33.28 3.1795,-29.2176 11.2935,-59.4401 27.1052,-100.96 13.391,-35.1634 37.5392,-87.2747 81.0856,-174.9808 7.1421,-14.3849 10.9198,-21.6668 11.2054,-21.6 0.4752,0.1112 19.1325,15.7498 27.2198,22.8158 19.5373,17.0699 37.8374,35.3099 55.5504,55.3679 21.4936,24.3391 34.3737,54.893 37.1159,88.0458 0.502,6.0697 0.2195,22.8265 -0.4821,28.5913 -2.1705,17.834 -8.6564,41.613 -17.0122,62.3707 -1.6584,4.1199 -2.9552,7.5508 -2.8819,7.6242 0.2104,0.2103 2.2109,-3.5163 4.9527,-9.2259 9.5215,-19.828 16.3546,-38.9358 21.7886,-60.929 4.3797,-17.726 5.6631,-26.5717 5.9892,-41.28 0.4375,-19.7355 -2.2616,-37.5996 -8.5337,-56.48 -6.9518,-20.9266 -17.7372,-39.7044 -32.716,-56.96 -14.6866,-16.9189 -30.1476,-32.7868 -46.1693,-47.3846 -9.1603,-8.3461 -41.2744,-36.0483 -44.0448,-37.9939 -0.3278,-0.2302 -0.7516,-0.3224 -0.9418,-0.2048 -0.4032,0.2491 -26.8552,53.2101 -37.5512,75.1833 -34.4006,70.6701 -53.5653,113.3057 -66.7419,148.48 -16.6941,44.5641 -25.5586,79.935 -27.5477,109.92 -0.4709,7.0988 -0.2054,22.6256 0.4868,28.4731 3.0351,25.6366 10.7428,43.4226 25.0246,57.7459 3.196,3.2054 7.7501,7.0539 8.0234,6.7806 0.082,-0.082 -0.9086,-1.4205 -2.2014,-2.9744 z m 48.0023,-18.1932 c -0.055,-0.1716 -1.2893,-1.2922 -2.743,-2.4903 -6.2519,-5.1525 -11.5768,-12.9213 -14.4258,-21.0469 -1.1206,-3.196 -2.4044,-8.7254 -3.1661,-13.6371 -0.8649,-5.5763 -0.7643,-20.6725 0.1851,-27.7777 3.4486,-25.8102 12.7076,-54.746 30.2062,-94.4 12.5217,-28.3757 41.4546,-89.6613 42.5031,-90.0301 0.6257,-0.22 13.8702,11.9507 23.8024,21.8726 14.2068,14.1923 27.4573,29.195 32.6409,36.9575 9.4838,14.202 15.2367,30.422 16.8295,47.4495 0.5516,5.8968 0.2258,18.6894 -0.6147,24.1365 -2.4594,15.9387 -8.8599,35.3421 -17.0634,51.7283 -1.3971,2.7909 -2.4697,5.1448 -2.3835,5.2311 0.22,0.2199 2.6002,-3.0565 6.4403,-8.8654 14.6684,-22.1885 24.9385,-45.583 31.7122,-72.2378 3.6054,-14.1875 4.4485,-20.4914 4.4408,-33.2022 -0.01,-9.3668 -0.2713,-12.7562 -1.6047,-20.48 -3.7165,-21.528 -13.1286,-41.3894 -27.5598,-58.1565 -14.7635,-17.1533 -30.8539,-32.5066 -59.2801,-56.5644 -6.4762,-5.481 -6.5968,-5.5699 -7.1179,-5.2479 -0.5329,0.3294 -22.1495,44.2037 -35.0643,71.1688 -26.0872,54.4676 -38.9535,84.5604 -48.0231,112.32 -6.5487,20.0438 -10.2942,36.379 -12.1067,52.8 -0.6702,6.0718 -0.7653,20.9418 -0.1648,25.76 1.4284,11.4602 3.7196,20.0362 7.2668,27.2 2.676,5.4045 5.5505,9.3961 9.9051,13.7545 6.4363,6.4419 13.7136,10.7879 22.5575,13.4714 2.5001,0.7586 2.9955,0.8087 2.828,0.2861 z m 59.9136,-25.9429 c 2.9652,-1.689 5.5352,-3.2443 5.711,-3.4561 0.3056,-0.3682 -5.1688,-104.883 -5.5894,-106.7108 -0.096,-0.4167 -0.2517,-0.6803 -0.3464,-0.5857 -0.1243,0.1243 -5.8419,110.5551 -5.8725,113.4235 0,0.22 0.1555,0.4 0.3508,0.4 0.1954,0 2.7813,-1.3819 5.7465,-3.0709 z M 1102.0153,1351.24 c 0.2147,-0.1327 0.6771,-0.1503 1.0275,-0.039 0.3914,0.1242 0.6372,0.056 0.6372,-0.1766 0,-0.2214 0.2661,-0.3094 0.64,-0.2116 0.352,0.092 0.64,0.02 0.64,-0.16 0,-0.18 0.288,-0.252 0.64,-0.16 0.352,0.092 0.64,0.025 0.64,-0.1493 0,-0.1742 0.1787,-0.2572 0.3972,-0.1844 0.2184,0.073 0.5951,-0.066 0.8371,-0.3076 0.242,-0.242 0.602,-0.386 0.8,-0.32 0.198,0.066 0.5598,-0.08 0.8041,-0.3241 0.2443,-0.2443 0.6416,-0.3684 0.8828,-0.2757 0.2414,0.093 0.4388,0.02 0.4388,-0.1605 0,-0.1809 0.144,-0.2399 0.32,-0.1311 0.176,0.1088 0.32,0.037 0.32,-0.16 0,-0.1968 0.144,-0.2688 0.32,-0.16 0.176,0.1088 0.32,0.037 0.32,-0.16 0,-0.1968 0.144,-0.2688 0.32,-0.16 0.176,0.1088 0.32,0.021 0.32,-0.1944 0,-0.2158 0.084,-0.3083 0.1867,-0.2056 0.1026,0.1027 0.4679,-0.095 0.8116,-0.4383 0.3438,-0.3438 0.7487,-0.5486 0.8998,-0.4552 0.1512,0.093 0.3609,-0.054 0.4661,-0.3286 0.1052,-0.2742 0.3212,-0.4182 0.48,-0.32 0.1588,0.098 0.3748,-0.046 0.48,-0.32 0.1052,-0.2742 0.3212,-0.4182 0.48,-0.32 0.1588,0.098 0.3792,-0.057 0.4898,-0.3455 0.1106,-0.2882 0.2875,-0.4375 0.3933,-0.3318 0.1057,0.1057 0.4575,-0.1257 0.7818,-0.5142 0.3243,-0.3885 0.5944,-0.5961 0.6002,-0.4613 0.01,0.1347 0.455,-0.2253 0.9979,-0.8 0.543,-0.5748 0.8776,-0.8291 0.7436,-0.5651 -0.134,0.264 0.4368,-0.269 1.2684,-1.1844 0.8316,-0.9154 2.261,-2.3448 3.1764,-3.1764 0.9154,-0.8316 1.4484,-1.4047 1.1844,-1.2736 -0.264,0.1311 0.096,-0.2973 0.8,-0.9519 0.704,-0.6547 1.064,-1.0862 0.8,-0.9589 -0.264,0.1273 -0.048,-0.1547 0.48,-0.6268 0.528,-0.472 0.744,-0.7595 0.48,-0.6388 -0.264,0.1208 -0.1621,-0.061 0.2264,-0.4051 0.3885,-0.3436 0.6199,-0.7111 0.5142,-0.8168 -0.1057,-0.1058 0.044,-0.2827 0.3318,-0.3933 0.2881,-0.1106 0.4436,-0.331 0.3455,-0.4898 -0.098,-0.1588 0.046,-0.3748 0.32,-0.48 0.2741,-0.1052 0.4181,-0.3212 0.32,-0.48 -0.098,-0.1588 0.046,-0.3748 0.32,-0.48 0.2741,-0.1052 0.422,-0.3149 0.3286,-0.4661 -0.093,-0.1511 0.1114,-0.556 0.4552,-0.8998 0.3437,-0.3437 0.541,-0.709 0.4383,-0.8116 -0.1027,-0.1027 -0.01,-0.1867 0.2056,-0.1867 0.2157,0 0.3032,-0.144 0.1944,-0.32 -0.1088,-0.176 -0.045,-0.32 0.1411,-0.32 0.1864,0 0.3029,-0.1155 0.2589,-0.2567 -0.1243,-0.3989 1.4341,-3.5833 1.7536,-3.5833 0.1563,0 0.1952,-0.144 0.086,-0.32 -0.1088,-0.176 -0.05,-0.32 0.1311,-0.32 0.1808,0 0.2531,-0.1974 0.1605,-0.4388 -0.093,-0.2412 0.02,-0.6372 0.25,-0.88 0.2301,-0.2426 0.4676,-0.7292 0.5277,-1.0812 0.06,-0.352 0.232,-0.6853 0.382,-0.7407 0.15,-0.055 0.1934,-0.3073 0.097,-0.56 -0.097,-0.2526 -0.022,-0.4593 0.1679,-0.4593 0.1893,0 0.2613,-0.216 0.16,-0.48 -0.1013,-0.264 -0.029,-0.48 0.16,-0.48 0.1893,0 0.2613,-0.216 0.16,-0.48 -0.1013,-0.264 -0.029,-0.48 0.16,-0.48 0.1893,0 0.2669,-0.2014 0.1724,-0.4476 -0.094,-0.2462 -0.024,-0.5388 0.1561,-0.6503 0.1803,-0.1114 0.2467,-0.414 0.1476,-0.6723 -0.099,-0.2584 -0.011,-0.4698 0.1955,-0.4698 0.2247,0 0.2976,-0.2465 0.1812,-0.6131 -0.107,-0.3372 -0.058,-0.6973 0.1084,-0.8003 0.1667,-0.103 0.2277,-0.4751 0.1357,-0.8269 -0.092,-0.3518 -0.01,-0.6397 0.1821,-0.6397 0.2175,0 0.2768,-0.3624 0.1573,-0.96 -0.1233,-0.6163 -0.062,-0.96 0.1718,-0.96 0.2432,0 0.2981,-0.4109 0.1655,-1.2398 -0.109,-0.6819 -0.075,-1.3161 0.076,-1.4094 0.3284,-0.2028 0.292,-7.1889 -0.042,-7.9915 -0.1282,-0.3084 -0.1428,-0.9204 -0.032,-1.36 0.1257,-0.5009 0.065,-0.7993 -0.1628,-0.7993 -0.2151,0 -0.301,-0.3265 -0.2105,-0.8 0.084,-0.44 0.012,-0.8 -0.16,-0.8 -0.1721,0 -0.2376,-0.288 -0.1456,-0.64 0.092,-0.352 0.02,-0.64 -0.16,-0.64 -0.18,0 -0.252,-0.288 -0.16,-0.64 0.092,-0.352 0.025,-0.64 -0.1493,-0.64 -0.1742,0 -0.2572,-0.1787 -0.1844,-0.3972 0.073,-0.2184 -0.067,-0.5969 -0.3117,-0.8412 -0.2443,-0.2443 -0.3684,-0.6416 -0.2757,-0.8828 0.093,-0.2414 0.051,-0.4388 -0.093,-0.4388 -0.2787,0 -1.3666,-2.2171 -1.3098,-2.6692 0.019,-0.148 -0.2278,-0.4674 -0.5475,-0.7098 -0.3197,-0.2423 -0.4458,-0.4452 -0.2801,-0.4508 0.1656,-0.01 0.022,-0.2216 -0.32,-0.48 -0.3417,-0.2584 -0.4938,-0.4744 -0.338,-0.48 0.1557,-0.01 -0.098,-0.3097 -0.5631,-0.6758 -0.4654,-0.3661 -0.778,-0.7761 -0.6945,-0.911 0.083,-0.135 -0.3112,-0.6635 -0.877,-1.1744 l -1.0286,-0.929 0.8,0.9804 c 0.44,0.5393 0.088,0.2513 -0.7818,-0.64 -0.8699,-0.8912 -1.4642,-1.4255 -1.3206,-1.1872 0.1722,0.2856 -0.025,0.2458 -0.5782,-0.1168 -0.4617,-0.3025 -0.8394,-0.6859 -0.8394,-0.8521 0,-0.1661 -0.144,-0.2131 -0.32,-0.1043 -0.176,0.1088 -0.32,0.037 -0.32,-0.16 0,-0.1968 -0.1324,-0.2759 -0.2942,-0.1759 -0.1618,0.1 -0.5047,-0.029 -0.7619,-0.2859 -0.2572,-0.2573 -0.5569,-0.3786 -0.6658,-0.2696 -0.1089,0.1089 -0.1981,0.035 -0.1981,-0.1652 0,-0.1998 -0.216,-0.2804 -0.48,-0.1791 -0.264,0.1013 -0.48,0.029 -0.48,-0.16 0,-0.1893 -0.216,-0.2613 -0.48,-0.16 -0.264,0.1013 -0.48,0.038 -0.48,-0.1401 0,-0.1783 -0.288,-0.249 -0.64,-0.1569 -0.352,0.092 -0.64,0.027 -0.64,-0.1456 0,-0.1721 -0.36,-0.2441 -0.8,-0.16 -0.44,0.084 -0.7999,0.028 -0.7998,-0.1244 2e-4,-0.3219 -5.9676,-0.2776 -6.8002,0.051 -0.308,0.1214 -0.7714,0.1396 -1.0298,0.04 -0.2583,-0.099 -0.5584,-0.037 -0.6669,0.1388 -0.1084,0.1755 -0.473,0.2315 -0.8102,0.1245 -0.3666,-0.1164 -0.6131,-0.043 -0.6131,0.1812 0,0.2067 -0.2114,0.2947 -0.4698,0.1955 -0.2583,-0.099 -0.5595,-0.035 -0.6693,0.1427 -0.1097,0.1776 -0.3651,0.2677 -0.5674,0.2003 -0.2023,-0.068 -0.5658,0.075 -0.8078,0.3174 -0.242,0.242 -0.602,0.386 -0.8,0.32 -0.198,-0.066 -0.5598,0.08 -0.8041,0.3241 -0.2443,0.2443 -0.6416,0.3684 -0.8828,0.2757 -0.2414,-0.093 -0.4388,-0.02 -0.4388,0.1605 0,0.1809 -0.144,0.2399 -0.32,0.1311 -0.176,-0.1088 -0.32,-0.037 -0.32,0.16 0,0.1968 -0.144,0.2688 -0.32,0.16 -0.176,-0.1088 -0.32,-0.037 -0.32,0.16 0,0.1968 -0.144,0.2688 -0.32,0.16 -0.176,-0.1088 -0.32,-0.037 -0.32,0.16 0,0.1968 -0.144,0.2688 -0.32,0.16 -0.176,-0.1088 -0.32,-0.037 -0.32,0.16 0,0.1968 -0.1289,0.2781 -0.2865,0.1807 -0.1575,-0.097 -0.3725,0.047 -0.4777,0.3214 -0.1052,0.2742 -0.3363,0.4088 -0.5135,0.2993 -0.1773,-0.1096 -0.3223,-0.038 -0.3223,0.1586 0,0.1968 -0.1289,0.2781 -0.2865,0.1807 -0.1575,-0.097 -0.3769,0.059 -0.4875,0.3469 -0.1106,0.2882 -0.2747,0.4504 -0.3648,0.3603 -0.09,-0.09 -0.6104,0.2536 -1.1563,0.7636 -0.546,0.51 -1.0598,0.8603 -1.1417,0.7783 -0.082,-0.082 -0.5058,0.2378 -0.9419,0.7106 -0.4361,0.4728 -0.6913,0.6436 -0.567,0.3796 0.1243,-0.264 -0.2357,0.061 -0.7999,0.723 -0.5643,0.6616 -1.1338,1.1363 -1.2657,1.0548 -0.3058,-0.189 -3.6281,3.1562 -3.3805,3.4037 0.1016,0.1016 -0.3627,0.6514 -1.0317,1.2218 -0.6691,0.5703 -1.0005,0.9353 -0.7365,0.811 0.264,-0.1243 0.076,0.1457 -0.4179,0.5999 -0.4937,0.4542 -0.7817,0.8306 -0.64,0.8365 0.1419,0.01 -0.072,0.286 -0.4761,0.6226 -0.4038,0.3366 -0.7461,0.7278 -0.7608,0.8694 -0.066,0.6337 -0.3567,1.0385 -0.6267,0.8717 -0.1619,-0.1001 -0.2737,-0.063 -0.2485,0.082 0.1184,0.6818 -0.064,1.0806 -0.3994,0.8732 -0.2246,-0.1388 -0.2828,-0.088 -0.1484,0.1295 0.1216,0.1967 -0.036,0.627 -0.3505,0.9561 -0.3145,0.3291 -0.6156,0.8023 -0.6693,1.0517 -0.054,0.2493 -0.3034,0.6115 -0.555,0.8049 -0.2516,0.1935 -0.3637,0.4455 -0.2491,0.56 0.1146,0.1146 0.016,0.2084 -0.2183,0.2084 -0.2347,0 -0.3373,0.089 -0.2282,0.1985 0.2305,0.2305 -1.6338,4.069 -2.0538,4.2288 -0.1551,0.059 -0.2006,0.2391 -0.1011,0.4 0.1,0.161 0.033,0.2927 -0.148,0.2927 -0.1808,0 -0.2531,0.1974 -0.1605,0.4388 0.093,0.2412 -0.031,0.6385 -0.2757,0.8828 -0.2443,0.2443 -0.3901,0.6061 -0.3241,0.8041 0.066,0.198 -0.078,0.558 -0.32,0.8 -0.242,0.242 -0.3805,0.6187 -0.3076,0.8371 0.073,0.2185 -0.019,0.3972 -0.2043,0.3972 -0.1851,0 -0.2537,0.216 -0.1524,0.48 0.1013,0.264 0.029,0.48 -0.16,0.48 -0.1893,0 -0.2669,0.2014 -0.1724,0.4476 0.094,0.2462 0.024,0.5388 -0.1561,0.6503 -0.1803,0.1114 -0.2467,0.414 -0.1476,0.6723 0.099,0.2584 0.034,0.4698 -0.144,0.4698 -0.1783,0 -0.249,0.288 -0.1569,0.64 0.092,0.352 0.02,0.64 -0.16,0.64 -0.1801,0 -0.2521,0.288 -0.16,0.64 0.095,0.3626 0.01,0.64 -0.1961,0.64 -0.2234,0 -0.2894,0.2947 -0.1714,0.7651 0.1056,0.4208 0.056,0.8494 -0.111,0.9523 -0.1666,0.103 -0.2367,0.5339 -0.1557,0.9574 0.081,0.4236 0,0.8617 -0.1819,0.9736 -0.1851,0.1144 -0.2487,0.6984 -0.1454,1.335 0.1045,0.6442 0.014,1.4477 -0.2093,1.8657 -0.2657,0.4965 -0.3303,1.5006 -0.1996,3.1025 0.1062,1.3026 0.2325,2.945 0.2807,3.6499 0.048,0.7048 0.1992,1.4621 0.3356,1.6828 0.1365,0.2208 0.1571,0.6881 0.046,1.0385 -0.1242,0.3914 -0.056,0.6372 0.1766,0.6372 0.2214,0 0.3094,0.2661 0.2116,0.64 -0.092,0.352 -0.02,0.64 0.16,0.64 0.18,0 0.252,0.288 0.16,0.64 -0.092,0.352 -0.021,0.64 0.1569,0.64 0.1784,0 0.2414,0.216 0.1401,0.48 -0.1013,0.264 -0.033,0.48 0.1524,0.48 0.1852,0 0.2771,0.1787 0.2043,0.3972 -0.073,0.2184 0.067,0.5969 0.3117,0.8412 0.2443,0.2443 0.3684,0.6416 0.2757,0.8828 -0.093,0.2414 -0.02,0.4388 0.1605,0.4388 0.1809,0 0.2399,0.144 0.1311,0.32 -0.1088,0.176 -0.037,0.32 0.16,0.32 0.1968,0 0.2688,0.144 0.16,0.32 -0.1088,0.176 -0.021,0.32 0.1944,0.32 0.2158,0 0.2985,0.094 0.1839,0.2084 -0.1146,0.1145 0,0.3665 0.2491,0.56 0.2516,0.1934 0.5013,0.5626 0.555,0.8204 0.054,0.2579 0.3856,0.7369 0.7376,1.0644 0.352,0.3276 0.424,0.4936 0.16,0.369 -0.264,-0.1246 0.024,0.2186 0.64,0.7626 0.616,0.5441 0.9897,0.995 0.8304,1.0022 -0.1593,0.01 -0.032,0.2976 0.2828,0.6454 0.3148,0.3479 0.6856,0.5625 0.824,0.477 0.1383,-0.085 0.532,0.201 0.8747,0.6367 0.3427,0.4357 0.6917,0.7237 0.7755,0.6399 0.084,-0.084 0.5383,0.2054 1.0101,0.6426 0.4717,0.4372 0.9325,0.7838 1.0238,0.7701 0.4067,-0.061 2.0587,0.7888 2.0587,1.059 0,0.1651 0.141,0.2129 0.3134,0.1064 0.1724,-0.1065 0.6404,-0.013 1.04,0.2083 0.3996,0.221 0.9066,0.3654 1.1266,0.3207 0.22,-0.045 0.4,0.049 0.4,0.2085 0,0.1593 0.36,0.2208 0.8,0.1367 0.44,-0.084 0.8,-0.028 0.8,0.1244 -10e-5,0.3384 7.0675,0.3358 7.6153,0 z m -18.5361,-5.56 c -0.398,-0.5076 -0.3868,-0.5188 0.1208,-0.1208 0.533,0.418 0.7026,0.6808 0.4392,0.6808 -0.066,0 -0.3185,-0.252 -0.56,-0.56 z m 8.8408,-56.72 c 0.8668,-0.88 1.6479,-1.6 1.7359,-1.6 0.088,0 -0.5491,0.72 -1.4159,1.6 -0.8668,0.88 -1.6479,1.6 -1.7359,1.6 -0.088,0 0.5491,-0.72 1.4159,-1.6 z m 615.4901,-390.22154 c 0.2093,-0.12934 0.585,-0.1567 0.835,-0.0608 0.2499,0.0959 0.5456,0.0269 0.657,-0.15344 0.1115,-0.18032 0.3995,-0.25232 0.64,-0.16 0.2406,0.0923 0.5286,0.0202 0.64,-0.16 0.1115,-0.18032 0.4041,-0.25056 0.6503,-0.15609 0.2462,0.0945 0.4476,0.017 0.4476,-0.17242 0,-0.18931 0.216,-0.26131 0.48,-0.16 0.264,0.10131 0.48,0.0362 0.48,-0.14464 0,-0.18086 0.144,-0.23984 0.32,-0.13107 0.176,0.10877 0.32,0.0298 0.32,-0.17536 0,-0.20522 0.216,-0.29024 0.48,-0.18893 0.264,0.10131 0.48,0.0362 0.48,-0.14464 0,-0.18086 0.144,-0.23984 0.32,-0.13107 0.176,0.10877 0.32,0.0368 0.32,-0.16 0,-0.19677 0.144,-0.26877 0.32,-0.16 0.176,0.10877 0.32,0.0368 0.32,-0.16 0,-0.19677 0.144,-0.26877 0.32,-0.16 0.176,0.10877 0.32,0.0211 0.32,-0.19443 0,-0.21575 0.094,-0.29847 0.2084,-0.18387 0.1145,0.11459 0.3665,0.003 0.56,-0.24909 0.1934,-0.25159 0.551,-0.50135 0.7948,-0.55501 0.2437,-0.0537 0.8063,-0.42304 1.2501,-0.82077 0.4439,-0.39776 0.8743,-0.65587 0.9566,-0.57363 0.082,0.0823 0.4306,-0.16829 0.7742,-0.5568 0.3436,-0.38851 0.5227,-0.4904 0.3981,-0.2264 -0.1246,0.264 0.2343,-0.024 0.7975,-0.64 0.5633,-0.616 0.9169,-0.904 0.7858,-0.64 -0.1311,0.264 0.4421,-0.26896 1.2737,-1.18438 0.8316,-0.91543 2.261,-2.3448 3.1764,-3.17642 0.9154,-0.83162 1.4484,-1.40477 1.1844,-1.2737 -0.264,0.13108 0.024,-0.22252 0.64,-0.78579 0.616,-0.56323 0.904,-0.92269 0.64,-0.79875 -0.264,0.12394 -0.048,-0.1609 0.48,-0.63293 0.528,-0.47206 0.744,-0.75949 0.48,-0.63878 -0.264,0.12073 -0.1621,-0.0616 0.2264,-0.40515 0.3885,-0.34356 0.6199,-0.71114 0.5142,-0.81684 -0.1057,-0.10572 0.044,-0.28268 0.3318,-0.39324 0.2881,-0.1106 0.4436,-0.33101 0.3455,-0.4898 -0.098,-0.15881 0.046,-0.37481 0.32,-0.48 0.2741,-0.10521 0.422,-0.31494 0.3286,-0.46608 -0.093,-0.15113 0.1114,-0.55606 0.4552,-0.8998 0.3437,-0.34375 0.541,-0.709 0.4383,-0.81168 -0.1027,-0.10266 0.01,-0.18666 0.24,-0.18666 0.2347,0 0.3375,-0.0892 0.2285,-0.19814 -0.2304,-0.23037 1.9524,-4.70951 2.3729,-4.86919 0.1554,-0.059 0.2012,-0.23904 0.1017,-0.4 -0.1,-0.16096 -0.033,-0.29267 0.148,-0.29267 0.1808,0 0.2531,-0.19744 0.1605,-0.43875 -0.093,-0.24128 0.031,-0.63859 0.2757,-0.88285 0.2443,-0.24426 0.3846,-0.62282 0.3117,-0.84125 -0.073,-0.21843 0.019,-0.39715 0.2043,-0.39715 0.1851,0 0.2537,-0.216 0.1524,-0.48 -0.1013,-0.264 -0.061,-0.4801 0.09,-0.48022 0.1508,-1.3e-4 0.2969,-0.39172 0.3247,-0.87018 0.028,-0.47846 0.1997,-0.91968 0.382,-0.98045 0.1824,-0.0608 0.2522,-0.31718 0.1553,-0.56982 -0.097,-0.25264 -0.021,-0.45933 0.1679,-0.45933 0.1893,0 0.2613,-0.216 0.16,-0.48 -0.1013,-0.264 -0.015,-0.48 0.1916,-0.48 0.2302,0 0.2971,-0.248 0.1727,-0.64 -0.1217,-0.38333 -0.057,-0.64 0.16,-0.64 0.2122,0 0.2822,-0.25485 0.1685,-0.61306 -0.107,-0.33721 -0.058,-0.69734 0.1084,-0.80032 0.1667,-0.103 0.2277,-0.4751 0.1357,-0.82694 -0.092,-0.35181 -0.01,-0.63968 0.1821,-0.63968 0.2175,0 0.2768,-0.36237 0.1573,-0.96 -0.1238,-0.61914 -0.062,-0.96 0.1741,-0.96 0.2306,0 0.2919,-0.29578 0.1655,-0.7993 -0.1104,-0.43958 -0.095,-1.05158 0.035,-1.36 0.3262,-0.77644 0.3741,-10.66435 0.053,-10.86304 -0.1434,-0.0886 -0.2207,-0.54294 -0.1718,-1.0096 0.049,-0.46665 -0.023,-1.02966 -0.1598,-1.2511 -0.1369,-0.22147 -0.1579,-0.68941 -0.047,-1.03981 0.1242,-0.39133 0.056,-0.63715 -0.1766,-0.63715 -0.2214,0 -0.3094,-0.26611 -0.2116,-0.64 0.092,-0.352 0.02,-0.64 -0.16,-0.64 -0.18,0 -0.252,-0.288 -0.16,-0.64 0.092,-0.352 0.021,-0.64 -0.1569,-0.64 -0.1784,0 -0.2414,-0.216 -0.1401,-0.48 0.1013,-0.264 0.033,-0.48 -0.1524,-0.48 -0.1852,0 -0.2771,-0.17872 -0.2043,-0.39715 0.073,-0.21843 -0.067,-0.59699 -0.3117,-0.84125 -0.2443,-0.24426 -0.3684,-0.64157 -0.2757,-0.88285 0.093,-0.24131 0.02,-0.43875 -0.1605,-0.43875 -0.1809,0 -0.2399,-0.144 -0.1311,-0.32 0.1088,-0.176 0.063,-0.32 -0.1023,-0.32 -0.297,0 -1.1345,-1.70442 -1.0295,-2.09542 0.03,-0.11159 -0.1633,-0.36976 -0.4293,-0.57373 -0.2661,-0.20397 -0.5276,-0.58183 -0.5813,-0.83968 -0.054,-0.25789 -0.3856,-0.73683 -0.7376,-1.06439 -0.3532,-0.32867 -0.4249,-0.49833 -0.16,-0.37865 0.264,0.11929 0.011,-0.16925 -0.5631,-0.64122 -0.5737,-0.47193 -0.9748,-0.96854 -0.8913,-1.10355 0.083,-0.13498 -0.3112,-0.66346 -0.877,-1.1744 L 1731.68,826.4 l 0.8,0.98045 c 0.44,0.53923 0.088,0.25123 -0.7818,-0.64 -0.8699,-0.89123 -1.4642,-1.42551 -1.3206,-1.18727 0.1722,0.2856 -0.025,0.24583 -0.5782,-0.1168 -0.4617,-0.30249 -0.8394,-0.67744 -0.8394,-0.83318 0,-0.15578 -0.108,-0.24896 -0.24,-0.2071 -0.3841,0.12176 -2.32,-0.76679 -2.32,-1.06487 0,-0.14912 -0.216,-0.18825 -0.48,-0.0869 -0.264,0.10131 -0.48,0.0294 -0.48,-0.16 0,-0.18931 -0.216,-0.26131 -0.48,-0.16 -0.264,0.10131 -0.48,0.0294 -0.48,-0.16 0,-0.18931 -0.216,-0.26131 -0.48,-0.16 -0.264,0.10131 -0.48,0.015 -0.48,-0.19162 0,-0.2296 -0.2478,-0.29715 -0.6372,-0.17357 -0.3504,0.1112 -0.7977,0.10292 -0.9941,-0.0186 -0.1964,-0.12134 -1.6943,-0.22064 -3.3287,-0.22064 -1.6344,0 -3.1323,0.0993 -3.3287,0.22064 -0.1964,0.12138 -0.6437,0.12967 -0.9941,0.0186 -0.3914,-0.12419 -0.6372,-0.056 -0.6372,0.17664 0,0.22135 -0.2661,0.30932 -0.64,0.21156 -0.352,-0.0921 -0.64,-0.0214 -0.64,0.15689 0,0.17837 -0.216,0.24141 -0.48,0.1401 -0.264,-0.10131 -0.48,-0.0294 -0.48,0.16 0,0.18931 -0.216,0.26131 -0.48,0.16 -0.264,-0.10131 -0.48,-0.0294 -0.48,0.16 0,0.18931 -0.216,0.26131 -0.48,0.16 -0.264,-0.10131 -0.48,-0.0208 -0.48,0.1791 0,0.19981 -0.089,0.27415 -0.1981,0.16519 -0.1089,-0.10896 -0.4155,0.0192 -0.6813,0.28505 -0.2657,0.26576 -0.688,0.40455 -0.9385,0.30845 -0.2504,-0.0961 -0.3777,-0.0491 -0.2828,0.10445 0.1623,0.26265 -1.4763,1.12297 -1.9147,1.00531 -0.1116,-0.0301 -0.3698,0.16323 -0.5738,0.42928 -0.2039,0.26605 -0.5636,0.52762 -0.7993,0.58128 -0.2357,0.0537 -0.8675,0.49782 -1.4039,0.98701 -0.5365,0.48918 -1.0401,0.8248 -1.1191,0.74579 -0.079,-0.079 -0.5754,0.31277 -1.1033,0.87059 -0.5278,0.55783 -0.852,0.79821 -0.7206,0.53421 0.1316,-0.264 -0.3667,0.1975 -1.1072,1.02554 -0.7405,0.82803 -2.0238,2.11139 -2.8519,2.85187 -0.828,0.74051 -1.2895,1.23875 -1.0255,1.10723 0.264,-0.13149 0.01,0.20515 -0.5651,0.74813 -0.5747,0.54297 -0.9347,0.99203 -0.8,0.99789 0.1348,0.006 -0.085,0.28604 -0.4889,0.62265 -0.4038,0.33661 -0.7185,0.65581 -0.6994,0.70935 0.1191,0.33417 -0.4459,1.18137 -0.6881,1.03171 -0.1619,-0.10007 -0.2737,-0.0632 -0.2485,0.0819 0.1184,0.68173 -0.064,1.08055 -0.3994,0.87322 -0.2246,-0.13882 -0.2828,-0.0881 -0.1484,0.12944 0.1216,0.19677 -0.036,0.62704 -0.3505,0.95613 -0.3145,0.32909 -0.6156,0.80233 -0.6693,1.05165 -0.054,0.24934 -0.3034,0.61158 -0.555,0.80499 -0.2516,0.19341 -0.3637,0.44541 -0.2491,0.56 0.1146,0.11459 0.04,0.20835 -0.165,0.20835 -0.2053,0 -0.3373,0.11552 -0.2933,0.2567 0.1243,0.39885 -1.4341,3.5833 -1.7536,3.5833 -0.1563,0 -0.1952,0.144 -0.086,0.32 0.1088,0.176 0.076,0.32 -0.073,0.32 -0.149,0 -0.2951,0.32186 -0.3247,0.71526 -0.03,0.39338 -0.2051,0.7657 -0.3901,0.82733 -0.1849,0.0616 -0.2548,0.24378 -0.1553,0.40474 0.1,0.16096 0.033,0.29267 -0.148,0.29267 -0.1808,0 -0.2459,0.216 -0.1446,0.48 0.1013,0.264 0.029,0.48 -0.16,0.48 -0.1893,0 -0.2613,0.216 -0.16,0.48 0.1013,0.264 0.029,0.48 -0.16,0.48 -0.1893,0 -0.2613,0.216 -0.16,0.48 0.1013,0.264 0.029,0.48 -0.16,0.48 -0.1893,0 -0.2613,0.216 -0.16,0.48 0.1013,0.264 0.029,0.48 -0.16,0.48 -0.1893,0 -0.2613,0.216 -0.16,0.48 0.1013,0.264 0.029,0.48 -0.16,0.48 -0.1893,0 -0.2669,0.20144 -0.1724,0.44762 0.094,0.2462 0.024,0.53881 -0.1561,0.65027 -0.1803,0.11142 -0.2467,0.41398 -0.1476,0.67235 0.099,0.25837 0.011,0.46976 -0.1955,0.46976 -0.2247,0 -0.2976,0.24653 -0.1812,0.61306 0.107,0.33721 0.042,0.70716 -0.1437,0.82211 -0.186,0.11497 -0.2511,0.35001 -0.1447,0.52227 0.1065,0.17226 0.087,0.5583 -0.042,0.85789 -0.1298,0.29955 -0.2043,0.86867 -0.1655,1.26467 0.039,0.396 -0.087,0.72 -0.2785,0.72 -0.2124,0 -0.2705,0.31286 -0.1484,0.7993 0.1104,0.43958 0.094,1.05158 -0.036,1.36 -0.334,0.79052 -0.3703,10.98588 -0.04,11.19008 0.1498,0.0925 0.1894,0.58278 0.088,1.08944 -0.1123,0.56144 -0.049,0.92118 0.1625,0.92118 0.21,0 0.2675,0.31539 0.1459,0.8 -0.1259,0.5016 -0.065,0.8 0.1626,0.8 0.2059,0 0.2909,0.27744 0.1961,0.64 -0.092,0.352 -0.02,0.64 0.16,0.64 0.18,0 0.252,0.288 0.16,0.64 -0.092,0.352 -0.021,0.64 0.1569,0.64 0.1784,0 0.2414,0.216 0.1401,0.48 -0.1013,0.264 -0.029,0.48 0.16,0.48 0.1893,0 0.2613,0.216 0.16,0.48 -0.1013,0.264 -0.03,0.48 0.16,0.48 0.1893,0 0.2613,0.216 0.16,0.48 -0.1013,0.264 -0.036,0.48 0.1446,0.48 0.1809,0 0.2399,0.144 0.1311,0.32 -0.1088,0.176 -0.07,0.32 0.086,0.32 0.2993,0 1.7357,2.84707 1.6695,3.30915 -0.021,0.14803 0.2231,0.46743 0.5428,0.70983 0.3197,0.24236 0.4458,0.44524 0.2801,0.45084 -0.1656,0.006 -0.022,0.2216 0.32,0.48 0.3417,0.2584 0.5153,0.4744 0.3859,0.48 -0.1294,0.006 0.3026,0.53629 0.96,1.1793 0.6574,0.64301 0.8713,0.9087 0.4753,0.5904 -1.2238,-0.98362 -0.7959,-0.3648 0.7839,1.13386 0.8272,0.78464 1.3124,1.13862 1.0783,0.78662 -0.2341,-0.352 0.013,-0.18362 0.5485,0.37421 0.5358,0.55782 1.0552,0.93321 1.1542,0.83421 0.099,-0.099 0.2705,0.0558 0.3811,0.34393 0.1106,0.28819 0.3247,0.44755 0.4759,0.35415 0.1511,-0.0934 0.556,0.11142 0.8998,0.45516 0.3437,0.34375 0.709,0.541 0.8116,0.43834 0.1027,-0.10266 0.1867,-0.0234 0.1867,0.17661 0,0.19984 0.1974,0.28755 0.4388,0.19494 0.2412,-0.0926 0.6385,0.0314 0.8828,0.27575 0.2443,0.24428 0.6228,0.38457 0.8412,0.31174 0.2185,-0.0728 0.3972,0.0102 0.3972,0.18432 0,0.17421 0.288,0.24141 0.64,0.14934 0.352,-0.092 0.64,-0.0202 0.64,0.16 0,0.18007 0.2717,0.25632 0.6039,0.16948 0.3321,-0.0869 0.6783,-0.0374 0.7693,0.10995 0.2016,0.32643 6.7032,0.29619 7.2369,-0.0337 z m -427.9368,53.88141 c -11.4545,-1.32896 -24.4153,-6.68429 -28.63,-11.82979 -1.6896,-2.06278 -3.2059,-4.76442 -3.9456,-7.03008 l -0.6791,-2.08 0.075,-246.72 c 0.064,-209.39949 0.1429,-247.05232 0.5212,-248.91683 1.1036,-5.43901 5.3347,-10.86352 10.5169,-13.48317 4.2288,-2.13773 6.8839,-4.97226 8.6193,-9.20163 l 0.6886,-1.67837 0.1647,-128.8 c 0.1535,-120.00838 0.2019,-128.91914 0.7084,-130.54549 2.4525,-7.87556 8.2794,-13.06761 16.0997,-14.34562 2.7448,-0.44857 3.2498,-0.44608 5.6604,0.0279 7.794,1.53242 14.2926,7.70526 16.0686,15.26323 0.4339,1.8467 0.4899,16.31095 0.499,128.96 0.012,140.23446 -0.1638,129.12941 2.1049,133.44665 1.4654,2.78874 3.9907,5.18884 7.3861,7.02004 5.7665,3.11001 9.138,7.488 10.6235,13.79475 0.6305,2.67686 0.6369,4.67568 0.7992,248.5024 0.1461,219.47584 0.1114,246.00477 -0.3238,247.68 -0.8353,3.21507 -2.8966,6.7568 -5.383,9.24931 -1.7924,1.79674 -2.9608,2.61597 -5.7677,4.04406 -6.5595,3.33728 -13.706,5.56615 -20.8499,6.50263 -3.8487,0.50451 -11.2203,0.57353 -14.9568,0.14003 z"
       id="path3859"
       inkscape:connector-curvature="0" />
    <path
       style="fill:#5baddb;stroke-width:0.31999999"
       d="m 1050.6644,2471.2258 c -6.7654,-1.2866 -12.0346,-5.7497 -15.4876,-13.1182 -4.6007,-9.8176 -6.8332,-23.5701 -7.2341,-44.5639 -0.3204,-16.7751 0.8307,-1002.7747 1.1843,-1014.5037 0.4193,-13.9065 1.3771,-24.7264 3.3849,-38.24 4.6358,-31.2022 14.2234,-64.0697 24.5351,-84.1102 8.5607,-16.6374 21.028,-31.6931 36.233,-43.7557 1.232,-0.9774 139.976,-104.5039 308.32,-230.0589 168.344,-125.55498 307.736,-229.60454 309.76,-231.22122 2.024,-1.61667 5.048,-4.04723 6.72,-5.40128 5.7079,-4.6224 10.432,-6.64892 15.52,-6.65772 4.997,-0.009 8.5169,1.71788 12.9996,6.37644 9.2503,9.61296 14.9334,29.51812 16.248,56.90858 0.3724,7.76038 0.089,1101.9183 -0.2957,1142.4 -0.2867,30.1517 -0.3852,32.5277 -1.7721,42.72 -3.1695,23.2944 -10.9262,43.7108 -23.2526,61.2036 -9.7728,13.8687 -23.4688,26.6553 -38.4716,35.9169 -1.9275,1.1899 -139.6635,80.8899 -306.08,177.1112 -166.4166,96.2213 -305.5276,176.6549 -309.1356,178.7413 -9.526,5.5087 -17.5849,8.957 -23.4342,10.0275 -3.2444,0.5937 -7.3099,0.6877 -9.7414,0.2253 z m 34.2956,-32.3554 c 4.7795,-1.3044 10.1176,-4.4717 14.4535,-8.576 4.5176,-4.2763 7.8338,-8.8686 10.8699,-15.0527 7.1133,-14.4887 7.5245,-31.5498 1.0262,-42.5833 -0.7315,-1.2421 -2.4342,-3.354 -3.7837,-4.6932 -6.5896,-6.539 -15.9524,-7.6477 -25.4733,-3.0164 -11.7586,5.7198 -21.3977,19.4562 -24.8207,35.3712 -0.6142,2.8555 -0.7244,4.345 -0.7344,9.92 -0.013,7.2318 0.3324,9.3539 2.3914,14.6931 2.7933,7.2432 8.7539,12.7625 15.423,14.281 2.5025,0.5698 7.9445,0.3942 10.6481,-0.3437 z m 618.0733,-373.2338 c 6.7638,-2.3047 12.9822,-7.0619 18.0844,-13.835 14.1458,-18.7783 15.1907,-45.306 2.2516,-57.1624 -9.3058,-8.527 -23.7219,-6.3679 -35.2575,5.2806 -12.9774,13.1044 -18.752,34.8807 -13.4124,50.5795 2.7928,8.2112 8.399,13.9451 15.5406,15.8946 1.2499,0.3411 2.9194,0.4508 5.76,0.3784 3.5108,-0.09 4.371,-0.2285 7.0333,-1.1357 z m -353.6476,-211.4514 c -10.634,-12.7816 -16.1913,-26.7728 -18.7261,-47.1452 -0.8227,-6.6125 -0.8213,-25.7098 0,-33.28 3.1795,-29.2176 11.2935,-59.4401 27.1052,-100.96 13.391,-35.1634 37.5392,-87.2747 81.0856,-174.9808 7.1421,-14.3849 10.9198,-21.6668 11.2054,-21.6 0.4752,0.1112 19.1325,15.7498 27.2198,22.8158 19.5373,17.0699 37.8374,35.3099 55.5504,55.3679 21.4936,24.3391 34.3737,54.893 37.1159,88.0458 0.502,6.0697 0.2195,22.8265 -0.4821,28.5913 -2.1705,17.834 -8.6564,41.613 -17.0122,62.3707 -1.6584,4.1199 -2.9552,7.5508 -2.8819,7.6242 0.2104,0.2103 2.2109,-3.5163 4.9527,-9.2259 9.5215,-19.828 16.3546,-38.9358 21.7886,-60.929 4.3797,-17.726 5.6631,-26.5717 5.9892,-41.28 0.4375,-19.7355 -2.2616,-37.5996 -8.5337,-56.48 -6.9518,-20.9266 -17.7372,-39.7044 -32.716,-56.96 -14.6866,-16.9189 -30.1476,-32.7868 -46.1693,-47.3846 -9.1603,-8.3461 -41.2744,-36.0483 -44.0448,-37.9939 -0.3278,-0.2302 -0.7516,-0.3224 -0.9418,-0.2048 -0.4032,0.2491 -26.8552,53.2101 -37.5512,75.1833 -34.4006,70.6701 -53.5653,113.3057 -66.7419,148.48 -16.6941,44.5641 -25.5586,79.935 -27.5477,109.92 -0.4709,7.0988 -0.2054,22.6256 0.4868,28.4731 3.0351,25.6366 10.7428,43.4226 25.0246,57.7459 3.196,3.2054 7.7501,7.0539 8.0234,6.7806 0.082,-0.082 -0.9086,-1.4205 -2.2014,-2.9744 z m 48.0023,-18.1932 c -0.055,-0.1716 -1.2893,-1.2922 -2.743,-2.4903 -6.2519,-5.1525 -11.5768,-12.9213 -14.4258,-21.0469 -1.1206,-3.196 -2.4044,-8.7254 -3.1661,-13.6371 -0.8649,-5.5763 -0.7643,-20.6725 0.1851,-27.7777 3.4486,-25.8102 12.7076,-54.746 30.2062,-94.4 12.5217,-28.3757 41.4546,-89.6613 42.5031,-90.0301 0.6257,-0.22 13.8702,11.9507 23.8024,21.8726 14.2068,14.1923 27.4573,29.195 32.6409,36.9575 9.4838,14.202 15.2367,30.422 16.8295,47.4495 0.5516,5.8968 0.2258,18.6894 -0.6147,24.1365 -2.4594,15.9387 -8.8599,35.3421 -17.0634,51.7283 -1.3971,2.7909 -2.4697,5.1448 -2.3835,5.2311 0.22,0.2199 2.6002,-3.0565 6.4403,-8.8654 14.6684,-22.1885 24.9385,-45.583 31.7122,-72.2378 3.6054,-14.1875 4.4485,-20.4914 4.4408,-33.2022 -0.01,-9.3668 -0.2713,-12.7562 -1.6047,-20.48 -3.7165,-21.528 -13.1286,-41.3894 -27.5598,-58.1565 -14.7635,-17.1533 -30.8539,-32.5066 -59.2801,-56.5644 -6.4762,-5.481 -6.5968,-5.5699 -7.1179,-5.2479 -0.5329,0.3294 -22.1495,44.2037 -35.0643,71.1688 -26.0872,54.4676 -38.9535,84.5604 -48.0231,112.32 -6.5487,20.0438 -10.2942,36.379 -12.1067,52.8 -0.6702,6.0718 -0.7653,20.9418 -0.1648,25.76 1.4284,11.4602 3.7196,20.0362 7.2668,27.2 2.676,5.4045 5.5505,9.3961 9.9051,13.7545 6.4363,6.4419 13.7136,10.7879 22.5575,13.4714 2.5001,0.7586 2.9955,0.8087 2.828,0.2861 z m 59.9136,-25.9429 c 2.9652,-1.689 5.5352,-3.2443 5.711,-3.4561 0.3056,-0.3682 -5.1688,-104.883 -5.5894,-106.7108 -0.096,-0.4167 -0.2517,-0.6803 -0.3464,-0.5857 -0.1243,0.1243 -5.8419,110.5551 -5.8725,113.4235 0,0.22 0.1555,0.4 0.3508,0.4 0.1954,0 2.7813,-1.3819 5.7465,-3.0709 z m -352.216,-459.1643 c 11.3627,-3.1852 22.6209,-13.507 28.8001,-26.4048 2.0467,-4.2722 3.4533,-8.3174 4.4219,-12.7173 1.0095,-4.5861 1.0086,-13.1371 0,-17.1633 -1.3607,-5.4212 -4.4012,-10.5927 -7.8423,-13.3388 -9.9847,-7.9682 -25.3686,-5.0326 -37.8337,7.2194 -10.9353,10.7484 -17.5764,27.4447 -16.1885,40.6996 1.2296,11.7437 6.8913,19.3518 16.3797,22.0106 2.2754,0.6376 9.5466,0.4566 12.2647,-0.3054 z m 604.6161,-452.32739 c 5.6996,-1.3664 10.5949,-4.37597 16.075,-9.88269 5.6182,-5.64557 9.6435,-12.216 12.4238,-20.27914 1.966,-5.7015 2.6581,-9.50566 2.8401,-15.61014 0.2416,-8.10496 -0.8228,-13.50675 -3.7798,-19.18096 -2.8992,-5.5633 -6.9563,-9.08054 -12.7808,-11.08022 -2.7255,-0.93575 -9.2627,-0.85956 -12.48,0.14544 -13.9574,4.35984 -25.4245,18.79401 -29.5248,37.16425 -0.5801,2.59885 -0.68,4.07965 -0.6808,10.08605 0,6.62291 0.05,7.2296 0.8552,10.24 1.0104,3.77725 3.4546,8.86182 5.498,11.43738 2.6705,3.36614 6.9165,6.12268 10.9248,7.09257 2.8175,0.68173 7.475,0.62365 10.6293,-0.13254 z m -428.2413,53.73494 c -7.4648,-0.70518 -15.2782,-2.91536 -22.1925,-6.27753 -6.0025,-2.91879 -9.8115,-7.09616 -11.6116,-12.73482 l -0.7151,-2.24 0.079,-246.56 c 0.043,-135.608 0.2,-247.21283 0.348,-248.01075 1.0774,-5.81037 4.8546,-10.6456 10.8442,-13.88179 4.5837,-2.47664 7.4888,-5.93444 8.7218,-10.38122 0.5631,-2.03069 0.586,-7.032 0.5914,-129.31932 0.01,-141.44638 -0.1959,-129.37664 2.2485,-134.33577 2.5289,-5.13041 7.5715,-8.95688 13.4259,-10.18796 5.9708,-1.25554 12.0866,0.7275 16.8263,5.45594 2.4743,2.46846 3.6441,4.25638 4.9086,7.50261 l 0.8251,2.11826 0.16,128.64 c 0.1547,124.37603 0.1797,128.69834 0.7557,130.4 1.5534,4.58957 4.5897,8.18013 8.742,10.3376 5.8953,3.06314 9.3996,7.6808 10.7967,14.22691 0.397,1.86 0.4821,35.79751 0.6212,247.54899 0.1567,238.67028 0.1447,245.45744 -0.4355,247.72596 -1.5509,6.064 -5.2647,10.47264 -11.4209,13.55772 -9.9666,4.99456 -22.7196,7.43536 -33.5188,6.41517 z"
       id="path3857"
       inkscape:connector-curvature="0" />
    <path
       style="fill:#008fde;stroke-width:0.31999999"
       d="m 1051.89,2471.0157 c -12.5155,-1.6243 -19.5081,-13.4806 -22.2558,-37.7357 -1.273,-11.2377 -1.2831,-12.0616 -1.2078,-98.56 0.2934,-337.2792 1.0205,-923.002 1.1564,-931.52 0.3499,-21.938 2.6906,-41.9843 7.5663,-64.8 5.2102,-24.3808 13.7783,-49.7516 21.5774,-63.8925 8.7742,-15.9086 19.977,-29.1941 34.3935,-40.7875 1.8981,-1.5264 265.6959,-198.346 580.64,-433.21558 19.536,-14.569 36.744,-27.4768 38.24,-28.68404 1.496,-1.2072 4.232,-3.42355 6.08,-4.92515 10.5897,-8.6048 19.7625,-9.08953 27.538,-1.45523 9.0947,8.92941 14.4259,25.76912 16.6651,52.64 0.2829,3.3937 0.3508,119.47162 0.2802,478.72 -0.099,501.5137 -0.3601,695.2212 -0.9464,700.96 -1.9534,19.1197 -5.1867,33.0137 -10.9031,46.8532 -9.9773,24.1548 -27.9053,45.152 -50.9458,59.6677 -2.3565,1.4846 -283.2705,163.9801 -601.688,348.0482 -10.912,6.3079 -21.712,12.3653 -24,13.4609 -8.6543,4.1439 -16.4249,5.9739 -22.19,5.2257 z m 32.59,-31.5617 c 5.7422,-1.395 10.9089,-4.5547 16.3373,-9.9912 13.2436,-13.2633 18.9932,-34.6397 13.6913,-50.9028 -3.555,-10.9045 -12.2632,-17.4811 -22.3205,-16.8569 -4.0395,0.2507 -6.1822,0.8544 -10.4281,2.938 -4.1464,2.0347 -6.9351,4.0774 -10.5299,7.7129 -7.3816,7.4651 -12.7819,18.2149 -14.7726,29.406 -0.7097,3.99 -0.8046,12.3871 -0.179,15.84 0.6617,3.6522 1.8649,7.2154 3.512,10.4 1.1668,2.256 2.1135,3.5127 4.3695,5.8003 3.8054,3.8586 6.8316,5.3743 12.64,6.3306 1.3452,0.2215 5.483,-0.1432 7.68,-0.6769 z m 616.7533,-372.7152 c 12.0858,-3.2775 23.3783,-15.2214 28.6324,-30.284 6.7443,-19.3345 1.9297,-39.2674 -10.9666,-45.4024 -3.5064,-1.6681 -5.4868,-2.0956 -9.4591,-2.0423 -15.6452,0.2099 -31.132,16.4388 -36.0213,37.7473 -1.1541,5.0296 -1.4508,13.3715 -0.6415,18.0301 1.2337,7.1006 3.6319,12.0876 7.8628,16.3501 3.0576,3.0805 5.7849,4.7046 9.669,5.7578 2.7626,0.7491 7.8537,0.6761 10.9243,-0.1566 z M 1352.9904,1858 c -0.1717,-0.308 -1.1383,-1.496 -2.1481,-2.64 -9.7269,-11.0203 -15.7349,-24.105 -18.6603,-40.64 -2.2503,-12.7191 -2.5407,-28.7008 -0.7995,-44 3.1659,-27.8182 12.5736,-61.5947 28.5992,-102.6797 13.2567,-33.9865 39.6107,-90.5938 78.6573,-168.9526 10.3309,-20.7319 11.3449,-22.6354 11.8494,-22.2425 1.2716,0.9905 19.2061,16.1145 24.0716,20.2994 19.4412,16.7217 38.2725,35.2938 56.0617,55.2901 10.6904,12.0167 17.204,21.5874 23.7694,34.9253 7.4299,15.0943 11.9074,29.6609 14.2133,46.24 1.0996,7.9057 1.4098,13.9055 1.2242,23.68 -0.2381,12.5441 -1.2554,20.4685 -4.2723,33.28 -4.2486,18.0419 -8.9297,32.3142 -16.0924,49.0642 -1.266,2.9605 -2.2546,5.6241 -2.1968,5.9192 0.407,2.08 12.807,-23.9549 18.0338,-37.8634 7.6326,-20.3105 14.05,-44.4082 16.1063,-60.48 1.7871,-13.9675 1.7934,-28.6007 0.018,-42.4 -3.3787,-26.2654 -12.9165,-51.3012 -27.8482,-73.0983 -8.05,-11.7513 -20.3762,-25.7294 -39.9624,-45.3179 -14.8558,-14.8575 -21.0412,-20.4863 -46.8948,-42.6746 -13.5496,-11.6287 -16.0873,-13.6901 -16.7061,-13.571 -0.6926,0.1334 -4.9392,8.4478 -23.0973,45.2218 -44.1479,89.4087 -66.2042,137.6898 -81.5719,178.56 -15.4932,41.2042 -23.8695,73.121 -27.1678,103.52 -0.8299,7.648 -0.8281,28.8699 0,35.52 3.2388,25.9192 10.8916,43.3772 25.3217,57.7654 2.4741,2.467 5.5065,5.2377 6.7385,6.157 2.3267,1.7362 3.3201,2.1399 2.7503,1.1176 z m 45.4096,-21.6033 c 0,-0.2218 -0.9953,-1.1623 -2.2118,-2.0901 -4.8059,-3.6651 -10.2046,-10.219 -13.0153,-15.8004 -3.2766,-6.5065 -5.3208,-14.5082 -6.1994,-24.2662 -1.548,-17.1937 2.1914,-39.7929 11.093,-67.04 7.2627,-22.2308 16.9626,-45.468 35.9014,-86.006 10.3252,-22.1007 25.4046,-53.5643 25.9234,-54.09 0.5048,-0.5115 15.4942,13.3451 26.0046,24.0392 10.8994,11.0899 22.5637,24.0826 27.4867,30.6168 10.4724,13.8999 17.4242,31.8921 19.3597,50.1055 0.6986,6.574 0.4772,18.7218 -0.4515,24.7762 -2.631,17.1518 -9.7817,38.3405 -18.4779,54.7528 -3.786,7.1454 -2.2995,6.193 3.5002,-2.2426 16.3559,-23.7896 27.7638,-49.3815 34.9471,-78.3981 3.0533,-12.334 3.8206,-18.6123 3.817,-31.2338 0,-10.8911 -0.3257,-14.3124 -2.2508,-23.8647 -4.0555,-20.1229 -13.2777,-38.9646 -26.6927,-54.5353 -7.886,-9.1532 -17.7419,-19.4547 -26.5737,-27.7751 -10.957,-10.3225 -39.0835,-34.6154 -40.085,-34.6215 -1.4232,-0.01 -44.1078,88.1058 -60.2994,124.4766 -21.0225,47.2226 -31.7491,80.769 -35.352,110.56 -0.9318,7.7041 -1.0147,22.7492 -0.1605,29.12 1.5874,11.8385 4.443,21.3968 8.498,28.4437 2.6522,4.6092 4.4282,6.8767 8.8136,11.2526 6.236,6.2225 12.6755,10.2104 20.9034,12.9451 3.9323,1.307 5.5219,1.559 5.5219,0.8753 z m 59.0885,-26.0323 c 2.9654,-1.6915 5.5787,-3.2519 5.8075,-3.4674 0.3409,-0.3211 -0.1136,-10.1911 -2.5145,-54.6045 -1.6118,-29.8169 -3.0785,-54.7885 -3.2595,-55.4925 -0.3145,-1.2241 -0.3408,-1.245 -0.6013,-0.48 -0.2147,0.6305 -6.0407,112.725 -6.0407,116.2259 0,0.6654 0.1557,0.8941 0.6085,0.8941 0.3347,0 3.0347,-1.384 6,-3.0756 z M 1105.44,1351.211 c 6.2522,-1.8078 11.8024,-5.1564 17.2168,-10.3874 9.9444,-9.6075 16.0185,-22.3545 17.0133,-35.7036 0.3552,-4.7652 -0.6076,-10.8775 -2.3969,-15.2164 -3.8984,-9.4538 -12.9313,-14.7648 -22.864,-13.443 -16.473,2.1922 -32.2435,18.3909 -37.248,38.2594 -1.5777,6.2639 -1.7367,14.4802 -0.3808,19.68 2.4697,9.4709 8.2608,15.4856 16.8196,17.4686 2.9098,0.6742 8.2621,0.3769 11.84,-0.6576 z m 602.7718,-451.8301 c 6.8187,-1.33319 12.437,-4.64416 18.4185,-10.8544 17.0277,-17.67872 20.2255,-47.9113 6.4895,-61.352 -2.3251,-2.27511 -4.9077,-3.84688 -8.1629,-4.96797 -3.4281,-1.18064 -8.5999,-1.25731 -12.4092,-0.18397 -5.9002,1.66246 -10.6631,4.63203 -15.9298,9.93197 -19.407,19.52944 -21.0287,54.06128 -3.0504,64.95721 4.3198,2.61808 9.4545,3.48384 14.6443,2.46916 z m -426.7514,52.91145 c -7.4648,-0.70518 -15.2782,-2.91536 -22.1925,-6.27753 -6.0025,-2.91879 -9.8115,-7.09616 -11.6116,-12.73482 l -0.7151,-2.24 0.079,-246.56 c 0.043,-135.608 0.2,-247.21283 0.348,-248.01075 1.0774,-5.81037 4.8546,-10.6456 10.8442,-13.88179 4.5837,-2.47664 7.4888,-5.93444 8.7218,-10.38122 0.5631,-2.03069 0.586,-7.032 0.5914,-129.31932 0.01,-141.44638 -0.1959,-129.37664 2.2485,-134.33577 2.5289,-5.13041 7.5715,-8.95688 13.4259,-10.18796 5.9708,-1.25554 12.0866,0.7275 16.8263,5.45594 2.4743,2.46846 3.6441,4.25638 4.9086,7.50261 l 0.8251,2.11826 0.16,128.64 c 0.1547,124.37603 0.1797,128.69834 0.7557,130.4 1.5534,4.58957 4.5897,8.18013 8.742,10.3376 5.8953,3.06314 9.3996,7.6808 10.7967,14.22691 0.397,1.86 0.4821,35.79751 0.6212,247.54899 0.1567,238.67028 0.1447,245.45744 -0.4355,247.72596 -1.5509,6.064 -5.2647,10.47264 -11.4209,13.55772 -9.9666,4.99456 -22.7196,7.43536 -33.5188,6.41517 z"
       id="path3855"
       inkscape:connector-curvature="0" />
    <path
       style="fill:#626262;stroke-width:0.31999999"
       d="m 1281.4604,952.29235 c -7.4648,-0.70518 -15.2782,-2.91536 -22.1925,-6.27753 -6.0025,-2.91879 -9.8115,-7.09616 -11.6116,-12.73482 l -0.7151,-2.24 0.079,-246.56 c 0.043,-135.608 0.2,-247.21283 0.348,-248.01075 1.0774,-5.81037 4.8546,-10.6456 10.8442,-13.88179 4.5837,-2.47664 7.4888,-5.93444 8.7218,-10.38122 0.5631,-2.03069 0.586,-7.032 0.5914,-129.31932 0.01,-141.44638 -0.1959,-129.37664 2.2485,-134.33577 2.5289,-5.13041 7.5715,-8.95688 13.4259,-10.18796 5.9708,-1.25554 12.0866,0.7275 16.8263,5.45594 2.4743,2.46846 3.6441,4.25638 4.9086,7.50261 l 0.8251,2.11826 0.16,128.64 c 0.1547,124.37603 0.1797,128.69834 0.7557,130.4 1.5534,4.58957 4.5897,8.18013 8.742,10.3376 5.8953,3.06314 9.3996,7.6808 10.7967,14.22691 0.397,1.86 0.4821,35.79751 0.6212,247.54899 0.1567,238.67028 0.1447,245.45744 -0.4355,247.72596 -1.5509,6.064 -5.2647,10.47264 -11.4209,13.55772 -9.9666,4.99456 -22.7196,7.43536 -33.5188,6.41517 z"
       id="path3853"
       inkscape:connector-curvature="0" />
    <path
       style="fill:#1b1b1b;stroke-width:0.31999999"
       d="m 1280,951.66701 c -6.7845,-0.82909 -13.8664,-2.92663 -20.1536,-5.96919 -3.8513,-1.86377 -4.5747,-2.34953 -6.7491,-4.53264 -2.6531,-2.66374 -4.3585,-5.63532 -5.2525,-9.15241 -0.431,-1.69565 -0.4842,-29.17194 -0.4792,-247.68 0,-214.96624 0.064,-246.05354 0.4758,-248.01277 1.1549,-5.50067 5.0158,-10.44374 10.379,-13.2879 4.3744,-2.31981 6.9295,-5.0377 8.7167,-9.2721 l 0.7429,-1.76 0.1604,-128.8 c 0.1522,-122.22893 0.1894,-128.89645 0.7291,-130.6905 1.3783,-4.58189 4.4102,-8.73411 8.0615,-11.04006 7.8805,-4.977 17.2518,-3.70896 23.689,3.20536 2.3364,2.50951 3.8085,5.19427 4.6479,8.47592 0.6243,2.44099 0.6321,4.04438 0.6321,129.2417 0,89.07097 0.1024,127.33468 0.3442,128.6688 0.9094,5.01603 4.4949,9.61747 9.5758,12.28889 3.3022,1.73626 6.7068,4.99815 8.2399,7.89453 0.572,1.08054 1.4,3.35034 1.84,5.044 l 0.8001,3.07936 v 245.52877 c 0,220.53673 -0.05,245.72291 -0.4951,247.436 -1.0582,4.07664 -3.5599,7.96093 -6.6755,10.36454 -4.4546,3.43674 -14.1833,7.15674 -22.2694,8.51527 -3.5993,0.6047 -13.5488,0.87129 -16.96,0.45443 z"
       id="path3851"
       inkscape:connector-curvature="0" />
  </g>
</svg>
