<svg id="Camada_1" data-name="Camada 1" xmlns="http://www.w3.org/2000/svg" viewBox="0 0 44.2 95.53"><defs><style>.cls-1{fill:#ccc;}.cls-2{fill:#bababa;}.cls-3{fill:#00a035;}.cls-4,.cls-5{fill:#fff;}.cls-5{fill-rule:evenodd;}.cls-6{fill:#1c1c1c;}</style></defs><path class="cls-1" d="M60.57,75.38,30.76,92.62c-1.26,1-2.29-.08-2.29-2.42V52.75c0-2.35,1-5.1,2.29-6.12L60.57,28.7c1.26-1,2.28.08,2.28,2.43V69.26C62.85,71.59,61.83,74.35,60.57,75.38Z" transform="translate(-28.47 -2.24)"/><path class="cls-1" d="M70.39,80.15,40.57,97.39c-1.25,1-2.28-.08-2.28-2.42V57.52c0-2.35,1-5.1,2.28-6.12L70.39,33.47c1.26-1,2.28.07,2.28,2.42V74C72.67,76.36,71.65,79.12,70.39,80.15Z" transform="translate(-28.47 -2.24)"/><path class="cls-1" d="M62,28.48l9.65,4.68S63.87,42,63.79,42s-3.68-2.76-3.68-2.76L61,29.87Z" transform="translate(-28.47 -2.24)"/><path class="cls-1" d="M29.49,92.92l9.82,4.77s2-2,2.16-2.85.81-8.55.81-8.55l-6.05-1.48Z" transform="translate(-28.47 -2.24)"/><path class="cls-2" d="M68.05,79.06,38.24,96.3a1.19,1.19,0,0,1-1.34.27c-.57-.32-.95-1.28-.95-2.69V56.43c0-2.35,1-5.1,2.29-6.12L68.05,32.39a1.19,1.19,0,0,1,1.28-.3c.61.27,1,1.25,1,2.72V72.94C70.34,75.27,69.31,78,68.05,79.06Z" transform="translate(-28.47 -2.24)"/><path class="cls-2" d="M71.76,33.22l-.52,1.23s-1.46.16-1.62.14a8.8,8.8,0,0,1-1.12-1l.23-.93.6-.59Z" transform="translate(-28.47 -2.24)"/><polygon class="cls-2" points="10.91 95.48 11.22 93.29 8.53 92.32 8.53 94.38 10.91 95.48"/><path class="cls-3" d="M70.39,80.15,40.57,97.39c-1.25,1-2.28-.08-2.28-2.42V57.52c0-2.35,1-5.1,2.28-6.12L70.39,33.47c1.26-1,2.28.07,2.28,2.42V74C72.67,76.36,71.65,79.12,70.39,80.15Z" transform="translate(-28.47 -2.24)"/><path class="cls-4" d="M61.65,68.39a11.13,11.13,0,0,1-1.92,4.07,8.92,8.92,0,0,0,.93-2.39,4.8,4.8,0,0,0-.85-4,20.43,20.43,0,0,0-2.48-2.53s-1.76,3.58-2.47,5.38c-1,2.45-1.14,3.93-.84,5.05A2.29,2.29,0,0,0,55,75.24,2.47,2.47,0,0,1,53,73.39c-.39-1.37-.16-3.2,1.1-6.24.91-2.21,3.23-6.81,3.23-6.81s.55.45,1.22,1a17.26,17.26,0,0,1,2,2A5.65,5.65,0,0,1,61.65,68.39Z" transform="translate(-28.47 -2.24)"/><polygon class="cls-5" points="29.21 66.31 29.49 71.59 28.93 71.91 29.21 66.31"/><path class="cls-4" d="M63.29,67.33a14.38,14.38,0,0,1-1.46,3.78,12.82,12.82,0,0,0,.92-2.63,7.11,7.11,0,0,0-1.36-6.28A27.48,27.48,0,0,0,58,58.91l-.7-.58s-2.9,5.74-4,8.56c-1.54,3.82-1.84,6.11-1.36,7.84a3.56,3.56,0,0,0,.93,1.56,3.71,3.71,0,0,1-1.46-2.09c-.56-1.89-.22-4.42,1.49-8.62,1.26-3.09,4.46-9.4,4.46-9.4s.63.52,1.44,1.24a24.7,24.7,0,0,1,3,3A7.79,7.79,0,0,1,63.29,67.33Z" transform="translate(-28.47 -2.24)"/><path class="cls-6" d="M52.21,16.32a.9.9,0,0,0-.55-.76h0a.75.75,0,0,1-.4-.67V3.21a.94.94,0,0,0-.86-1,.89.89,0,0,0-.94.86V14.89a.74.74,0,0,1-.4.66h0a.92.92,0,0,0-.56.77v23a.93.93,0,0,0,.56.76,2.88,2.88,0,0,0,2.62,0,.91.91,0,0,0,.56-.76v-23Z" transform="translate(-28.47 -2.24)"/><ellipse class="cls-1" cx="41.52" cy="54.27" rx="1.89" ry="1.32" transform="translate(-54.71 60.86) rotate(-60)"/><ellipse class="cls-1" cx="70.13" cy="76.36" rx="1.89" ry="1.32" transform="translate(-55.01 111.6) rotate(-68.62)"/><ellipse class="cls-1" cx="70.61" cy="36.2" rx="1.89" ry="1.32" transform="translate(-17.31 86.52) rotate(-68.62)"/><ellipse class="cls-1" cx="41.15" cy="93.96" rx="1.89" ry="1.32" transform="matrix(0.36, -0.93, 0.93, 0.36, -89.82, 95.79)"/></svg>