<svg id="Camada_1" data-name="Camada 1" xmlns="http://www.w3.org/2000/svg" viewBox="0 0 106.02 155"><defs><style>.cls-1{fill:#d6ceb9;}.cls-2{fill:#e8e4d9;}.cls-3,.cls-5{fill:#1c1c1c;}.cls-4{fill:#303030;}.cls-5{fill-rule:evenodd;}</style></defs><path class="cls-1" d="M88.35,44.28V94.45A4.77,4.77,0,0,1,86,98.59L7.18,144.08A4.79,4.79,0,0,1,0,139.93V89.77a4.77,4.77,0,0,1,2.39-4.14L81.17,40.14A4.79,4.79,0,0,1,88.35,44.28Z"/><path class="cls-1" d="M88.41,44.32V94.48A4.79,4.79,0,0,1,86,98.63L7.24,144.11A4.79,4.79,0,0,1,.06,140V89.8a4.78,4.78,0,0,1,2.39-4.14L81.23,40.17A4.79,4.79,0,0,1,88.41,44.32Z"/><path class="cls-1" d="M88.47,44.35V94.52a4.78,4.78,0,0,1-2.4,4.14L7.29,144.15A4.78,4.78,0,0,1,.12,140V89.84a4.8,4.8,0,0,1,2.39-4.15L81.29,40.21A4.79,4.79,0,0,1,88.47,44.35Z"/><path class="cls-1" d="M88.52,44.39V94.55a4.77,4.77,0,0,1-2.39,4.14L7.35,144.18A4.78,4.78,0,0,1,.18,140V89.87a4.77,4.77,0,0,1,2.39-4.14L81.35,40.24A4.78,4.78,0,0,1,88.52,44.39Z"/><path class="cls-1" d="M88.58,44.42V94.58a4.8,4.8,0,0,1-2.39,4.15L7.41,144.21a4.78,4.78,0,0,1-7.18-4.14V89.91a4.81,4.81,0,0,1,2.4-4.15L81.41,40.28A4.78,4.78,0,0,1,88.58,44.42Z"/><path class="cls-1" d="M88.64,44.45V94.62a4.77,4.77,0,0,1-2.39,4.14L7.47,144.25a4.79,4.79,0,0,1-7.18-4.14V89.94a4.78,4.78,0,0,1,2.4-4.14L81.46,40.31A4.79,4.79,0,0,1,88.64,44.45Z"/><path class="cls-1" d="M88.7,44.49V94.65a4.8,4.8,0,0,1-2.39,4.15L7.53,144.28a4.78,4.78,0,0,1-7.18-4.14V90a4.8,4.8,0,0,1,2.39-4.14L81.52,40.34A4.79,4.79,0,0,1,88.7,44.49Z"/><path class="cls-1" d="M88.76,44.52V94.69a4.77,4.77,0,0,1-2.39,4.14L7.59,144.32a4.79,4.79,0,0,1-7.18-4.15V90A4.77,4.77,0,0,1,2.8,85.87L81.58,40.38A4.79,4.79,0,0,1,88.76,44.52Z"/><path class="cls-1" d="M88.82,44.56V94.72a4.77,4.77,0,0,1-2.39,4.14L7.65,144.35a4.79,4.79,0,0,1-7.18-4.14V90A4.77,4.77,0,0,1,2.86,85.9L81.64,40.41A4.79,4.79,0,0,1,88.82,44.56Z"/><path class="cls-1" d="M88.88,44.59V94.76a4.8,4.8,0,0,1-2.4,4.14L7.71,144.39a4.79,4.79,0,0,1-7.18-4.15V90.08a4.8,4.8,0,0,1,2.39-4.15L81.7,40.45A4.78,4.78,0,0,1,88.88,44.59Z"/><path class="cls-1" d="M88.94,44.62V94.79a4.78,4.78,0,0,1-2.4,4.14L7.76,144.42a4.78,4.78,0,0,1-7.17-4.14V90.11A4.77,4.77,0,0,1,3,86L81.76,40.48A4.79,4.79,0,0,1,88.94,44.62Z"/><path class="cls-1" d="M89,44.66V94.82A4.8,4.8,0,0,1,86.6,99L7.82,144.45a4.78,4.78,0,0,1-7.17-4.14V90.15A4.8,4.8,0,0,1,3,86L81.82,40.52A4.78,4.78,0,0,1,89,44.66Z"/><path class="cls-1" d="M89.05,44.69V94.86A4.77,4.77,0,0,1,86.66,99L7.88,144.49A4.79,4.79,0,0,1,.7,140.34V90.18A4.78,4.78,0,0,1,3.1,86L81.88,40.55A4.78,4.78,0,0,1,89.05,44.69Z"/><path class="cls-1" d="M89.11,44.73V94.89A4.8,4.8,0,0,1,86.72,99L7.94,144.52a4.79,4.79,0,0,1-7.18-4.14V90.21a4.78,4.78,0,0,1,2.4-4.14L81.93,40.58A4.79,4.79,0,0,1,89.11,44.73Z"/><path class="cls-1" d="M89.17,44.76V94.93a4.78,4.78,0,0,1-2.39,4.14L8,144.56a4.79,4.79,0,0,1-7.18-4.15V90.25A4.8,4.8,0,0,1,3.21,86.1L82,40.62A4.79,4.79,0,0,1,89.17,44.76Z"/><path class="cls-1" d="M89.23,44.8V95a4.77,4.77,0,0,1-2.39,4.14L8.06,144.59a4.79,4.79,0,0,1-7.18-4.14V90.28a4.77,4.77,0,0,1,2.39-4.14L82.05,40.65A4.79,4.79,0,0,1,89.23,44.8Z"/><path class="cls-1" d="M89.29,44.83V95a4.8,4.8,0,0,1-2.39,4.15L8.12,144.62a4.78,4.78,0,0,1-7.18-4.14V90.32a4.8,4.8,0,0,1,2.39-4.15L82.11,40.69A4.78,4.78,0,0,1,89.29,44.83Z"/><path class="cls-1" d="M89.35,44.86V95A4.78,4.78,0,0,1,87,99.17L8.18,144.66A4.79,4.79,0,0,1,1,140.51V90.35a4.77,4.77,0,0,1,2.39-4.14L82.17,40.72A4.79,4.79,0,0,1,89.35,44.86Z"/><path class="cls-1" d="M89.41,44.9V95.06A4.81,4.81,0,0,1,87,99.21L8.23,144.69a4.78,4.78,0,0,1-7.17-4.14V90.38a4.8,4.8,0,0,1,2.39-4.14L82.23,40.75A4.79,4.79,0,0,1,89.41,44.9Z"/><path class="cls-1" d="M89.46,44.93V95.1a4.77,4.77,0,0,1-2.39,4.14L8.29,144.73a4.78,4.78,0,0,1-7.17-4.15V90.42a4.8,4.8,0,0,1,2.39-4.15L82.29,40.79A4.78,4.78,0,0,1,89.46,44.93Z"/><path class="cls-1" d="M89.52,45V95.13a4.77,4.77,0,0,1-2.39,4.14L8.35,144.76a4.79,4.79,0,0,1-7.18-4.14V90.45a4.78,4.78,0,0,1,2.4-4.14L82.35,40.82A4.78,4.78,0,0,1,89.52,45Z"/><path class="cls-1" d="M89.58,45V95.16a4.8,4.8,0,0,1-2.39,4.15L8.41,144.8a4.79,4.79,0,0,1-7.18-4.15V90.49a4.8,4.8,0,0,1,2.39-4.15L82.4,40.86A4.78,4.78,0,0,1,89.58,45Z"/><path class="cls-1" d="M89.64,45V95.2a4.77,4.77,0,0,1-2.39,4.14L8.47,144.83a4.79,4.79,0,0,1-7.18-4.14V90.52a4.77,4.77,0,0,1,2.39-4.14L82.46,40.89A4.79,4.79,0,0,1,89.64,45Z"/><path class="cls-1" d="M89.7,45.07V95.23a4.8,4.8,0,0,1-2.39,4.15L8.53,144.86a4.78,4.78,0,0,1-7.18-4.14V90.56a4.8,4.8,0,0,1,2.39-4.15L82.52,40.92A4.79,4.79,0,0,1,89.7,45.07Z"/><path class="cls-1" d="M89.76,45.1V95.27a4.77,4.77,0,0,1-2.39,4.14L8.59,144.9a4.79,4.79,0,0,1-7.18-4.15V90.59A4.77,4.77,0,0,1,3.8,86.45L82.58,41A4.79,4.79,0,0,1,89.76,45.1Z"/><path class="cls-1" d="M89.82,45.14V95.3a4.78,4.78,0,0,1-2.4,4.14L8.64,144.93a4.78,4.78,0,0,1-7.17-4.14V90.62a4.77,4.77,0,0,1,2.39-4.14L82.64,41A4.79,4.79,0,0,1,89.82,45.14Z"/><path class="cls-1" d="M89.87,45.17V95.34a4.8,4.8,0,0,1-2.39,4.14L8.7,145a4.78,4.78,0,0,1-7.17-4.15V90.66a4.8,4.8,0,0,1,2.39-4.15L82.7,41A4.78,4.78,0,0,1,89.87,45.17Z"/><path class="cls-1" d="M89.93,45.2V95.37a4.77,4.77,0,0,1-2.39,4.14L8.76,145a4.79,4.79,0,0,1-7.18-4.14V90.69A4.78,4.78,0,0,1,4,86.55L82.76,41.06A4.78,4.78,0,0,1,89.93,45.2Z"/><path class="cls-1" d="M90,45.24V95.4a4.8,4.8,0,0,1-2.39,4.15L8.82,145a4.78,4.78,0,0,1-7.18-4.14V90.73A4.81,4.81,0,0,1,4,86.58L82.81,41.1A4.78,4.78,0,0,1,90,45.24Z"/><path class="cls-1" d="M90.05,45.27V95.44a4.77,4.77,0,0,1-2.39,4.14L8.88,145.07a4.79,4.79,0,0,1-7.18-4.15V90.76a4.77,4.77,0,0,1,2.39-4.14L82.87,41.13A4.79,4.79,0,0,1,90.05,45.27Z"/><path class="cls-1" d="M90.11,45.31V95.47a4.8,4.8,0,0,1-2.39,4.15L8.94,145.1A4.79,4.79,0,0,1,1.76,141V90.79a4.78,4.78,0,0,1,2.39-4.14L82.93,41.16A4.79,4.79,0,0,1,90.11,45.31Z"/><path class="cls-1" d="M90.17,45.34V95.51a4.78,4.78,0,0,1-2.39,4.14L9,145.14A4.79,4.79,0,0,1,1.82,141V90.83a4.8,4.8,0,0,1,2.39-4.15L83,41.2A4.79,4.79,0,0,1,90.17,45.34Z"/><path class="cls-1" d="M90.23,45.38V95.54a4.78,4.78,0,0,1-2.4,4.14L9.06,145.17A4.79,4.79,0,0,1,1.88,141V90.86a4.77,4.77,0,0,1,2.39-4.14L83.05,41.23A4.79,4.79,0,0,1,90.23,45.38Z"/><path class="cls-1" d="M90.29,45.41V95.57a4.81,4.81,0,0,1-2.4,4.15L9.11,145.2a4.78,4.78,0,0,1-7.17-4.14V90.9a4.8,4.8,0,0,1,2.39-4.15L83.11,41.27A4.78,4.78,0,0,1,90.29,45.41Z"/><path class="cls-1" d="M90.34,45.44V95.61A4.77,4.77,0,0,1,88,99.75L9.17,145.24A4.78,4.78,0,0,1,2,141.1V90.93a4.77,4.77,0,0,1,2.39-4.14L83.17,41.3A4.78,4.78,0,0,1,90.34,45.44Z"/><path class="cls-1" d="M90.4,45.48V95.64A4.8,4.8,0,0,1,88,99.79L9.23,145.27a4.79,4.79,0,0,1-7.18-4.14V91a4.8,4.8,0,0,1,2.4-4.14L83.23,41.33A4.78,4.78,0,0,1,90.4,45.48Z"/><path class="cls-1" d="M90.46,45.51V95.68a4.77,4.77,0,0,1-2.39,4.14L9.29,145.31a4.79,4.79,0,0,1-7.18-4.15V91a4.78,4.78,0,0,1,2.4-4.14L83.28,41.37A4.79,4.79,0,0,1,90.46,45.51Z"/><path class="cls-1" d="M90.52,45.55V95.71a4.77,4.77,0,0,1-2.39,4.14L9.35,145.34a4.79,4.79,0,0,1-7.18-4.14V91a4.77,4.77,0,0,1,2.39-4.14L83.34,41.4A4.79,4.79,0,0,1,90.52,45.55Z"/><path class="cls-1" d="M90.58,45.58V95.74a4.8,4.8,0,0,1-2.39,4.15L9.41,145.38a4.79,4.79,0,0,1-7.18-4.15V91.07a4.8,4.8,0,0,1,2.39-4.15L83.4,41.44A4.78,4.78,0,0,1,90.58,45.58Z"/><path class="cls-1" d="M90.64,45.61V95.78a4.77,4.77,0,0,1-2.39,4.14L9.47,145.41a4.79,4.79,0,0,1-7.18-4.14V91.1A4.77,4.77,0,0,1,4.68,87L83.46,41.47A4.79,4.79,0,0,1,90.64,45.61Z"/><path class="cls-1" d="M90.7,45.65V95.81A4.81,4.81,0,0,1,88.3,100L9.53,145.44a4.78,4.78,0,0,1-7.18-4.14V91.14A4.8,4.8,0,0,1,4.74,87L83.52,41.5A4.79,4.79,0,0,1,90.7,45.65Z"/><path class="cls-1" d="M90.76,45.68V95.85a4.78,4.78,0,0,1-2.4,4.14L9.58,145.48a4.78,4.78,0,0,1-7.17-4.15V91.17A4.77,4.77,0,0,1,4.8,87L83.58,41.54A4.79,4.79,0,0,1,90.76,45.68Z"/><path class="cls-1" d="M90.81,45.72V95.88A4.77,4.77,0,0,1,88.42,100L9.64,145.51a4.78,4.78,0,0,1-7.17-4.14V91.2a4.77,4.77,0,0,1,2.39-4.14L83.64,41.57A4.78,4.78,0,0,1,90.81,45.72Z"/><path class="cls-1" d="M90.87,45.75V95.92a4.8,4.8,0,0,1-2.39,4.14L9.7,145.55a4.79,4.79,0,0,1-7.18-4.15V91.24a4.81,4.81,0,0,1,2.4-4.15L83.7,41.61A4.78,4.78,0,0,1,90.87,45.75Z"/><path class="cls-1" d="M90.93,45.78V96a4.77,4.77,0,0,1-2.39,4.14L9.76,145.58a4.79,4.79,0,0,1-7.18-4.14V91.27A4.76,4.76,0,0,1,5,87.13L83.75,41.64A4.79,4.79,0,0,1,90.93,45.78Z"/><path class="cls-1" d="M91,45.82V96a4.8,4.8,0,0,1-2.39,4.15L9.82,145.61a4.78,4.78,0,0,1-7.18-4.14V91.31A4.8,4.8,0,0,1,5,87.16L83.81,41.68A4.78,4.78,0,0,1,91,45.82Z"/><path class="cls-1" d="M91.05,45.85V96a4.77,4.77,0,0,1-2.39,4.14L9.88,145.65A4.79,4.79,0,0,1,2.7,141.5V91.34A4.77,4.77,0,0,1,5.09,87.2L83.87,41.71A4.79,4.79,0,0,1,91.05,45.85Z"/><path class="cls-1" d="M91.11,45.89V96.05a4.8,4.8,0,0,1-2.39,4.15L9.94,145.68a4.79,4.79,0,0,1-7.18-4.14V91.37a4.78,4.78,0,0,1,2.39-4.14L83.93,41.74A4.79,4.79,0,0,1,91.11,45.89Z"/><path class="cls-1" d="M91.17,45.92V96.09a4.78,4.78,0,0,1-2.4,4.14L10,145.72a4.79,4.79,0,0,1-7.18-4.15V91.41a4.8,4.8,0,0,1,2.39-4.15L84,41.78A4.79,4.79,0,0,1,91.17,45.92Z"/><path class="cls-1" d="M91.22,46V96.12a4.77,4.77,0,0,1-2.39,4.14L10.05,145.75a4.78,4.78,0,0,1-7.17-4.14V91.44A4.77,4.77,0,0,1,5.27,87.3L84.05,41.81A4.78,4.78,0,0,1,91.22,46Z"/><path class="cls-1" d="M91.28,46V96.15a4.8,4.8,0,0,1-2.39,4.15L10.11,145.78a4.78,4.78,0,0,1-7.17-4.14V91.48a4.8,4.8,0,0,1,2.39-4.15L84.11,41.85A4.78,4.78,0,0,1,91.28,46Z"/><path class="cls-1" d="M91.34,46V96.19A4.77,4.77,0,0,1,89,100.33L10.17,145.82A4.79,4.79,0,0,1,3,141.68V91.51a4.78,4.78,0,0,1,2.4-4.14L84.16,41.88A4.79,4.79,0,0,1,91.34,46Z"/><path class="cls-1" d="M91.4,46.06V96.22A4.8,4.8,0,0,1,89,100.37L10.23,145.85a4.78,4.78,0,0,1-7.18-4.14V91.54A4.8,4.8,0,0,1,5.44,87.4L84.22,41.91A4.79,4.79,0,0,1,91.4,46.06Z"/><path class="cls-1" d="M91.46,46.09V96.26a4.77,4.77,0,0,1-2.39,4.14L10.29,145.89a4.79,4.79,0,0,1-7.18-4.15V91.58A4.77,4.77,0,0,1,5.5,87.44L84.28,42A4.79,4.79,0,0,1,91.46,46.09Z"/><path class="cls-1" d="M91.52,46.13V96.29a4.77,4.77,0,0,1-2.39,4.14L10.35,145.92a4.79,4.79,0,0,1-7.18-4.14V91.61a4.77,4.77,0,0,1,2.39-4.14L84.34,42A4.79,4.79,0,0,1,91.52,46.13Z"/><path class="cls-1" d="M91.58,46.16V96.33a4.78,4.78,0,0,1-2.4,4.14L10.41,146a4.79,4.79,0,0,1-7.18-4.15V91.65A4.8,4.8,0,0,1,5.62,87.5L84.4,42A4.78,4.78,0,0,1,91.58,46.16Z"/><path class="cls-1" d="M91.64,46.19V96.36a4.78,4.78,0,0,1-2.4,4.14L10.46,146a4.78,4.78,0,0,1-7.17-4.14V91.68a4.77,4.77,0,0,1,2.39-4.14L84.46,42.05A4.79,4.79,0,0,1,91.64,46.19Z"/><path class="cls-1" d="M91.69,46.23V96.39a4.8,4.8,0,0,1-2.39,4.15L10.52,146a4.78,4.78,0,0,1-7.17-4.14V91.72a4.8,4.8,0,0,1,2.39-4.15L84.52,42.09A4.78,4.78,0,0,1,91.69,46.23Z"/><path class="cls-1" d="M91.75,46.26V96.43a4.77,4.77,0,0,1-2.39,4.14L10.58,146.06a4.79,4.79,0,0,1-7.18-4.15V91.75a4.78,4.78,0,0,1,2.4-4.14L84.58,42.12A4.78,4.78,0,0,1,91.75,46.26Z"/><path class="cls-1" d="M91.81,46.3V96.46a4.8,4.8,0,0,1-2.39,4.15L10.64,146.09A4.79,4.79,0,0,1,3.46,142V91.78a4.78,4.78,0,0,1,2.4-4.14L84.63,42.15A4.79,4.79,0,0,1,91.81,46.3Z"/><path class="cls-1" d="M91.87,46.33V96.5a4.78,4.78,0,0,1-2.39,4.14L10.7,146.13A4.79,4.79,0,0,1,3.52,142V91.82a4.8,4.8,0,0,1,2.39-4.15L84.69,42.19A4.79,4.79,0,0,1,91.87,46.33Z"/><path class="cls-1" d="M91.93,46.37V96.53a4.77,4.77,0,0,1-2.39,4.14L10.76,146.16A4.79,4.79,0,0,1,3.58,142V91.85A4.77,4.77,0,0,1,6,87.71L84.75,42.22A4.79,4.79,0,0,1,91.93,46.37Z"/><path class="cls-1" d="M92,46.4V96.56a4.8,4.8,0,0,1-2.39,4.15L10.82,146.19a4.78,4.78,0,0,1-7.18-4.14V91.89A4.8,4.8,0,0,1,6,87.74L84.81,42.26A4.78,4.78,0,0,1,92,46.4Z"/><path class="cls-1" d="M92.05,46.43V96.6a4.78,4.78,0,0,1-2.4,4.14L10.88,146.23a4.79,4.79,0,0,1-7.18-4.14V91.92a4.77,4.77,0,0,1,2.39-4.14L84.87,42.29A4.79,4.79,0,0,1,92.05,46.43Z"/><path class="cls-1" d="M92.11,46.47V96.63a4.81,4.81,0,0,1-2.4,4.15L10.93,146.26a4.78,4.78,0,0,1-7.17-4.14V92a4.8,4.8,0,0,1,2.39-4.14L84.93,42.32A4.79,4.79,0,0,1,92.11,46.47Z"/><path class="cls-1" d="M92.16,46.5V96.67a4.77,4.77,0,0,1-2.39,4.14L11,146.3a4.78,4.78,0,0,1-7.17-4.15V92a4.8,4.8,0,0,1,2.39-4.15L85,42.36A4.78,4.78,0,0,1,92.16,46.5Z"/><path class="cls-1" d="M92.22,46.54V96.7a4.77,4.77,0,0,1-2.39,4.14L11.05,146.33a4.79,4.79,0,0,1-7.18-4.14V92a4.78,4.78,0,0,1,2.4-4.14L85.05,42.39A4.78,4.78,0,0,1,92.22,46.54Z"/><path class="cls-1" d="M92.28,46.57V96.73a4.8,4.8,0,0,1-2.39,4.15L11.11,146.37a4.79,4.79,0,0,1-7.18-4.15V92.06a4.81,4.81,0,0,1,2.4-4.15L85.1,42.43A4.78,4.78,0,0,1,92.28,46.57Z"/><path class="cls-1" d="M92.34,46.6V96.77A4.77,4.77,0,0,1,90,100.91L11.17,146.4A4.79,4.79,0,0,1,4,142.26V92.09A4.77,4.77,0,0,1,6.38,88L85.16,42.46A4.79,4.79,0,0,1,92.34,46.6Z"/><path class="cls-1" d="M92.4,46.64V96.8A4.8,4.8,0,0,1,90,101L11.23,146.43a4.78,4.78,0,0,1-7.18-4.14V92.13A4.8,4.8,0,0,1,6.44,88L85.22,42.49A4.79,4.79,0,0,1,92.4,46.64Z"/><path class="cls-1" d="M92.46,46.67V96.84A4.77,4.77,0,0,1,90.07,101L11.29,146.47a4.79,4.79,0,0,1-7.18-4.15V92.16A4.77,4.77,0,0,1,6.5,88L85.28,42.53A4.79,4.79,0,0,1,92.46,46.67Z"/><path class="cls-1" d="M92.52,46.71V96.87a4.78,4.78,0,0,1-2.4,4.14L11.35,146.5a4.79,4.79,0,0,1-7.18-4.14V92.19a4.77,4.77,0,0,1,2.39-4.14L85.34,42.56A4.79,4.79,0,0,1,92.52,46.71Z"/><path class="cls-1" d="M92.58,46.74V96.91a4.8,4.8,0,0,1-2.4,4.14L11.4,146.54a4.78,4.78,0,0,1-7.17-4.15V92.23a4.8,4.8,0,0,1,2.39-4.15L85.4,42.6A4.79,4.79,0,0,1,92.58,46.74Z"/><path class="cls-1" d="M92.63,46.77V96.94a4.77,4.77,0,0,1-2.39,4.14L11.46,146.57a4.78,4.78,0,0,1-7.17-4.14V92.26a4.77,4.77,0,0,1,2.39-4.14L85.46,42.63A4.78,4.78,0,0,1,92.63,46.77Z"/><path class="cls-1" d="M92.69,46.81V97a4.8,4.8,0,0,1-2.39,4.15L11.52,146.6a4.78,4.78,0,0,1-7.18-4.14V92.3a4.81,4.81,0,0,1,2.4-4.15L85.52,42.67A4.78,4.78,0,0,1,92.69,46.81Z"/><path class="cls-1" d="M92.75,46.84V97a4.77,4.77,0,0,1-2.39,4.14L11.58,146.64a4.79,4.79,0,0,1-7.18-4.15V92.33a4.77,4.77,0,0,1,2.39-4.14L85.57,42.7A4.79,4.79,0,0,1,92.75,46.84Z"/><path class="cls-1" d="M92.81,46.88V97a4.8,4.8,0,0,1-2.39,4.15L11.64,146.67a4.79,4.79,0,0,1-7.18-4.14V92.36a4.78,4.78,0,0,1,2.39-4.14L85.63,42.73A4.79,4.79,0,0,1,92.81,46.88Z"/><path class="cls-1" d="M92.87,46.91V97.08a4.78,4.78,0,0,1-2.39,4.14L11.7,146.71a4.79,4.79,0,0,1-7.18-4.15V92.4a4.8,4.8,0,0,1,2.39-4.15L85.69,42.77A4.79,4.79,0,0,1,92.87,46.91Z"/><path class="cls-1" d="M92.93,47V97.11a4.77,4.77,0,0,1-2.39,4.14L11.76,146.74a4.79,4.79,0,0,1-7.18-4.14V92.43A4.77,4.77,0,0,1,7,88.29L85.75,42.8A4.79,4.79,0,0,1,92.93,47Z"/><path class="cls-1" d="M93,47V97.14a4.81,4.81,0,0,1-2.4,4.15L11.81,146.77a4.78,4.78,0,0,1-7.17-4.14V92.47A4.8,4.8,0,0,1,7,88.32L85.81,42.84A4.78,4.78,0,0,1,93,47Z"/><path class="cls-1" d="M93,47V97.18a4.77,4.77,0,0,1-2.39,4.14L11.87,146.81a4.78,4.78,0,0,1-7.17-4.14V92.5a4.77,4.77,0,0,1,2.39-4.14L85.87,42.87A4.78,4.78,0,0,1,93,47Z"/><path class="cls-1" d="M93.1,47.05V97.21a4.8,4.8,0,0,1-2.39,4.15L11.93,146.84a4.79,4.79,0,0,1-7.18-4.14V92.53a4.8,4.8,0,0,1,2.4-4.14L85.93,42.9A4.78,4.78,0,0,1,93.1,47.05Z"/><path class="cls-1" d="M93.16,47.08V97.25a4.77,4.77,0,0,1-2.39,4.14L12,146.88a4.79,4.79,0,0,1-7.18-4.15V92.57a4.78,4.78,0,0,1,2.4-4.14L86,42.94A4.79,4.79,0,0,1,93.16,47.08Z"/><path class="cls-1" d="M93.22,47.12V97.28a4.77,4.77,0,0,1-2.39,4.14L12.05,146.91a4.79,4.79,0,0,1-7.18-4.14V92.6a4.77,4.77,0,0,1,2.39-4.14L86,43A4.79,4.79,0,0,1,93.22,47.12Z"/><path class="cls-1" d="M93.28,47.15V97.31a4.8,4.8,0,0,1-2.39,4.15L12.11,147a4.79,4.79,0,0,1-7.18-4.15V92.64a4.8,4.8,0,0,1,2.39-4.15L86.1,43A4.78,4.78,0,0,1,93.28,47.15Z"/><path class="cls-1" d="M93.34,47.18V97.35A4.77,4.77,0,0,1,91,101.49L12.17,147A4.79,4.79,0,0,1,5,142.84V92.67a4.77,4.77,0,0,1,2.39-4.14L86.16,43A4.79,4.79,0,0,1,93.34,47.18Z"/><path class="cls-1" d="M93.4,47.22V97.38a4.81,4.81,0,0,1-2.4,4.15L12.23,147a4.78,4.78,0,0,1-7.18-4.14V92.71a4.8,4.8,0,0,1,2.39-4.15L86.22,43.07A4.79,4.79,0,0,1,93.4,47.22Z"/><path class="cls-1" d="M93.46,47.25V97.42a4.78,4.78,0,0,1-2.4,4.14L12.28,147.05a4.78,4.78,0,0,1-7.17-4.15V92.74A4.77,4.77,0,0,1,7.5,88.6L86.28,43.11A4.79,4.79,0,0,1,93.46,47.25Z"/><path class="cls-1" d="M93.51,47.29V97.45a4.77,4.77,0,0,1-2.39,4.14L12.34,147.08a4.78,4.78,0,0,1-7.17-4.14V92.77a4.77,4.77,0,0,1,2.39-4.14L86.34,43.14A4.78,4.78,0,0,1,93.51,47.29Z"/><path class="cls-1" d="M93.57,47.32V97.49a4.8,4.8,0,0,1-2.39,4.14L12.4,147.12A4.79,4.79,0,0,1,5.22,143V92.81a4.81,4.81,0,0,1,2.4-4.15L86.4,43.18A4.78,4.78,0,0,1,93.57,47.32Z"/><path class="cls-1" d="M93.63,47.35V97.52a4.77,4.77,0,0,1-2.39,4.14L12.46,147.15A4.79,4.79,0,0,1,5.28,143V92.84a4.78,4.78,0,0,1,2.4-4.14L86.45,43.21A4.79,4.79,0,0,1,93.63,47.35Z"/><path class="cls-1" d="M93.69,47.39V97.55a4.8,4.8,0,0,1-2.39,4.15L12.52,147.18A4.78,4.78,0,0,1,5.34,143V92.88a4.8,4.8,0,0,1,2.39-4.15L86.51,43.25A4.78,4.78,0,0,1,93.69,47.39Z"/><path class="cls-1" d="M93.75,47.42V97.59a4.77,4.77,0,0,1-2.39,4.14L12.58,147.22a4.79,4.79,0,0,1-7.18-4.15V92.91a4.77,4.77,0,0,1,2.39-4.14L86.57,43.28A4.79,4.79,0,0,1,93.75,47.42Z"/><path class="cls-1" d="M93.81,47.46V97.62a4.8,4.8,0,0,1-2.39,4.15L12.64,147.25a4.79,4.79,0,0,1-7.18-4.14V92.94A4.78,4.78,0,0,1,7.85,88.8L86.63,43.31A4.79,4.79,0,0,1,93.81,47.46Z"/><path class="cls-1" d="M93.87,47.49V97.66a4.78,4.78,0,0,1-2.4,4.14L12.7,147.29a4.79,4.79,0,0,1-7.18-4.15V93a4.8,4.8,0,0,1,2.39-4.15L86.69,43.35A4.79,4.79,0,0,1,93.87,47.49Z"/><path class="cls-1" d="M93.93,47.53V97.69a4.78,4.78,0,0,1-2.4,4.14L12.75,147.32a4.78,4.78,0,0,1-7.17-4.14V93A4.77,4.77,0,0,1,8,88.87L86.75,43.38A4.79,4.79,0,0,1,93.93,47.53Z"/><path class="cls-1" d="M94,47.56V97.72a4.8,4.8,0,0,1-2.39,4.15L12.81,147.35a4.78,4.78,0,0,1-7.17-4.14V93.05A4.8,4.8,0,0,1,8,88.9L86.81,43.42A4.78,4.78,0,0,1,94,47.56Z"/><path class="cls-1" d="M94,47.59V97.76a4.77,4.77,0,0,1-2.39,4.14L12.87,147.39a4.79,4.79,0,0,1-7.18-4.14V93.08a4.78,4.78,0,0,1,2.4-4.14L86.87,43.45A4.78,4.78,0,0,1,94,47.59Z"/><path class="cls-1" d="M94.1,47.63V97.79a4.8,4.8,0,0,1-2.39,4.15L12.93,147.42a4.78,4.78,0,0,1-7.18-4.14V93.11A4.78,4.78,0,0,1,8.15,89L86.92,43.48A4.79,4.79,0,0,1,94.1,47.63Z"/><path class="cls-1" d="M94.16,47.66V97.83A4.77,4.77,0,0,1,91.77,102L13,147.46a4.79,4.79,0,0,1-7.18-4.15V93.15A4.77,4.77,0,0,1,8.2,89L87,43.52A4.79,4.79,0,0,1,94.16,47.66Z"/><path class="cls-1" d="M94.22,47.7V97.86A4.77,4.77,0,0,1,91.83,102L13.05,147.49a4.79,4.79,0,0,1-7.18-4.14V93.18A4.77,4.77,0,0,1,8.26,89L87,43.55A4.79,4.79,0,0,1,94.22,47.7Z"/><path class="cls-1" d="M94.28,47.73V97.9A4.8,4.8,0,0,1,91.89,102L13.11,147.53a4.79,4.79,0,0,1-7.18-4.15V93.22a4.8,4.8,0,0,1,2.39-4.15L87.1,43.59A4.78,4.78,0,0,1,94.28,47.73Z"/><path class="cls-1" d="M94.34,47.76V97.93a4.78,4.78,0,0,1-2.4,4.14L13.17,147.56A4.79,4.79,0,0,1,6,143.42V93.25a4.77,4.77,0,0,1,2.39-4.14L87.16,43.62A4.79,4.79,0,0,1,94.34,47.76Z"/><path class="cls-1" d="M94.39,47.8V98A4.8,4.8,0,0,1,92,102.11L13.22,147.59a4.78,4.78,0,0,1-7.17-4.14V93.29a4.8,4.8,0,0,1,2.39-4.15L87.22,43.66A4.78,4.78,0,0,1,94.39,47.8Z"/><path class="cls-1" d="M94.45,47.83V98a4.77,4.77,0,0,1-2.39,4.14L13.28,147.63a4.78,4.78,0,0,1-7.17-4.15V93.32A4.77,4.77,0,0,1,8.5,89.18L87.28,43.69A4.78,4.78,0,0,1,94.45,47.83Z"/><path class="cls-1" d="M94.51,47.87V98a4.8,4.8,0,0,1-2.39,4.15L13.34,147.66a4.79,4.79,0,0,1-7.18-4.14V93.35a4.78,4.78,0,0,1,2.4-4.14L87.33,43.72A4.79,4.79,0,0,1,94.51,47.87Z"/><path class="cls-1" d="M94.57,47.9V98.07a4.78,4.78,0,0,1-2.39,4.14L13.4,147.7a4.79,4.79,0,0,1-7.18-4.15V93.39a4.8,4.8,0,0,1,2.39-4.15L87.39,43.76A4.79,4.79,0,0,1,94.57,47.9Z"/><path class="cls-1" d="M94.63,47.94V98.1a4.77,4.77,0,0,1-2.39,4.14L13.46,147.73a4.79,4.79,0,0,1-7.18-4.14V93.42a4.77,4.77,0,0,1,2.39-4.14L87.45,43.79A4.79,4.79,0,0,1,94.63,47.94Z"/><path class="cls-1" d="M94.69,48V98.13a4.8,4.8,0,0,1-2.39,4.15L13.52,147.76a4.78,4.78,0,0,1-7.18-4.14V93.46a4.8,4.8,0,0,1,2.39-4.15L87.51,43.83A4.78,4.78,0,0,1,94.69,48Z"/><path class="cls-1" d="M94.75,48V98.17a4.76,4.76,0,0,1-2.4,4.14L13.58,147.8a4.79,4.79,0,0,1-7.18-4.14V93.49a4.77,4.77,0,0,1,2.39-4.14L87.57,43.86A4.79,4.79,0,0,1,94.75,48Z"/><path class="cls-1" d="M94.81,48V98.2a4.81,4.81,0,0,1-2.4,4.15L13.63,147.83a4.78,4.78,0,0,1-7.17-4.14V93.52a4.8,4.8,0,0,1,2.39-4.14L87.63,43.89A4.79,4.79,0,0,1,94.81,48Z"/><path class="cls-1" d="M94.86,48.07V98.24a4.77,4.77,0,0,1-2.39,4.14L13.69,147.87a4.78,4.78,0,0,1-7.17-4.15V93.56a4.8,4.8,0,0,1,2.39-4.15L87.69,43.93A4.78,4.78,0,0,1,94.86,48.07Z"/><path class="cls-1" d="M94.92,48.11V98.27a4.77,4.77,0,0,1-2.39,4.14L13.75,147.9a4.79,4.79,0,0,1-7.18-4.14V93.59A4.78,4.78,0,0,1,9,89.45L87.75,44A4.78,4.78,0,0,1,94.92,48.11Z"/><path class="cls-1" d="M95,48.14V98.3a4.8,4.8,0,0,1-2.39,4.15L13.81,147.94a4.79,4.79,0,0,1-7.18-4.15V93.63A4.81,4.81,0,0,1,9,89.48L87.8,44A4.78,4.78,0,0,1,95,48.14Z"/><path class="cls-1" d="M95,48.17V98.34a4.77,4.77,0,0,1-2.39,4.14L13.87,148a4.79,4.79,0,0,1-7.18-4.14V93.66a4.77,4.77,0,0,1,2.39-4.14L87.86,44A4.79,4.79,0,0,1,95,48.17Z"/><path class="cls-1" d="M95.1,48.21V98.37a4.8,4.8,0,0,1-2.39,4.15L13.93,148a4.78,4.78,0,0,1-7.18-4.14V93.7a4.8,4.8,0,0,1,2.39-4.15L87.92,44.06A4.79,4.79,0,0,1,95.1,48.21Z"/><path class="cls-1" d="M95.16,48.24V98.41a4.77,4.77,0,0,1-2.39,4.14L14,148a4.79,4.79,0,0,1-7.18-4.15V93.73A4.77,4.77,0,0,1,9.2,89.59L88,44.1A4.79,4.79,0,0,1,95.16,48.24Z"/><path class="cls-1" d="M95.22,48.28V98.44a4.78,4.78,0,0,1-2.4,4.14L14.05,148.07a4.79,4.79,0,0,1-7.18-4.14V93.76a4.77,4.77,0,0,1,2.39-4.14L88,44.13A4.79,4.79,0,0,1,95.22,48.28Z"/><path class="cls-1" d="M95.28,48.31V98.48a4.8,4.8,0,0,1-2.4,4.14L14.1,148.11A4.78,4.78,0,0,1,6.93,144V93.8a4.8,4.8,0,0,1,2.39-4.15L88.1,44.17A4.79,4.79,0,0,1,95.28,48.31Z"/><path class="cls-1" d="M95.33,48.34V98.51a4.77,4.77,0,0,1-2.39,4.14L14.16,148.14A4.78,4.78,0,0,1,7,144V93.83a4.77,4.77,0,0,1,2.39-4.14L88.16,44.2A4.78,4.78,0,0,1,95.33,48.34Z"/><path class="cls-1" d="M95.39,48.38V98.54A4.8,4.8,0,0,1,93,102.69L14.22,148.17A4.78,4.78,0,0,1,7,144V93.87a4.81,4.81,0,0,1,2.4-4.15L88.22,44.24A4.78,4.78,0,0,1,95.39,48.38Z"/><path class="cls-1" d="M95.45,48.41V98.58a4.77,4.77,0,0,1-2.39,4.14L14.28,148.21a4.79,4.79,0,0,1-7.18-4.15V93.9a4.76,4.76,0,0,1,2.4-4.14L88.27,44.27A4.79,4.79,0,0,1,95.45,48.41Z"/><path class="cls-1" d="M95.51,48.45V98.61a4.8,4.8,0,0,1-2.39,4.15L14.34,148.24a4.79,4.79,0,0,1-7.18-4.14V93.93a4.78,4.78,0,0,1,2.39-4.14L88.33,44.3A4.79,4.79,0,0,1,95.51,48.45Z"/><path class="cls-1" d="M95.57,48.48V98.65a4.78,4.78,0,0,1-2.39,4.14L14.4,148.28a4.79,4.79,0,0,1-7.18-4.15V94a4.8,4.8,0,0,1,2.39-4.15L88.39,44.34A4.79,4.79,0,0,1,95.57,48.48Z"/><path class="cls-1" d="M95.63,48.52V98.68a4.77,4.77,0,0,1-2.39,4.14L14.46,148.31a4.79,4.79,0,0,1-7.18-4.14V94a4.77,4.77,0,0,1,2.39-4.14L88.45,44.37A4.79,4.79,0,0,1,95.63,48.52Z"/><path class="cls-1" d="M95.69,48.55V98.71a4.81,4.81,0,0,1-2.4,4.15L14.52,148.34a4.78,4.78,0,0,1-7.18-4.14V94a4.8,4.8,0,0,1,2.39-4.15L88.51,44.41A4.78,4.78,0,0,1,95.69,48.55Z"/><path class="cls-1" d="M95.74,48.58V98.75a4.77,4.77,0,0,1-2.39,4.14L14.57,148.38a4.78,4.78,0,0,1-7.17-4.14V94.07a4.77,4.77,0,0,1,2.39-4.14L88.57,44.44A4.78,4.78,0,0,1,95.74,48.58Z"/><path class="cls-1" d="M95.8,48.62V98.78a4.8,4.8,0,0,1-2.39,4.15L14.63,148.41a4.78,4.78,0,0,1-7.17-4.14V94.1A4.8,4.8,0,0,1,9.85,90L88.63,44.47A4.78,4.78,0,0,1,95.8,48.62Z"/><path class="cls-1" d="M95.86,48.65V98.82A4.77,4.77,0,0,1,93.47,103L14.69,148.45a4.79,4.79,0,0,1-7.18-4.15V94.14A4.78,4.78,0,0,1,9.91,90L88.69,44.51A4.78,4.78,0,0,1,95.86,48.65Z"/><path class="cls-1" d="M95.92,48.69V98.85A4.77,4.77,0,0,1,93.53,103L14.75,148.48a4.79,4.79,0,0,1-7.18-4.14V94.17A4.77,4.77,0,0,1,10,90L88.74,44.54A4.79,4.79,0,0,1,95.92,48.69Z"/><path class="cls-1" d="M96,48.72V98.88A4.8,4.8,0,0,1,93.59,103L14.81,148.52a4.79,4.79,0,0,1-7.18-4.15V94.21A4.8,4.8,0,0,1,10,90.06L88.8,44.58A4.78,4.78,0,0,1,96,48.72Z"/><path class="cls-1" d="M96,48.75V98.92a4.77,4.77,0,0,1-2.39,4.14L14.87,148.55a4.79,4.79,0,0,1-7.18-4.14V94.24a4.77,4.77,0,0,1,2.39-4.14L88.86,44.61A4.79,4.79,0,0,1,96,48.75Z"/><path class="cls-1" d="M96.1,48.79V99a4.79,4.79,0,0,1-2.4,4.15L14.93,148.58a4.78,4.78,0,0,1-7.18-4.14V94.28a4.8,4.8,0,0,1,2.39-4.15L88.92,44.64A4.79,4.79,0,0,1,96.1,48.79Z"/><path class="cls-1" d="M96.16,48.82V99a4.78,4.78,0,0,1-2.4,4.14L15,148.62a4.78,4.78,0,0,1-7.17-4.15V94.31a4.77,4.77,0,0,1,2.39-4.14L89,44.68A4.79,4.79,0,0,1,96.16,48.82Z"/><path class="cls-1" d="M96.21,48.86V99a4.8,4.8,0,0,1-2.39,4.15L15,148.65a4.78,4.78,0,0,1-7.17-4.14V94.34a4.77,4.77,0,0,1,2.39-4.14L89,44.71A4.78,4.78,0,0,1,96.21,48.86Z"/><path class="cls-1" d="M96.27,48.89V99.06a4.8,4.8,0,0,1-2.39,4.14L15.1,148.69a4.79,4.79,0,0,1-7.18-4.15V94.38a4.81,4.81,0,0,1,2.4-4.15L89.1,44.75A4.78,4.78,0,0,1,96.27,48.89Z"/><path class="cls-1" d="M96.33,48.92V99.09a4.77,4.77,0,0,1-2.39,4.14L15.16,148.72A4.79,4.79,0,0,1,8,144.58V94.41a4.78,4.78,0,0,1,2.4-4.14L89.15,44.78A4.79,4.79,0,0,1,96.33,48.92Z"/><path class="cls-1" d="M96.39,49V99.12A4.8,4.8,0,0,1,94,103.27L15.22,148.75A4.78,4.78,0,0,1,8,144.61V94.45a4.8,4.8,0,0,1,2.39-4.15L89.21,44.82A4.78,4.78,0,0,1,96.39,49Z"/><path class="cls-1" d="M96.45,49V99.16a4.77,4.77,0,0,1-2.39,4.14L15.28,148.79a4.79,4.79,0,0,1-7.18-4.15V94.48a4.77,4.77,0,0,1,2.39-4.14L89.27,44.85A4.79,4.79,0,0,1,96.45,49Z"/><path class="cls-1" d="M96.51,49V99.19a4.8,4.8,0,0,1-2.39,4.15L15.34,148.82a4.79,4.79,0,0,1-7.18-4.14V94.51a4.78,4.78,0,0,1,2.39-4.14L89.33,44.88A4.79,4.79,0,0,1,96.51,49Z"/><path class="cls-1" d="M96.57,49.06V99.23a4.78,4.78,0,0,1-2.4,4.14L15.4,148.86a4.79,4.79,0,0,1-7.18-4.15V94.55a4.8,4.8,0,0,1,2.39-4.15L89.39,44.92A4.79,4.79,0,0,1,96.57,49.06Z"/><path class="cls-1" d="M96.63,49.1V99.26a4.78,4.78,0,0,1-2.4,4.14L15.45,148.89a4.78,4.78,0,0,1-7.17-4.14V94.58a4.77,4.77,0,0,1,2.39-4.14L89.45,45A4.79,4.79,0,0,1,96.63,49.1Z"/><path class="cls-1" d="M96.68,49.13V99.29a4.8,4.8,0,0,1-2.39,4.15L15.51,148.92a4.78,4.78,0,0,1-7.17-4.14V94.62a4.8,4.8,0,0,1,2.39-4.15L89.51,45A4.78,4.78,0,0,1,96.68,49.13Z"/><path class="cls-1" d="M96.74,49.16V99.33a4.77,4.77,0,0,1-2.39,4.14L15.57,149a4.79,4.79,0,0,1-7.18-4.14V94.65a4.78,4.78,0,0,1,2.4-4.14L89.57,45A4.78,4.78,0,0,1,96.74,49.16Z"/><path class="cls-1" d="M96.8,49.2V99.36a4.8,4.8,0,0,1-2.39,4.15L15.63,149a4.78,4.78,0,0,1-7.18-4.14V94.68a4.8,4.8,0,0,1,2.4-4.14L89.62,45.05A4.79,4.79,0,0,1,96.8,49.2Z"/><path class="cls-1" d="M96.86,49.23V99.4a4.77,4.77,0,0,1-2.39,4.14L15.69,149a4.79,4.79,0,0,1-7.18-4.15V94.72a4.77,4.77,0,0,1,2.39-4.14L89.68,45.09A4.79,4.79,0,0,1,96.86,49.23Z"/><path class="cls-1" d="M96.92,49.27V99.43a4.77,4.77,0,0,1-2.39,4.14L15.75,149.06a4.79,4.79,0,0,1-7.18-4.14V94.75A4.77,4.77,0,0,1,11,90.61L89.74,45.12A4.79,4.79,0,0,1,96.92,49.27Z"/><path class="cls-1" d="M97,49.3V99.47a4.8,4.8,0,0,1-2.39,4.14L15.81,149.1A4.79,4.79,0,0,1,8.63,145V94.79A4.8,4.8,0,0,1,11,90.64L89.8,45.16A4.78,4.78,0,0,1,97,49.3Z"/><path class="cls-1" d="M97,49.33V99.5a4.78,4.78,0,0,1-2.4,4.14L15.87,149.13A4.79,4.79,0,0,1,8.69,145V94.82a4.77,4.77,0,0,1,2.39-4.14L89.86,45.19A4.79,4.79,0,0,1,97,49.33Z"/><path class="cls-1" d="M97.1,49.37V99.53a4.81,4.81,0,0,1-2.4,4.15L15.92,149.16A4.78,4.78,0,0,1,8.75,145V94.86a4.8,4.8,0,0,1,2.39-4.15L89.92,45.23A4.78,4.78,0,0,1,97.1,49.37Z"/><path class="cls-1" d="M97.15,49.4V99.57a4.77,4.77,0,0,1-2.39,4.14L16,149.2a4.78,4.78,0,0,1-7.17-4.15V94.89a4.77,4.77,0,0,1,2.39-4.14L90,45.26A4.78,4.78,0,0,1,97.15,49.4Z"/><path class="cls-1" d="M97.21,49.44V99.6a4.8,4.8,0,0,1-2.39,4.15L16,149.23a4.79,4.79,0,0,1-7.18-4.14V94.92a4.78,4.78,0,0,1,2.4-4.14L90,45.29A4.78,4.78,0,0,1,97.21,49.44Z"/><path class="cls-1" d="M97.27,49.47V99.64a4.78,4.78,0,0,1-2.39,4.14L16.1,149.27a4.79,4.79,0,0,1-7.18-4.15V95a4.79,4.79,0,0,1,2.4-4.15L90.09,45.33A4.79,4.79,0,0,1,97.27,49.47Z"/><path class="cls-1" d="M97.33,49.51V99.67a4.77,4.77,0,0,1-2.39,4.14L16.16,149.3A4.79,4.79,0,0,1,9,145.16V95a4.77,4.77,0,0,1,2.39-4.14L90.15,45.36A4.79,4.79,0,0,1,97.33,49.51Z"/><path class="cls-1" d="M97.39,49.54V99.7A4.8,4.8,0,0,1,95,103.85L16.22,149.33A4.78,4.78,0,0,1,9,145.19V95a4.8,4.8,0,0,1,2.39-4.15L90.21,45.4A4.78,4.78,0,0,1,97.39,49.54Z"/><path class="cls-1" d="M97.45,49.57V99.74a4.77,4.77,0,0,1-2.39,4.14L16.28,149.37a4.79,4.79,0,0,1-7.18-4.14V95.06a4.77,4.77,0,0,1,2.39-4.14L90.27,45.43A4.79,4.79,0,0,1,97.45,49.57Z"/><path class="cls-1" d="M97.51,49.61V99.77a4.81,4.81,0,0,1-2.4,4.15L16.34,149.4a4.79,4.79,0,0,1-7.18-4.14V95.09A4.8,4.8,0,0,1,11.55,91L90.33,45.46A4.79,4.79,0,0,1,97.51,49.61Z"/><path class="cls-1" d="M97.56,49.64V99.81A4.77,4.77,0,0,1,95.17,104L16.39,149.44a4.78,4.78,0,0,1-7.17-4.15V95.13A4.8,4.8,0,0,1,11.61,91L90.39,45.5A4.78,4.78,0,0,1,97.56,49.64Z"/><path class="cls-1" d="M97.62,49.68V99.84A4.77,4.77,0,0,1,95.23,104L16.45,149.47a4.78,4.78,0,0,1-7.17-4.14V95.16A4.77,4.77,0,0,1,11.67,91L90.45,45.53A4.78,4.78,0,0,1,97.62,49.68Z"/><path class="cls-1" d="M97.68,49.71V99.87A4.8,4.8,0,0,1,95.29,104L16.51,149.51a4.79,4.79,0,0,1-7.18-4.15V95.2a4.81,4.81,0,0,1,2.4-4.15L90.5,45.57A4.78,4.78,0,0,1,97.68,49.71Z"/><path class="cls-1" d="M97.74,49.74V99.91a4.77,4.77,0,0,1-2.39,4.14L16.57,149.54a4.79,4.79,0,0,1-7.18-4.14V95.23a4.77,4.77,0,0,1,2.39-4.14L90.56,45.6A4.79,4.79,0,0,1,97.74,49.74Z"/><path class="cls-1" d="M97.8,49.78V99.94a4.8,4.8,0,0,1-2.39,4.15L16.63,149.57a4.78,4.78,0,0,1-7.18-4.14V95.27a4.8,4.8,0,0,1,2.39-4.15L90.62,45.63A4.79,4.79,0,0,1,97.8,49.78Z"/><path class="cls-1" d="M97.86,49.81V100a4.77,4.77,0,0,1-2.39,4.14L16.69,149.61a4.79,4.79,0,0,1-7.18-4.15V95.3a4.77,4.77,0,0,1,2.39-4.14L90.68,45.67A4.79,4.79,0,0,1,97.86,49.81Z"/><path class="cls-1" d="M97.92,49.85V100a4.76,4.76,0,0,1-2.4,4.14L16.75,149.64a4.79,4.79,0,0,1-7.18-4.14V95.33A4.77,4.77,0,0,1,12,91.19L90.74,45.7A4.79,4.79,0,0,1,97.92,49.85Z"/><path class="cls-1" d="M98,49.88v50.17a4.8,4.8,0,0,1-2.4,4.14L16.8,149.68a4.78,4.78,0,0,1-7.17-4.15V95.37A4.8,4.8,0,0,1,12,91.22L90.8,45.74A4.79,4.79,0,0,1,98,49.88Z"/><path class="cls-1" d="M98,49.91v50.17a4.77,4.77,0,0,1-2.39,4.14L16.86,149.71a4.78,4.78,0,0,1-7.17-4.14V95.4a4.77,4.77,0,0,1,2.39-4.14L90.86,45.77A4.78,4.78,0,0,1,98,49.91Z"/><path class="cls-1" d="M98.09,50v50.16a4.8,4.8,0,0,1-2.39,4.15L16.92,149.74a4.78,4.78,0,0,1-7.18-4.14V95.44a4.81,4.81,0,0,1,2.4-4.15L90.92,45.81A4.78,4.78,0,0,1,98.09,50Z"/><path class="cls-1" d="M98.15,50v50.17a4.77,4.77,0,0,1-2.39,4.14L17,149.78a4.79,4.79,0,0,1-7.18-4.15V95.47a4.78,4.78,0,0,1,2.4-4.14L91,45.84A4.79,4.79,0,0,1,98.15,50Z"/><path class="cls-1" d="M98.21,50v50.16a4.8,4.8,0,0,1-2.39,4.15L17,149.81a4.79,4.79,0,0,1-7.18-4.14V95.5a4.78,4.78,0,0,1,2.39-4.14L91,45.87A4.79,4.79,0,0,1,98.21,50Z"/><path class="cls-1" d="M98.27,50.05v50.17a4.78,4.78,0,0,1-2.39,4.14L17.1,149.85a4.79,4.79,0,0,1-7.18-4.15V95.54a4.8,4.8,0,0,1,2.39-4.15L91.09,45.91A4.79,4.79,0,0,1,98.27,50.05Z"/><path class="cls-1" d="M98.33,50.09v50.16a4.77,4.77,0,0,1-2.39,4.14L17.16,149.88A4.79,4.79,0,0,1,10,145.74V95.57a4.77,4.77,0,0,1,2.39-4.14L91.15,45.94A4.79,4.79,0,0,1,98.33,50.09Z"/><path class="cls-1" d="M98.39,50.12v50.16a4.81,4.81,0,0,1-2.4,4.15L17.22,149.91A4.78,4.78,0,0,1,10,145.77V95.61a4.8,4.8,0,0,1,2.39-4.15L91.21,46A4.78,4.78,0,0,1,98.39,50.12Z"/><path class="cls-1" d="M98.45,50.15v50.17a4.78,4.78,0,0,1-2.4,4.14L17.27,150a4.78,4.78,0,0,1-7.17-4.14V95.64a4.77,4.77,0,0,1,2.39-4.14L91.27,46A4.79,4.79,0,0,1,98.45,50.15Z"/><path class="cls-1" d="M98.5,50.19v50.16a4.8,4.8,0,0,1-2.39,4.15L17.33,150a4.78,4.78,0,0,1-7.17-4.14V95.67a4.8,4.8,0,0,1,2.39-4.14L91.33,46A4.78,4.78,0,0,1,98.5,50.19Z"/><path class="cls-1" d="M98.56,50.22v50.17a4.77,4.77,0,0,1-2.39,4.14L17.39,150a4.79,4.79,0,0,1-7.18-4.15V95.71a4.78,4.78,0,0,1,2.4-4.14L91.39,46.08A4.78,4.78,0,0,1,98.56,50.22Z"/><path class="cls-1" d="M98.62,50.26v50.16a4.77,4.77,0,0,1-2.39,4.14L17.45,150.05a4.79,4.79,0,0,1-7.18-4.14V95.74a4.76,4.76,0,0,1,2.4-4.14L91.44,46.11A4.79,4.79,0,0,1,98.62,50.26Z"/><path class="cls-1" d="M98.68,50.29v50.16a4.8,4.8,0,0,1-2.39,4.15L17.51,150.09a4.79,4.79,0,0,1-7.18-4.15V95.78a4.8,4.8,0,0,1,2.39-4.15L91.5,46.15A4.78,4.78,0,0,1,98.68,50.29Z"/><path class="cls-1" d="M98.74,50.32v50.17a4.77,4.77,0,0,1-2.39,4.14L17.57,150.12A4.79,4.79,0,0,1,10.39,146V95.81a4.77,4.77,0,0,1,2.39-4.14L91.56,46.18A4.79,4.79,0,0,1,98.74,50.32Z"/><path class="cls-1" d="M98.8,50.36v50.16a4.8,4.8,0,0,1-2.39,4.15L17.63,150.15A4.78,4.78,0,0,1,10.45,146V95.85a4.8,4.8,0,0,1,2.39-4.15L91.62,46.21A4.79,4.79,0,0,1,98.8,50.36Z"/><path class="cls-1" d="M98.86,50.39v50.17a4.78,4.78,0,0,1-2.4,4.14L17.69,150.19A4.79,4.79,0,0,1,10.51,146V95.88a4.77,4.77,0,0,1,2.39-4.14L91.68,46.25A4.79,4.79,0,0,1,98.86,50.39Z"/><path class="cls-1" d="M98.91,50.43v50.16a4.8,4.8,0,0,1-2.39,4.15L17.74,150.22a4.78,4.78,0,0,1-7.17-4.14V95.91A4.77,4.77,0,0,1,13,91.77L91.74,46.28A4.78,4.78,0,0,1,98.91,50.43Z"/><path class="cls-1" d="M99,50.46v50.17a4.8,4.8,0,0,1-2.39,4.14L17.8,150.26a4.78,4.78,0,0,1-7.17-4.15V96A4.8,4.8,0,0,1,13,91.8L91.8,46.32A4.78,4.78,0,0,1,99,50.46Z"/><path class="cls-1" d="M99,50.49v50.17a4.77,4.77,0,0,1-2.39,4.14L17.86,150.29a4.79,4.79,0,0,1-7.18-4.14V96a4.78,4.78,0,0,1,2.4-4.14L91.86,46.35A4.78,4.78,0,0,1,99,50.49Z"/><path class="cls-1" d="M99.09,50.53v50.16a4.8,4.8,0,0,1-2.39,4.15L17.92,150.32a4.78,4.78,0,0,1-7.18-4.14V96a4.8,4.8,0,0,1,2.39-4.15L91.91,46.39A4.78,4.78,0,0,1,99.09,50.53Z"/><path class="cls-1" d="M99.15,50.56v50.17a4.77,4.77,0,0,1-2.39,4.14L18,150.36a4.79,4.79,0,0,1-7.18-4.15V96.05a4.77,4.77,0,0,1,2.39-4.14L92,46.42A4.79,4.79,0,0,1,99.15,50.56Z"/><path class="cls-1" d="M99.21,50.6v50.16a4.8,4.8,0,0,1-2.39,4.15L18,150.39a4.79,4.79,0,0,1-7.18-4.14V96.08a4.78,4.78,0,0,1,2.39-4.14L92,46.45A4.79,4.79,0,0,1,99.21,50.6Z"/><path class="cls-1" d="M99.27,50.63V100.8a4.76,4.76,0,0,1-2.4,4.14L18.1,150.43a4.79,4.79,0,0,1-7.18-4.15V96.12A4.8,4.8,0,0,1,13.31,92L92.09,46.49A4.79,4.79,0,0,1,99.27,50.63Z"/><path class="cls-1" d="M99.33,50.67v50.16a4.78,4.78,0,0,1-2.4,4.14L18.15,150.46A4.78,4.78,0,0,1,11,146.32V96.15A4.77,4.77,0,0,1,13.37,92L92.15,46.52A4.79,4.79,0,0,1,99.33,50.67Z"/><path class="cls-1" d="M99.38,50.7v50.16A4.8,4.8,0,0,1,97,105L18.21,150.49A4.78,4.78,0,0,1,11,146.35V96.19A4.8,4.8,0,0,1,13.43,92L92.21,46.56A4.78,4.78,0,0,1,99.38,50.7Z"/><path class="cls-1" d="M99.44,50.73V100.9A4.77,4.77,0,0,1,97.05,105L18.27,150.53a4.79,4.79,0,0,1-7.18-4.14V96.22a4.78,4.78,0,0,1,2.4-4.14L92.27,46.59A4.78,4.78,0,0,1,99.44,50.73Z"/><path class="cls-1" d="M99.5,50.77v50.16a4.8,4.8,0,0,1-2.39,4.15L18.33,150.56a4.78,4.78,0,0,1-7.18-4.14V96.25a4.8,4.8,0,0,1,2.4-4.14L92.32,46.62A4.79,4.79,0,0,1,99.5,50.77Z"/><path class="cls-1" d="M99.56,50.8V101a4.77,4.77,0,0,1-2.39,4.14L18.39,150.6a4.79,4.79,0,0,1-7.18-4.15V96.29a4.77,4.77,0,0,1,2.39-4.14L92.38,46.66A4.79,4.79,0,0,1,99.56,50.8Z"/><path class="cls-1" d="M99.62,50.84V101a4.77,4.77,0,0,1-2.39,4.14L18.45,150.63a4.79,4.79,0,0,1-7.18-4.14V96.32a4.77,4.77,0,0,1,2.39-4.14L92.44,46.69A4.79,4.79,0,0,1,99.62,50.84Z"/><path class="cls-1" d="M99.68,50.87V101a4.8,4.8,0,0,1-2.39,4.14L18.51,150.67a4.79,4.79,0,0,1-7.18-4.15V96.36a4.8,4.8,0,0,1,2.39-4.15L92.5,46.73A4.78,4.78,0,0,1,99.68,50.87Z"/><path class="cls-1" d="M99.74,50.9v50.17a4.78,4.78,0,0,1-2.4,4.14L18.57,150.7a4.79,4.79,0,0,1-7.18-4.14V96.39a4.77,4.77,0,0,1,2.39-4.14L92.56,46.76A4.79,4.79,0,0,1,99.74,50.9Z"/><path class="cls-1" d="M99.8,50.94V101.1a4.81,4.81,0,0,1-2.4,4.15L18.62,150.73a4.78,4.78,0,0,1-7.17-4.14V96.43a4.8,4.8,0,0,1,2.39-4.15L92.62,46.8A4.78,4.78,0,0,1,99.8,50.94Z"/><path class="cls-1" d="M99.85,51v50.17a4.77,4.77,0,0,1-2.39,4.14L18.68,150.77a4.78,4.78,0,0,1-7.17-4.15V96.46a4.77,4.77,0,0,1,2.39-4.14L92.68,46.83A4.78,4.78,0,0,1,99.85,51Z"/><path class="cls-1" d="M99.91,51v50.16a4.8,4.8,0,0,1-2.39,4.15L18.74,150.8a4.79,4.79,0,0,1-7.18-4.14V96.49A4.78,4.78,0,0,1,14,92.35L92.74,46.86A4.78,4.78,0,0,1,99.91,51Z"/><path class="cls-1" d="M100,51v50.17a4.78,4.78,0,0,1-2.39,4.14L18.8,150.84a4.79,4.79,0,0,1-7.18-4.15V96.53A4.81,4.81,0,0,1,14,92.38L92.79,46.9A4.79,4.79,0,0,1,100,51Z"/><path class="cls-1" d="M100,51.08v50.16a4.77,4.77,0,0,1-2.39,4.14L18.86,150.87a4.79,4.79,0,0,1-7.18-4.14V96.56a4.77,4.77,0,0,1,2.39-4.14L92.85,46.93A4.79,4.79,0,0,1,100,51.08Z"/><path class="cls-1" d="M100.09,51.11v50.16a4.8,4.8,0,0,1-2.39,4.15L18.92,150.9a4.78,4.78,0,0,1-7.18-4.14V96.6a4.8,4.8,0,0,1,2.39-4.15L92.91,47A4.78,4.78,0,0,1,100.09,51.11Z"/><path class="cls-1" d="M100.15,51.14v50.17a4.77,4.77,0,0,1-2.39,4.14L19,150.94a4.79,4.79,0,0,1-7.18-4.14V96.63a4.77,4.77,0,0,1,2.39-4.14L93,47A4.79,4.79,0,0,1,100.15,51.14Z"/><path class="cls-1" d="M100.21,51.18v50.16a4.81,4.81,0,0,1-2.4,4.15L19,151a4.79,4.79,0,0,1-7.18-4.14V96.66a4.8,4.8,0,0,1,2.39-4.14L93,47A4.79,4.79,0,0,1,100.21,51.18Z"/><path class="cls-1" d="M100.27,51.21v50.17a4.78,4.78,0,0,1-2.4,4.14L19.09,151a4.78,4.78,0,0,1-7.17-4.15V96.7a4.77,4.77,0,0,1,2.39-4.14L93.09,47.07A4.79,4.79,0,0,1,100.27,51.21Z"/><path class="cls-1" d="M100.32,51.25v50.16a4.77,4.77,0,0,1-2.39,4.14L19.15,151A4.78,4.78,0,0,1,12,146.9V96.73a4.77,4.77,0,0,1,2.39-4.14L93.15,47.1A4.78,4.78,0,0,1,100.32,51.25Z"/><path class="cls-1" d="M100.38,51.28v50.16A4.8,4.8,0,0,1,98,105.59L19.21,151.08A4.79,4.79,0,0,1,12,146.93V96.77a4.81,4.81,0,0,1,2.4-4.15L93.21,47.14A4.78,4.78,0,0,1,100.38,51.28Z"/><path class="cls-1" d="M100.44,51.31v50.17a4.77,4.77,0,0,1-2.39,4.14L19.27,151.11A4.79,4.79,0,0,1,12.09,147V96.8a4.76,4.76,0,0,1,2.4-4.14L93.26,47.17A4.79,4.79,0,0,1,100.44,51.31Z"/><path class="cls-1" d="M100.5,51.35v50.16a4.8,4.8,0,0,1-2.39,4.15L19.33,151.14A4.78,4.78,0,0,1,12.15,147V96.84a4.8,4.8,0,0,1,2.39-4.15L93.32,47.2A4.79,4.79,0,0,1,100.5,51.35Z"/><path class="cls-1" d="M100.56,51.38v50.17a4.77,4.77,0,0,1-2.39,4.14L19.39,151.18A4.79,4.79,0,0,1,12.21,147V96.87a4.77,4.77,0,0,1,2.39-4.14L93.38,47.24A4.79,4.79,0,0,1,100.56,51.38Z"/><path class="cls-1" d="M100.62,51.42v50.16a4.77,4.77,0,0,1-2.39,4.14L19.45,151.21a4.79,4.79,0,0,1-7.18-4.14V96.9a4.77,4.77,0,0,1,2.39-4.14L93.44,47.27A4.79,4.79,0,0,1,100.62,51.42Z"/><path class="cls-1" d="M100.68,51.45v50.17a4.8,4.8,0,0,1-2.4,4.14L19.5,151.25a4.78,4.78,0,0,1-7.17-4.15V96.94a4.8,4.8,0,0,1,2.39-4.15L93.5,47.31A4.79,4.79,0,0,1,100.68,51.45Z"/><path class="cls-1" d="M100.73,51.48v50.17a4.77,4.77,0,0,1-2.39,4.14L19.56,151.28a4.78,4.78,0,0,1-7.17-4.14V97a4.77,4.77,0,0,1,2.39-4.14L93.56,47.34A4.78,4.78,0,0,1,100.73,51.48Z"/><path class="cls-1" d="M100.79,51.52v50.16a4.8,4.8,0,0,1-2.39,4.15L19.62,151.31a4.78,4.78,0,0,1-7.17-4.14V97a4.8,4.8,0,0,1,2.39-4.15L93.62,47.38A4.78,4.78,0,0,1,100.79,51.52Z"/><path class="cls-1" d="M100.85,51.55v50.17a4.77,4.77,0,0,1-2.39,4.14L19.68,151.35a4.79,4.79,0,0,1-7.18-4.15V97a4.78,4.78,0,0,1,2.4-4.14L93.67,47.41A4.79,4.79,0,0,1,100.85,51.55Z"/><path class="cls-1" d="M100.91,51.59v50.16a4.8,4.8,0,0,1-2.39,4.15L19.74,151.38a4.79,4.79,0,0,1-7.18-4.14V97.07A4.78,4.78,0,0,1,15,92.93L93.73,47.44A4.79,4.79,0,0,1,100.91,51.59Z"/><path class="cls-1" d="M101,51.62v50.17a4.78,4.78,0,0,1-2.39,4.14L19.8,151.42a4.79,4.79,0,0,1-7.18-4.15V97.11A4.8,4.8,0,0,1,15,93L93.79,47.48A4.79,4.79,0,0,1,101,51.62Z"/><path class="cls-1" d="M101,51.66v50.16A4.77,4.77,0,0,1,98.64,106L19.86,151.45a4.79,4.79,0,0,1-7.18-4.14V97.14A4.77,4.77,0,0,1,15.07,93L93.85,47.51A4.79,4.79,0,0,1,101,51.66Z"/><path class="cls-1" d="M101.09,51.69v50.16a4.79,4.79,0,0,1-2.4,4.15L19.92,151.48a4.78,4.78,0,0,1-7.18-4.14V97.18A4.8,4.8,0,0,1,15.13,93L93.91,47.55A4.78,4.78,0,0,1,101.09,51.69Z"/><path class="cls-1" d="M101.15,51.72v50.17a4.78,4.78,0,0,1-2.4,4.14L20,151.52a4.78,4.78,0,0,1-7.17-4.14V97.21a4.77,4.77,0,0,1,2.39-4.14L94,47.58A4.79,4.79,0,0,1,101.15,51.72Z"/><path class="cls-1" d="M101.2,51.76v50.16a4.8,4.8,0,0,1-2.39,4.15L20,151.55a4.78,4.78,0,0,1-7.17-4.14V97.24a4.8,4.8,0,0,1,2.39-4.14L94,47.61A4.78,4.78,0,0,1,101.2,51.76Z"/><path class="cls-1" d="M101.26,51.79V102a4.77,4.77,0,0,1-2.39,4.14L20.09,151.59a4.79,4.79,0,0,1-7.18-4.15V97.28a4.78,4.78,0,0,1,2.4-4.14L94.09,47.65A4.78,4.78,0,0,1,101.26,51.79Z"/><path class="cls-1" d="M101.32,51.83V102a4.77,4.77,0,0,1-2.39,4.14L20.15,151.62A4.79,4.79,0,0,1,13,147.48V97.31a4.78,4.78,0,0,1,2.4-4.14L94.14,47.68A4.79,4.79,0,0,1,101.32,51.83Z"/><path class="cls-1" d="M101.38,51.86V102A4.8,4.8,0,0,1,99,106.17L20.21,151.66A4.79,4.79,0,0,1,13,147.51V97.35a4.8,4.8,0,0,1,2.39-4.15L94.2,47.72A4.78,4.78,0,0,1,101.38,51.86Z"/><path class="cls-1" d="M101.44,51.89v50.17a4.77,4.77,0,0,1-2.39,4.14L20.27,151.69a4.79,4.79,0,0,1-7.18-4.14V97.38a4.77,4.77,0,0,1,2.39-4.14L94.26,47.75A4.79,4.79,0,0,1,101.44,51.89Z"/><path class="cls-1" d="M101.5,51.93v50.16a4.8,4.8,0,0,1-2.39,4.15L20.33,151.72a4.78,4.78,0,0,1-7.18-4.14V97.42a4.8,4.8,0,0,1,2.39-4.15L94.32,47.78A4.79,4.79,0,0,1,101.5,51.93Z"/><path class="cls-1" d="M101.56,52v50.17a4.78,4.78,0,0,1-2.4,4.14L20.39,151.76a4.79,4.79,0,0,1-7.18-4.15V97.45a4.77,4.77,0,0,1,2.39-4.14L94.38,47.82A4.79,4.79,0,0,1,101.56,52Z"/><path class="cls-1" d="M101.62,52v50.16a4.81,4.81,0,0,1-2.4,4.15L20.44,151.79a4.78,4.78,0,0,1-7.17-4.14V97.48a4.77,4.77,0,0,1,2.39-4.14L94.44,47.85A4.79,4.79,0,0,1,101.62,52Z"/><path class="cls-1" d="M101.67,52V102.2a4.8,4.8,0,0,1-2.39,4.14L20.5,151.83a4.78,4.78,0,0,1-7.17-4.15V97.52a4.8,4.8,0,0,1,2.39-4.15L94.5,47.89A4.78,4.78,0,0,1,101.67,52Z"/><path class="cls-1" d="M101.73,52.07v50.16a4.77,4.77,0,0,1-2.39,4.14L20.56,151.86a4.79,4.79,0,0,1-7.18-4.14V97.55a4.78,4.78,0,0,1,2.4-4.14L94.56,47.92A4.78,4.78,0,0,1,101.73,52.07Z"/><path class="cls-1" d="M101.79,52.1v50.16a4.8,4.8,0,0,1-2.39,4.15L20.62,151.89a4.78,4.78,0,0,1-7.18-4.14V97.59a4.79,4.79,0,0,1,2.4-4.15L94.61,48A4.78,4.78,0,0,1,101.79,52.1Z"/><path class="cls-1" d="M101.85,52.13V102.3a4.77,4.77,0,0,1-2.39,4.14L20.68,151.93a4.79,4.79,0,0,1-7.18-4.15V97.62a4.77,4.77,0,0,1,2.39-4.14L94.67,48A4.79,4.79,0,0,1,101.85,52.13Z"/><path class="cls-1" d="M101.91,52.17v50.16a4.8,4.8,0,0,1-2.39,4.15L20.74,152a4.79,4.79,0,0,1-7.18-4.14V97.65A4.78,4.78,0,0,1,16,93.51L94.73,48A4.79,4.79,0,0,1,101.91,52.17Z"/><path class="cls-1" d="M102,52.2v50.17a4.77,4.77,0,0,1-2.39,4.14L20.8,152a4.79,4.79,0,0,1-7.18-4.15V97.69A4.8,4.8,0,0,1,16,93.54L94.79,48.06A4.79,4.79,0,0,1,102,52.2Z"/><path class="cls-1" d="M102,52.24V102.4a4.78,4.78,0,0,1-2.4,4.14L20.86,152a4.79,4.79,0,0,1-7.18-4.14V97.72a4.77,4.77,0,0,1,2.39-4.14L94.85,48.09A4.79,4.79,0,0,1,102,52.24Z"/><path class="cls-1" d="M102.08,52.27v50.16a4.8,4.8,0,0,1-2.39,4.15L20.91,152.06a4.78,4.78,0,0,1-7.17-4.14V97.76a4.8,4.8,0,0,1,2.39-4.15L94.91,48.13A4.78,4.78,0,0,1,102.08,52.27Z"/><path class="cls-1" d="M102.14,52.3v50.17a4.77,4.77,0,0,1-2.39,4.14L21,152.1A4.78,4.78,0,0,1,13.8,148V97.79a4.77,4.77,0,0,1,2.39-4.14L95,48.16A4.78,4.78,0,0,1,102.14,52.3Z"/><path class="cls-1" d="M102.2,52.34V102.5a4.8,4.8,0,0,1-2.39,4.15L21,152.13A4.78,4.78,0,0,1,13.85,148V97.82a4.8,4.8,0,0,1,2.4-4.14L95,48.19A4.78,4.78,0,0,1,102.2,52.34Z"/><path class="cls-1" d="M102.26,52.37v50.17a4.77,4.77,0,0,1-2.39,4.14L21.09,152.17A4.79,4.79,0,0,1,13.91,148V97.86a4.77,4.77,0,0,1,2.39-4.14L95.08,48.23A4.79,4.79,0,0,1,102.26,52.37Z"/><path class="cls-1" d="M102.32,52.41v50.16a4.77,4.77,0,0,1-2.39,4.14L21.15,152.2A4.79,4.79,0,0,1,14,148.06V97.89a4.77,4.77,0,0,1,2.39-4.14L95.14,48.26A4.79,4.79,0,0,1,102.32,52.41Z"/><path class="cls-1" d="M102.38,52.44v50.17a4.8,4.8,0,0,1-2.39,4.14L21.21,152.24A4.79,4.79,0,0,1,14,148.09V97.93a4.8,4.8,0,0,1,2.39-4.15L95.2,48.3A4.78,4.78,0,0,1,102.38,52.44Z"/><path class="cls-1" d="M102.44,52.47v50.17a4.76,4.76,0,0,1-2.4,4.14L21.27,152.27a4.79,4.79,0,0,1-7.18-4.14V98a4.77,4.77,0,0,1,2.39-4.14L95.26,48.33A4.79,4.79,0,0,1,102.44,52.47Z"/><path class="cls-1" d="M102.5,52.51v50.16a4.81,4.81,0,0,1-2.4,4.15L21.32,152.3a4.78,4.78,0,0,1-7.17-4.14V98a4.8,4.8,0,0,1,2.39-4.15L95.32,48.37A4.78,4.78,0,0,1,102.5,52.51Z"/><path class="cls-1" d="M102.55,52.54v50.17a4.77,4.77,0,0,1-2.39,4.14L21.38,152.34a4.78,4.78,0,0,1-7.17-4.15V98a4.77,4.77,0,0,1,2.39-4.14L95.38,48.4A4.78,4.78,0,0,1,102.55,52.54Z"/><path class="cls-1" d="M102.61,52.58v50.16a4.8,4.8,0,0,1-2.39,4.15L21.44,152.37a4.79,4.79,0,0,1-7.18-4.14V98.06a4.78,4.78,0,0,1,2.4-4.14L95.44,48.43A4.78,4.78,0,0,1,102.61,52.58Z"/><path class="cls-1" d="M102.67,52.61v50.17a4.78,4.78,0,0,1-2.39,4.14L21.5,152.41a4.79,4.79,0,0,1-7.18-4.15V98.1A4.81,4.81,0,0,1,16.72,94L95.49,48.47A4.79,4.79,0,0,1,102.67,52.61Z"/><path class="cls-1" d="M102.73,52.65v50.16a4.77,4.77,0,0,1-2.39,4.14L21.56,152.44a4.79,4.79,0,0,1-7.18-4.14V98.13A4.77,4.77,0,0,1,16.77,94L95.55,48.5A4.79,4.79,0,0,1,102.73,52.65Z"/><path class="cls-1" d="M102.79,52.68v50.16A4.8,4.8,0,0,1,100.4,107L21.62,152.47a4.78,4.78,0,0,1-7.18-4.14V98.17A4.8,4.8,0,0,1,16.83,94L95.61,48.54A4.78,4.78,0,0,1,102.79,52.68Z"/><path class="cls-1" d="M102.85,52.71v50.17a4.77,4.77,0,0,1-2.39,4.14L21.68,152.51a4.79,4.79,0,0,1-7.18-4.14V98.2a4.77,4.77,0,0,1,2.39-4.14L95.67,48.57A4.79,4.79,0,0,1,102.85,52.71Z"/><path class="cls-1" d="M102.91,52.75v50.16a4.81,4.81,0,0,1-2.4,4.15L21.74,152.54a4.79,4.79,0,0,1-7.18-4.14V98.23A4.8,4.8,0,0,1,17,94.09L95.73,48.6A4.79,4.79,0,0,1,102.91,52.75Z"/><path class="cls-1" d="M103,52.78V103a4.78,4.78,0,0,1-2.4,4.14L21.79,152.58a4.78,4.78,0,0,1-7.17-4.15V98.27A4.77,4.77,0,0,1,17,94.13L95.79,48.64A4.79,4.79,0,0,1,103,52.78Z"/><path class="cls-1" d="M103,52.82V103a4.77,4.77,0,0,1-2.39,4.14L21.85,152.61a4.78,4.78,0,0,1-7.17-4.14V98.3a4.77,4.77,0,0,1,2.39-4.14L95.85,48.67A4.78,4.78,0,0,1,103,52.82Z"/><path class="cls-1" d="M103.08,52.85V103a4.8,4.8,0,0,1-2.39,4.15L21.91,152.65a4.79,4.79,0,0,1-7.18-4.15V98.34a4.81,4.81,0,0,1,2.4-4.15L95.91,48.71A4.78,4.78,0,0,1,103.08,52.85Z"/><path class="cls-1" d="M103.14,52.88v50.17a4.77,4.77,0,0,1-2.39,4.14L22,152.68a4.79,4.79,0,0,1-7.18-4.14V98.37a4.78,4.78,0,0,1,2.4-4.14L96,48.74A4.79,4.79,0,0,1,103.14,52.88Z"/><path class="cls-1" d="M103.2,52.92v50.16a4.8,4.8,0,0,1-2.39,4.15L22,152.71a4.78,4.78,0,0,1-7.18-4.14V98.41a4.8,4.8,0,0,1,2.39-4.15L96,48.77A4.79,4.79,0,0,1,103.2,52.92Z"/><path class="cls-1" d="M103.26,53v50.17a4.77,4.77,0,0,1-2.39,4.14L22.09,152.75a4.79,4.79,0,0,1-7.18-4.15V98.44A4.77,4.77,0,0,1,17.3,94.3L96.08,48.81A4.79,4.79,0,0,1,103.26,53Z"/><path class="cls-1" d="M103.32,53v50.16a4.77,4.77,0,0,1-2.39,4.14L22.15,152.78A4.79,4.79,0,0,1,15,148.64V98.47a4.77,4.77,0,0,1,2.39-4.14L96.14,48.84A4.79,4.79,0,0,1,103.32,53Z"/><path class="cls-1" d="M103.38,53v50.17a4.8,4.8,0,0,1-2.4,4.14L22.21,152.82A4.79,4.79,0,0,1,15,148.67V98.51a4.8,4.8,0,0,1,2.39-4.15L96.2,48.88A4.79,4.79,0,0,1,103.38,53Z"/><path class="cls-1" d="M103.44,53.05v50.17a4.78,4.78,0,0,1-2.4,4.14L22.26,152.85a4.78,4.78,0,0,1-7.17-4.14V98.54a4.77,4.77,0,0,1,2.39-4.14L96.26,48.91A4.79,4.79,0,0,1,103.44,53.05Z"/><path class="cls-1" d="M103.49,53.09v50.16a4.8,4.8,0,0,1-2.39,4.15L22.32,152.88a4.78,4.78,0,0,1-7.17-4.14V98.58a4.8,4.8,0,0,1,2.39-4.15L96.32,49A4.78,4.78,0,0,1,103.49,53.09Z"/><path class="cls-1" d="M103.55,53.12v50.17a4.77,4.77,0,0,1-2.39,4.14L22.38,152.92a4.79,4.79,0,0,1-7.18-4.15V98.61a4.78,4.78,0,0,1,2.4-4.14L96.38,49A4.78,4.78,0,0,1,103.55,53.12Z"/><path class="cls-1" d="M103.61,53.16v50.16a4.8,4.8,0,0,1-2.39,4.15L22.44,153a4.79,4.79,0,0,1-7.18-4.14V98.64a4.77,4.77,0,0,1,2.4-4.14L96.43,49A4.79,4.79,0,0,1,103.61,53.16Z"/><path class="cls-1" d="M103.67,53.19v50.17a4.78,4.78,0,0,1-2.39,4.14L22.5,153a4.79,4.79,0,0,1-7.18-4.15V98.68a4.8,4.8,0,0,1,2.39-4.15L96.49,49.05A4.79,4.79,0,0,1,103.67,53.19Z"/><path class="cls-1" d="M103.73,53.23v50.16a4.77,4.77,0,0,1-2.39,4.14L22.56,153a4.79,4.79,0,0,1-7.18-4.14V98.71a4.77,4.77,0,0,1,2.39-4.14L96.55,49.08A4.79,4.79,0,0,1,103.73,53.23Z"/><path class="cls-1" d="M103.79,53.26v50.16a4.8,4.8,0,0,1-2.39,4.15L22.62,153.05a4.78,4.78,0,0,1-7.18-4.14V98.75a4.8,4.8,0,0,1,2.39-4.15L96.61,49.12A4.78,4.78,0,0,1,103.79,53.26Z"/><path class="cls-1" d="M103.85,53.29v50.17a4.78,4.78,0,0,1-2.4,4.14L22.67,153.09A4.78,4.78,0,0,1,15.5,149V98.78a4.77,4.77,0,0,1,2.39-4.14L96.67,49.15A4.79,4.79,0,0,1,103.85,53.29Z"/><path class="cls-1" d="M103.9,53.33v50.16a4.8,4.8,0,0,1-2.39,4.15L22.73,153.12A4.78,4.78,0,0,1,15.56,149V98.81A4.8,4.8,0,0,1,18,94.67L96.73,49.18A4.78,4.78,0,0,1,103.9,53.33Z"/><path class="cls-1" d="M104,53.36v50.17a4.77,4.77,0,0,1-2.39,4.14L22.79,153.16A4.78,4.78,0,0,1,15.62,149V98.85A4.77,4.77,0,0,1,18,94.71L96.79,49.22A4.78,4.78,0,0,1,104,53.36Z"/><path class="cls-1" d="M104,53.4v50.16a4.77,4.77,0,0,1-2.39,4.14L22.85,153.19a4.79,4.79,0,0,1-7.18-4.14V98.88a4.78,4.78,0,0,1,2.4-4.14L96.84,49.25A4.79,4.79,0,0,1,104,53.4Z"/><path class="cls-1" d="M104.08,53.43v50.16a4.8,4.8,0,0,1-2.39,4.15L22.91,153.23a4.79,4.79,0,0,1-7.18-4.15V98.92a4.8,4.8,0,0,1,2.39-4.15L96.9,49.29A4.78,4.78,0,0,1,104.08,53.43Z"/><path class="cls-1" d="M104.14,53.46v50.17a4.77,4.77,0,0,1-2.39,4.14L23,153.26a4.79,4.79,0,0,1-7.18-4.14V99a4.77,4.77,0,0,1,2.39-4.14L97,49.32A4.79,4.79,0,0,1,104.14,53.46Z"/><path class="cls-1" d="M104.2,53.5v50.16a4.8,4.8,0,0,1-2.39,4.15L23,153.29a4.78,4.78,0,0,1-7.18-4.14V99a4.8,4.8,0,0,1,2.39-4.15L97,49.35A4.79,4.79,0,0,1,104.2,53.5Z"/><path class="cls-1" d="M104.26,53.53V103.7a4.76,4.76,0,0,1-2.4,4.14L23.09,153.33a4.79,4.79,0,0,1-7.18-4.15V99a4.77,4.77,0,0,1,2.39-4.14L97.08,49.39A4.79,4.79,0,0,1,104.26,53.53Z"/><path class="cls-1" d="M104.32,53.57v50.16a4.81,4.81,0,0,1-2.4,4.15L23.14,153.36A4.78,4.78,0,0,1,16,149.22V99.05a4.77,4.77,0,0,1,2.39-4.14L97.14,49.42A4.79,4.79,0,0,1,104.32,53.57Z"/><path class="cls-1" d="M104.37,53.6v50.17a4.8,4.8,0,0,1-2.39,4.14L23.2,153.4A4.78,4.78,0,0,1,16,149.25V99.09a4.8,4.8,0,0,1,2.39-4.15L97.2,49.46A4.78,4.78,0,0,1,104.37,53.6Z"/><path class="cls-1" d="M104.43,53.64V103.8a4.77,4.77,0,0,1-2.39,4.14L23.26,153.43a4.79,4.79,0,0,1-7.18-4.14V99.12A4.78,4.78,0,0,1,18.48,95L97.26,49.49A4.78,4.78,0,0,1,104.43,53.64Z"/><path class="cls-1" d="M104.49,53.67v50.16A4.8,4.8,0,0,1,102.1,108L23.32,153.46a4.78,4.78,0,0,1-7.18-4.14V99.16A4.81,4.81,0,0,1,18.54,95L97.31,49.53A4.78,4.78,0,0,1,104.49,53.67Z"/><path class="cls-1" d="M104.55,53.7v50.17a4.77,4.77,0,0,1-2.39,4.14L23.38,153.5a4.79,4.79,0,0,1-7.18-4.15V99.19a4.77,4.77,0,0,1,2.39-4.14L97.37,49.56A4.79,4.79,0,0,1,104.55,53.7Z"/><path class="cls-1" d="M104.61,53.74V103.9a4.8,4.8,0,0,1-2.39,4.15L23.44,153.53a4.79,4.79,0,0,1-7.18-4.14V99.22a4.78,4.78,0,0,1,2.39-4.14L97.43,49.59A4.79,4.79,0,0,1,104.61,53.74Z"/><path class="cls-1" d="M104.67,53.77v50.17a4.77,4.77,0,0,1-2.39,4.14L23.5,153.57a4.79,4.79,0,0,1-7.18-4.15V99.26a4.8,4.8,0,0,1,2.39-4.15L97.49,49.63A4.79,4.79,0,0,1,104.67,53.77Z"/><path class="cls-1" d="M104.73,53.81V104a4.78,4.78,0,0,1-2.4,4.14L23.56,153.6a4.79,4.79,0,0,1-7.18-4.14V99.29a4.77,4.77,0,0,1,2.39-4.14L97.55,49.66A4.79,4.79,0,0,1,104.73,53.81Z"/><path class="cls-1" d="M104.79,53.84V104a4.81,4.81,0,0,1-2.4,4.15L23.61,153.63a4.78,4.78,0,0,1-7.17-4.14V99.33a4.8,4.8,0,0,1,2.39-4.15L97.61,49.7A4.78,4.78,0,0,1,104.79,53.84Z"/><path class="cls-1" d="M104.84,53.87V104a4.77,4.77,0,0,1-2.39,4.14L23.67,153.67a4.78,4.78,0,0,1-7.17-4.14V99.36a4.77,4.77,0,0,1,2.39-4.14L97.67,49.73A4.78,4.78,0,0,1,104.84,53.87Z"/><path class="cls-1" d="M104.9,53.91v50.16a4.8,4.8,0,0,1-2.39,4.15L23.73,153.7a4.78,4.78,0,0,1-7.18-4.14V99.39A4.8,4.8,0,0,1,19,95.25L97.73,49.76A4.78,4.78,0,0,1,104.9,53.91Z"/><path class="cls-1" d="M105,53.94v50.17a4.77,4.77,0,0,1-2.39,4.14L23.79,153.74a4.79,4.79,0,0,1-7.18-4.15V99.43A4.76,4.76,0,0,1,19,95.29L97.78,49.8A4.79,4.79,0,0,1,105,53.94Z"/><path class="cls-1" d="M105,54v50.16a4.77,4.77,0,0,1-2.39,4.14L23.85,153.77a4.79,4.79,0,0,1-7.18-4.14V99.46a4.77,4.77,0,0,1,2.39-4.14L97.84,49.83A4.79,4.79,0,0,1,105,54Z"/><path class="cls-1" d="M105.08,54v50.17a4.8,4.8,0,0,1-2.39,4.14L23.91,153.81a4.79,4.79,0,0,1-7.18-4.15V99.5a4.8,4.8,0,0,1,2.39-4.15L97.9,49.87A4.78,4.78,0,0,1,105.08,54Z"/><path class="cls-1" d="M105.14,54v50.17a4.77,4.77,0,0,1-2.39,4.14L24,153.84a4.79,4.79,0,0,1-7.18-4.14V99.53a4.77,4.77,0,0,1,2.39-4.14L98,49.9A4.79,4.79,0,0,1,105.14,54Z"/><path class="cls-1" d="M105.2,54.08v50.16a4.81,4.81,0,0,1-2.4,4.15L24,153.87a4.78,4.78,0,0,1-7.18-4.14V99.57a4.8,4.8,0,0,1,2.39-4.15L98,49.94A4.78,4.78,0,0,1,105.2,54.08Z"/><path class="cls-1" d="M105.25,54.11v50.17a4.77,4.77,0,0,1-2.39,4.14L24.08,153.91a4.78,4.78,0,0,1-7.17-4.15V99.6a4.77,4.77,0,0,1,2.39-4.14L98.08,50A4.78,4.78,0,0,1,105.25,54.11Z"/><path class="cls-1" d="M105.31,54.15v50.16a4.8,4.8,0,0,1-2.39,4.15L24.14,153.94A4.78,4.78,0,0,1,17,149.8V99.63a4.77,4.77,0,0,1,2.39-4.14L98.14,50A4.78,4.78,0,0,1,105.31,54.15Z"/><path class="cls-1" d="M105.37,54.18v50.17a4.78,4.78,0,0,1-2.39,4.14L24.2,154A4.79,4.79,0,0,1,17,149.83V99.67a4.81,4.81,0,0,1,2.4-4.15L98.2,50A4.78,4.78,0,0,1,105.37,54.18Z"/><path class="cls-1" d="M105.43,54.22v50.16a4.77,4.77,0,0,1-2.39,4.14L24.26,154a4.79,4.79,0,0,1-7.18-4.14V99.7a4.77,4.77,0,0,1,2.39-4.14L98.25,50.07A4.79,4.79,0,0,1,105.43,54.22Z"/><path class="cls-1" d="M105.49,54.25v50.16a4.8,4.8,0,0,1-2.39,4.15L24.32,154a4.78,4.78,0,0,1-7.18-4.14V99.74a4.8,4.8,0,0,1,2.39-4.15L98.31,50.11A4.78,4.78,0,0,1,105.49,54.25Z"/><path class="cls-1" d="M105.55,54.28v50.17a4.77,4.77,0,0,1-2.39,4.14L24.38,154.08a4.79,4.79,0,0,1-7.18-4.14V99.77a4.77,4.77,0,0,1,2.39-4.14L98.37,50.14A4.79,4.79,0,0,1,105.55,54.28Z"/><path class="cls-1" d="M105.61,54.32v50.16a4.79,4.79,0,0,1-2.4,4.15L24.44,154.11A4.79,4.79,0,0,1,17.26,150V99.8a4.8,4.8,0,0,1,2.39-4.14L98.43,50.17A4.79,4.79,0,0,1,105.61,54.32Z"/><path class="cls-1" d="M105.67,54.35v50.17a4.78,4.78,0,0,1-2.4,4.14L24.49,154.15A4.78,4.78,0,0,1,17.32,150V99.84a4.77,4.77,0,0,1,2.39-4.14L98.49,50.21A4.79,4.79,0,0,1,105.67,54.35Z"/><path class="cls-1" d="M105.72,54.39v50.16a4.77,4.77,0,0,1-2.39,4.14L24.55,154.18A4.78,4.78,0,0,1,17.38,150V99.87a4.77,4.77,0,0,1,2.39-4.14L98.55,50.24A4.78,4.78,0,0,1,105.72,54.39Z"/><path class="cls-1" d="M105.78,54.42v50.16a4.8,4.8,0,0,1-2.39,4.15L24.61,154.22a4.79,4.79,0,0,1-7.18-4.15V99.91a4.81,4.81,0,0,1,2.4-4.15L98.61,50.28A4.78,4.78,0,0,1,105.78,54.42Z"/><path class="cls-1" d="M105.84,54.45v50.17a4.77,4.77,0,0,1-2.39,4.14L24.67,154.25a4.79,4.79,0,0,1-7.18-4.14V99.94a4.78,4.78,0,0,1,2.4-4.14L98.66,50.31A4.79,4.79,0,0,1,105.84,54.45Z"/><path class="cls-1" d="M105.9,54.49v50.16a4.8,4.8,0,0,1-2.39,4.15L24.73,154.28a4.78,4.78,0,0,1-7.18-4.14V100a4.8,4.8,0,0,1,2.39-4.15L98.72,50.34A4.79,4.79,0,0,1,105.9,54.49Z"/><path class="cls-1" d="M106,54.52v50.17a4.77,4.77,0,0,1-2.39,4.14L24.79,154.32a4.79,4.79,0,0,1-7.18-4.15V100A4.77,4.77,0,0,1,20,95.87L98.78,50.38A4.79,4.79,0,0,1,106,54.52Z"/><path class="cls-1" d="M106,54.56v50.16a4.77,4.77,0,0,1-2.39,4.14L24.85,154.35a4.79,4.79,0,0,1-7.18-4.14V100a4.77,4.77,0,0,1,2.39-4.14L98.84,50.41A4.79,4.79,0,0,1,106,54.56Z"/><path class="cls-2" d="M106,54.56v50.16a4.77,4.77,0,0,1-2.39,4.14L24.85,154.35a4.79,4.79,0,0,1-7.18-4.14V100a4.77,4.77,0,0,1,2.39-4.14L98.84,50.41A4.79,4.79,0,0,1,106,54.56Z"/><path class="cls-1" d="M30.93,148a1.21,1.21,0,0,1-1.21-1.21v-52a1.21,1.21,0,0,1,2.42,0v52A1.21,1.21,0,0,1,30.93,148Z"/><path class="cls-1" d="M93.25,111.63A1.21,1.21,0,0,1,92,110.42v-52a1.21,1.21,0,1,1,2.42,0v52A1.21,1.21,0,0,1,93.25,111.63Z"/><path class="cls-3" d="M55.85,25.32a1.66,1.66,0,0,0-1-1.36h0a1.39,1.39,0,0,1-.72-1.2v-21A1.69,1.69,0,0,0,52.59,0a1.63,1.63,0,0,0-1.7,1.62V22.75a1.37,1.37,0,0,1-.73,1.2h0a1.64,1.64,0,0,0-1,1.38V66.67a1.67,1.67,0,0,0,1,1.37,5.23,5.23,0,0,0,4.72,0,1.67,1.67,0,0,0,1-1.37V25.32Z"/><ellipse class="cls-4" cx="23.58" cy="101.24" rx="3.34" ry="1.93" transform="translate(-75.89 71.04) rotate(-60)"/><ellipse class="cls-4" cx="23.58" cy="147.95" rx="3.34" ry="1.93" transform="translate(-116.34 94.39) rotate(-60)"/><ellipse class="cls-4" cx="99.55" cy="57.82" rx="3.34" ry="1.93" transform="translate(-0.3 115.12) rotate(-60)"/><ellipse class="cls-4" cx="99.55" cy="104.36" rx="3.34" ry="1.93" transform="translate(-40.6 138.39) rotate(-60)"/><path class="cls-3" d="M69.8,108a18.55,18.55,0,0,1-3.24,6.87,14.7,14.7,0,0,0,1.56-4A8.08,8.08,0,0,0,66.7,104a37.6,37.6,0,0,0-4.18-4.27s-3,6.06-4.18,9.1c-1.63,4.13-1.94,6.63-1.43,8.53a3.83,3.83,0,0,0,1.57,2.21,4.2,4.2,0,0,1-3.25-3.12c-.65-2.32-.26-5.4,1.83-10.55,1.54-3.78,5.46-11.51,5.46-11.51s.93.76,2.06,1.77A30.29,30.29,0,0,1,68,99.58,9.5,9.5,0,0,1,69.8,108Z"/><polygon class="cls-5" points="62.52 108.27 63 117.18 62.03 117.74 62.52 108.27"/><path class="cls-3" d="M72.58,106.21a24.48,24.48,0,0,1-2.47,6.39,22,22,0,0,0,1.56-4.45,12,12,0,0,0-2.3-10.59A46.58,46.58,0,0,0,63.69,92l-1.17-1s-4.92,9.7-6.85,14.46c-2.63,6.46-3.12,10.33-2.3,13.25a6.06,6.06,0,0,0,1.55,2.65,6.41,6.41,0,0,1-2.47-3.53c-.9-3.21-.36-7.47,2.53-14.58C57.1,98,62.52,87.35,62.52,87.35s1.06.87,2.43,2.08a43.18,43.18,0,0,1,5.1,5.13A13.13,13.13,0,0,1,72.58,106.21Z"/></svg>