<svg width="501" height="599" viewBox="0 0 501 599" fill="none" xmlns="http://www.w3.org/2000/svg">
<path d="M463.467 336.667H291.733V321.735C291.733 309.381 281.686 299.333 269.332 299.333H194.665C182.311 299.333 172.264 309.38 172.264 321.735V359.068H134.931V336.292C145.504 334.5 153.597 325.339 153.597 314.265V306.797C153.597 295.724 145.504 286.562 134.931 284.775V261.999H202.128C206.253 261.999 209.597 258.661 209.597 254.53V30.5304C209.597 14.057 196.201 0.666382 179.733 0.666382H30.3995C13.9261 0.666382 0.535461 14.0624 0.535461 30.5304V254.53C0.535461 258.655 3.87401 261.999 8.00427 261.999H75.2016V284.775C64.6287 286.567 56.5296 295.723 56.5296 306.802V314.271C56.5296 325.344 64.6233 334.505 75.1963 336.292V359.068C58.7229 359.068 45.3323 372.464 45.3323 388.932V493.463C45.3323 509.936 58.7283 523.327 75.1963 523.327H172.264V560.66C172.264 573.014 182.311 583.061 194.666 583.061H269.332C281.686 583.061 291.734 573.014 291.734 560.66V545.728H306.666V571.864C306.666 586.271 318.39 598 332.802 598C347.208 598 358.938 586.276 358.938 571.864L358.932 545.733H418.667V571.869C418.667 586.276 430.391 598.005 444.803 598.005C459.21 598.005 470.939 586.281 470.939 571.869V544.984C487.96 541.515 500.803 526.432 500.803 508.405V374.005C500.803 353.421 484.054 336.672 463.47 336.672L463.467 336.667ZM15.4667 30.5333C15.4667 22.2989 22.1697 15.6013 30.3987 15.6013H179.732C187.966 15.6013 194.664 22.3044 194.664 30.5333V217.2H15.464L15.4667 30.5333ZM15.4667 247.067V232.135H194.667V247.067H15.4667ZM119.997 261.999V284.4H90.1333V261.999H119.997ZM71.4667 314.264V306.795C71.4667 302.675 74.8156 299.326 78.9355 299.326H127.471L131.195 299.332C135.315 299.332 138.664 302.681 138.664 306.8V314.269C138.664 318.389 135.315 321.738 131.195 321.738H82.6595L78.9303 321.733C74.8105 321.733 71.4667 318.384 71.4667 314.264ZM119.997 336.665V359.067H90.1333V336.665H119.997ZM172.263 508.399H75.1947C66.9603 508.399 60.2627 501.696 60.2627 493.467V388.931C60.2627 380.696 66.9657 373.999 75.1947 373.999H172.268L172.263 508.399ZM276.799 344.132V560.665C276.799 564.785 273.45 568.134 269.33 568.134H194.663C190.543 568.134 187.194 564.785 187.194 560.665V321.719C187.194 317.599 190.543 314.25 194.663 314.25H269.33C273.45 314.25 276.799 317.599 276.799 321.719V344.132ZM343.996 571.865C343.996 578.042 338.97 583.063 332.798 583.063C326.621 583.063 321.6 578.037 321.6 571.865L321.595 545.735H343.996L343.996 571.865ZM455.996 571.865C455.996 578.042 450.97 583.063 444.798 583.063C438.621 583.063 433.6 578.037 433.6 571.865L433.595 545.735H455.996L455.996 571.865ZM463.465 530.803H291.731V508.401H485.865C485.86 520.75 475.813 530.803 463.463 530.803H463.465ZM485.861 493.469H291.727V478.537H485.861V493.469ZM485.861 463.6H291.727V448.668H485.861V463.6ZM485.861 433.736H291.727V418.804H485.861V433.736ZM485.861 403.867H291.727V388.935H485.861V403.867ZM291.727 374.003V351.601H463.461C475.815 351.601 485.862 361.648 485.862 374.003H291.727Z" fill="white"/>
<path d="M98.6933 71.4667C94.7559 77.9407 60.272 135.399 60.272 157.472C60.272 182.175 80.3653 202.275 105.075 202.275C129.777 202.275 149.877 182.181 149.877 157.472C149.877 135.399 115.393 77.9413 111.456 71.4667C108.758 67.0031 101.393 67.0031 98.6956 71.4667H98.6933ZM105.074 187.336C88.6003 187.336 75.2096 173.94 75.2096 157.472C75.2096 145.899 91.5789 113.576 105.074 90.0453C118.579 113.576 134.938 145.895 134.938 157.472C134.938 173.941 121.542 187.336 105.074 187.336Z" fill="white"/>
</svg>
