<svg width="24" height="24" viewBox="0 0 24 24" fill="none" xmlns="http://www.w3.org/2000/svg">
<path d="M15.7717 10.25C15.8857 10.6915 16.284 11 16.74 11H18C19.0609 11 20.0783 11.4214 20.8284 12.1716C21.5786 12.9217 22 13.9391 22 15C22 16.0609 21.5786 17.0783 20.8284 17.8284C20.0783 18.5786 19.0609 19 18 19H8.99999H8.99924C7.68979 19.001 6.40631 18.6346 5.29465 17.9426C4.18299 17.2506 3.28773 16.2606 2.7106 15.0852C2.13346 13.9098 1.89759 12.5961 2.02979 11.2933C2.16198 9.99054 2.65695 8.75098 3.45844 7.71546C4.25993 6.67994 5.3358 5.89 6.56381 5.43539C7.79183 4.98079 9.12273 4.87974 10.4053 5.14374C11.6879 5.40774 12.8707 6.0262 13.8193 6.92885C14.7679 7.83149 15.4444 8.98212 15.7717 10.25Z" stroke="#2F3D45" stroke-width="2" stroke-linecap="round" stroke-linejoin="round"/>
</svg>
